<?xml version="1.0" encoding="utf-8"?>
<!-- Generator: Adobe Illustrator 17.1.0, SVG Export Plug-In . SVG Version: 6.00 Build 0)  -->
<!DOCTYPE svg PUBLIC "-//W3C//DTD SVG 1.1//EN" "http://www.w3.org/Graphics/SVG/1.1/DTD/svg11.dtd">
<svg version="1.1" id="Layer_30" xmlns="http://www.w3.org/2000/svg" xmlns:xlink="http://www.w3.org/1999/xlink" x="0px" y="0px"
	 viewBox="0 0 24 24" enable-background="new 0 0 24 24" xml:space="preserve">
<g>
	<path d="M14,2c0.2,0.1,0.3,0.3,0.3,0.5c0,0.3,0,0.5,0,0.8c0.1,0,0.1,0,0.1,0c0.5,0,0.9,0,1.4,0c0.9,0,1.6,0.6,1.6,1.6
		c0,0.4,0,0.9,0,1.3c0,0,0,0.1,0,0.1C17,6.6,16.6,7,16.2,7.4c0-0.1,0-0.1,0-0.2c0-0.8,0-1.6,0-2.3c0-0.3-0.1-0.5-0.5-0.5
		c-0.5,0-0.9,0-1.4,0c0,0-0.1,0-0.1,0c0,0.2,0,0.4,0,0.6c0,0.2-0.1,0.3-0.2,0.3c-0.2,0-0.3,0-0.4-0.1c-0.1-0.1-0.1-0.2-0.1-0.3
		c0-0.2,0-0.3,0-0.5c-0.7,0-1.4,0-2.1,0c0,0.2,0,0.4,0,0.6c0,0.3-0.2,0.4-0.5,0.4c-0.2-0.1-0.3-0.2-0.3-0.4c0-0.2,0-0.4,0-0.6
		c-0.6,0-1.2,0-1.9,0c0,0.2,0,0.4,0,0.6c0,0.3-0.3,0.4-0.5,0.3C8.1,5.3,8.1,5.1,8.1,5c0-0.2,0-0.4,0-0.6c-0.7,0-1.4,0-2.2,0
		c0,0.2,0,0.4,0,0.6c0,0.3-0.3,0.4-0.5,0.4C5.2,5.3,5.1,5.2,5.1,5c0-0.2,0-0.4,0-0.6c-0.1,0-0.3,0-0.4,0c-0.3,0-0.6,0-1,0
		c-0.3,0-0.4,0.1-0.4,0.4c0,1.4,0,2.8,0,4.2c0,3.8,0,7.5,0,11.3c0,0,0,0.1,0,0.1c0,0.3,0.1,0.4,0.4,0.4c1.1,0,2.2,0,3.4,0
		c0.1,0,0.2,0,0.2,0.1c0.3,0.2,0.6,0.2,1,0.1c0,0,0,0,0.1,0c0.4-0.2,0.8-0.2,1.3-0.2c2,0,4,0,6.1,0c0.4,0,0.5-0.1,0.5-0.5
		c0-1.4,0-2.7,0-4.1c0-0.1,0-0.1,0.1-0.2c0.3-0.3,0.6-0.6,0.9-0.9c0,0,0.1-0.1,0.1-0.1c0,0.1,0,0.1,0,0.1c0,1.8,0,3.5,0,5.3
		c0,0.7-0.5,1.3-1.2,1.5c-0.1,0-0.3,0-0.4,0c-4,0-8,0-12,0c-0.9,0-1.5-0.6-1.6-1.3c0,0,0,0,0-0.1c0-5.4,0-10.7,0-16.1c0,0,0,0,0-0.1
		c0.1-0.7,0.6-1.2,1.3-1.2c0.4,0,0.8,0,1.2,0c0.1,0,0.3,0,0.4,0c0-0.3,0-0.5,0-0.8c0-0.2,0.1-0.4,0.3-0.5c0.1,0,0.1,0,0.2,0
		c0.2,0.1,0.3,0.3,0.3,0.5c0,0.2,0,0.3,0,0.5c0,0.1,0,0.2,0,0.3c0.7,0,1.4,0,2.2,0c0-0.3,0-0.5,0-0.8C8,2.3,8.1,2.1,8.3,2
		c0.1,0,0.1,0,0.2,0c0.2,0.1,0.3,0.3,0.3,0.5c0,0.2,0,0.3,0,0.5c0,0.1,0,0.2,0,0.3c0.6,0,1.3,0,1.9,0c0-0.3,0-0.5,0-0.8
		c0-0.2,0.1-0.4,0.3-0.5c0.1,0,0.1,0,0.2,0c0.2,0.1,0.3,0.3,0.3,0.5c0,0.2,0,0.3,0,0.5c0,0.1,0,0.2,0,0.3c0.7,0,1.4,0,2.1,0
		c0-0.3,0-0.5,0-0.8c0-0.2,0.1-0.4,0.3-0.5C13.9,2,13.9,2,14,2z"/>
	<path d="M19.8,11.4C19.8,11.4,19.8,11.4,19.8,11.4c-2.5,2.5-4.9,4.9-7.3,7.3c-0.1,0.1-0.3,0.2-0.5,0.3c-1.2,0.4-2.5,0.8-3.7,1.2
		c0,0,0,0-0.1,0c-0.1,0-0.2,0-0.3-0.1c-0.1-0.1-0.1-0.2,0-0.3c0.4-1.3,0.8-2.5,1.2-3.8c0-0.1,0.1-0.3,0.2-0.4
		c0.4-0.4,0.8-0.8,1.2-1.2c0,0,0.1-0.1,0.1-0.1c-0.1,0-0.1,0-0.2,0c-1.5,0-2.9,0-4.4,0c-0.1,0-0.1,0-0.2,0c-0.2,0-0.3-0.2-0.3-0.3
		c0-0.2,0.1-0.3,0.3-0.3c0,0,0.1,0,0.1,0c1.7,0,3.4,0,5.2,0c0.1,0,0.2,0,0.2-0.1c1.7-1.7,3.4-3.4,5.1-5.1c0,0,0.1-0.1,0.1-0.1
		C17.7,9.3,18.8,10.4,19.8,11.4z M16.7,9.7c0-0.1-0.1-0.2-0.2-0.3c-0.1-0.1-0.2,0-0.3,0c0,0-0.1,0.1-0.1,0.1
		c-1.9,1.9-3.8,3.8-5.7,5.7c0,0,0,0-0.1,0.1c-0.1,0.1-0.1,0.3,0,0.4c0.1,0.1,0.3,0.1,0.4,0c0,0,0.1-0.1,0.1-0.1
		c1.9-1.9,3.8-3.7,5.6-5.6c0,0,0.1-0.1,0.1-0.1C16.6,9.8,16.7,9.8,16.7,9.7z M11.4,18.6c-0.6-0.6-1.3-1.3-1.9-1.9
		c-0.2,0.5-0.3,1-0.5,1.5c0,0,0,0.1,0,0.1c0.2,0.2,0.5,0.5,0.7,0.7c0,0,0.1,0,0.1,0c0.3-0.1,0.6-0.2,0.9-0.3
		C11,18.7,11.2,18.6,11.4,18.6z"/>
	<path d="M20.3,10.8c-1-1-2.1-2.1-3.1-3.1c0,0,0,0,0,0C17.6,7.3,18,7,18.4,6.6c0.2-0.2,0.4-0.3,0.7-0.3c0.2,0,0.4,0.1,0.5,0.2
		c0.6,0.6,1.3,1.3,1.9,1.9c0.3,0.3,0.3,0.6,0.1,1c0,0.1-0.1,0.1-0.1,0.2C21.1,10.1,20.7,10.4,20.3,10.8z"/>
	<path d="M9.6,11.2c-1.2,0-2.4,0-3.5,0c0,0-0.1,0-0.1,0c-0.2,0-0.4-0.2-0.4-0.3c0-0.2,0.2-0.3,0.4-0.3c0,0,0.1,0,0.1,0
		c2.4,0,4.7,0,7.1,0c0.1,0,0.1,0,0.2,0c0.2,0,0.3,0.2,0.3,0.3c0,0.2-0.1,0.3-0.3,0.3c0,0-0.1,0-0.2,0C12,11.2,10.8,11.2,9.6,11.2z"
		/>
	<path d="M9.6,7.8c1.2,0,2.4,0,3.6,0c0.1,0,0.1,0,0.2,0c0.2,0,0.2,0.2,0.2,0.4c0,0.2-0.1,0.3-0.3,0.3c0,0-0.1,0-0.1,0
		c-2.4,0-4.8,0-7.2,0c-0.1,0-0.1,0-0.2,0c-0.2,0-0.3-0.2-0.2-0.4c0-0.2,0.1-0.3,0.3-0.3c0.1,0,0.1,0,0.2,0C7.3,7.8,8.4,7.8,9.6,7.8z
		"/>
</g>
</svg>
