<?xml version="1.0" encoding="utf-8"?>
<!-- Generator: Adobe Illustrator 17.1.0, SVG Export Plug-In . SVG Version: 6.00 Build 0)  -->
<!DOCTYPE svg PUBLIC "-//W3C//DTD SVG 1.1//EN" "http://www.w3.org/Graphics/SVG/1.1/DTD/svg11.dtd">
<svg version="1.1" id="Layer_30" xmlns="http://www.w3.org/2000/svg" xmlns:xlink="http://www.w3.org/1999/xlink" x="0px" y="0px"
	 width="24px" height="24px" viewBox="0 0 24 24" enable-background="new 0 0 24 24" xml:space="preserve">
<g>
	<path d="M20.9,2c-0.3,2-0.5,3.6-0.8,5.1c-0.2,1.4-0.8,2.4-2.5,2.5c-0.5,0-1.1,0.2-1.7,0.7c0.8,0.2,1.7,0.5,2.6,0.7
		c-0.8,2-1.9,3.9-3.7,5.3c-0.4,0.3-1.1,0.3-1.7,0.2c-0.6-0.1-1.3-0.3-2.3-0.6c0.6,0.9,1,1.5,1.5,2.1c-1.3,0.7-2.7,0.6-4,0.1
		c-0.9-0.3-1.5-0.2-2.2,0.4c-0.9,0.8-1.9,1.5-2.9,2.3c-0.1-0.1-0.1-0.2-0.1-0.2c3.3-3,4.5-7.5,8.2-10.2c2.8-2.1,5.3-4.7,8-7
		C19.7,3,20.1,2.7,20.9,2z"/>
	<path d="M11.9,20.3c-1.4,0.2-2.8,0.4-4.1,0.6c-1.3,0.2-2.5,0.4-4,0.3c0.4-0.2,0.8-0.5,1.2-0.6c2-0.4,4-0.7,6-1
		c1.1-0.2,2.2-0.1,1.9,1.6c2.4-0.4,4.5-0.7,6.7-1.1c0,0.1,0.1,0.2,0.1,0.4C19.5,20.8,19.3,21,19,21c-1.7,0.3-3.4,0.6-5.1,0.9
		C12.5,22.1,12.3,22,11.9,20.3z"/>
</g>
</svg>
