<svg xmlns="http://www.w3.org/2000/svg" width="24" height="24"><path d="M20.9 2c-.3 2-.5 3.6-.8 5.1-.2 1.4-.8 2.4-2.5 2.5-.5 0-1.1.2-1.7.7.8.2 1.7.5 2.6.7-.8 2-1.9 3.9-3.7 5.3-.4.3-1.1.3-1.7.2-.6-.1-1.3-.3-2.3-.6.6.9 1 1.5 1.5 2.1-1.3.7-2.7.6-4 .1-.9-.3-1.5-.2-2.2.4-.9.8-1.9 1.5-2.9 2.3-.1-.1-.1-.2-.1-.2 3.3-3 4.5-7.5 8.2-10.2 2.8-2.1 5.3-4.7 8-7 .4-.4.8-.7 1.6-1.4zm-9 18.3c-1.4.2-2.8.4-4.1.6-1.3.2-2.5.4-4 .3.4-.2.8-.5 1.2-.6 2-.4 4-.7 6-1 1.1-.2 2.2-.1 1.9 1.6 2.4-.4 4.5-.7 6.7-1.1 0 .1.1.2.1.4-.2.3-.4.5-.7.5l-5.1.9c-1.4.2-1.6.1-2-1.6z"/></svg>