<svg xmlns="http://www.w3.org/2000/svg" width="24" height="24"><path d="M20.8 9.1c.8-.8 1.2-1.8 1.2-3s-.4-2.1-1.2-2.9C20 2.4 19 2 17.9 2c-1.1 0-2.1.4-2.9 1.2-.7.7-1.1 1.6-1.2 2.5l-1 .6c-.1 0-.1 0-.2.1l-.2.1-2.5 1.3-7.7 4.3c-.2.1-.2.2-.2.4s.2.3.3.3c1.1.1 1.7.4 2 .8.3.5 0 1.1 0 1.1v.2l.1.1v.1h.2c.8-.1 1.3 0 1.6.3.3.4.1 1.1.1 1.1 0 .2 0 .3.2.4.1 0 .1.1.2.1h.1c.2 0 1.1 0 1.6.6.3.4.4.9.3 1.6v.2h.1s0 .1.1.1h.2s.3-.1.6-.1c1 0 1.3 1.2 1.4 2.2 0 .2.1.3.3.3h.1c.1 0 .3-.1.3-.2l3.4-6 2.2-4.1.1-.2c.1-.1.1-.1.1-.2l.6-1c1 0 1.9-.5 2.6-1.1zm-5.1 4.3l-1-1 1.2-1.6.7.7-.9 1.9zM9.9 8.6L11 9.7l-1.1.8-1.3-1.2 1.3-.7zm3.7-.1l.4.4-1.4 1.4-.6-.5 1.6-1.3zm1 .9l.9.9-1.3 1.7-1.1-1.1 1.5-1.5zm-2.2-2.1l.7.7-1.6 1.2-1-1 1.9-.9zm-1 2.9l.7.7-.9.9-.8-.8 1-.8zm1.2 1.2l1.2 1.2-.8 1-1.3-1.3.9-.9zm4.5-.5l-.9-.9-1.4-1.4-.9-.9-.9-.9.9-.5 3.7 3.7-.5.9zM3.4 12.2L8 9.7 9.3 11l-4.1 3c0-.2-.1-.5-.2-.8-.3-.5-.8-.8-1.6-1zm2.4 2.3L9 12.1l.8-.6.9.9-3.5 3.5c0-.2-.1-.5-.3-.7-.2-.4-.6-.6-1.1-.7zm1.8 1.9l3.6-3.6 1.4 1.4-3 4c-.1-.4-.2-.8-.5-1-.5-.5-1-.7-1.5-.8zm4.2 4.2c-.4-1.4-1.2-1.7-1.8-1.8l3.1-4.1 1.2 1.2-2.5 4.7zm2.9-5.3l-1.2-1.2.8-1.1 1 1-.6 1.3z"/></svg>