<svg xmlns="http://www.w3.org/2000/svg" viewBox="0 0 24 24"><path opacity=".5" d="M12.1 11.8V2.3h8.4c.6 0 1 .5 1 1v8.4h-9.4zm-8.6 9.8c-.6 0-1-.5-1-1v-8.4H12v9.5H3.5z"/><path d="M3.4 22.1c-.8 0-1.5-.7-1.5-1.5V3.4c0-.8.7-1.5 1.5-1.5h17.1c.8 0 1.5.7 1.5 1.5v17.1c0 .8-.7 1.5-1.5 1.5H3.4zm17.2-.7c.5 0 .8-.4.8-.8v-8.2h-9v9h8.2zm-18-.8c0 .5.4.8.8.8h8.2v-9h-9v8.2zm18.8-9V3.4c0-.5-.4-.8-.8-.8h-8.2v9h9zm-9.8 0v-9H3.4c-.4 0-.8.4-.8.8v8.2h9z"/><path fill="#FFF" d="M16.9 10.2c-1.7 0-3.1-1.4-3.1-3.1S15.2 4 16.9 4 20 5.4 20 7.1s-1.3 3.1-3.1 3.1z"/><path opacity=".16" d="M16.9 4.1c1.6 0 2.9 1.3 2.9 2.9s-1.3 3-2.9 3S14 8.7 14 7s1.3-2.9 2.9-2.9m0-.2c-1.7 0-3.1 1.4-3.1 3.1s1.4 3.1 3.1 3.1c1.7 0 3.1-1.4 3.1-3.1s-1.3-3.1-3.1-3.1z"/><path opacity=".16" d="M16.9 5.3c1 0 1.8.8 1.8 1.8s-.8 1.8-1.8 1.8S15.2 8 15.2 7c0-.9.8-1.7 1.7-1.7m0-.3c-1.1 0-2 .9-2 2s.9 2 2 2 2-.9 2-2-.9-2-2-2z"/><circle opacity=".54" cx="7.2" cy="17" r="3.3"/><path opacity=".16" d="M7.2 20.2C5.4 20.2 4 18.8 4 17s1.5-3.3 3.3-3.3 3.3 1.5 3.3 3.3-1.6 3.2-3.4 3.2zm0-6.3c-1.7 0-3.1 1.4-3.1 3.1s1.5 3 3.1 3c1.7 0 3.1-1.4 3.1-3.1s-1.4-3-3.1-3z"/><path opacity=".16" d="M7.2 19.1c-1.2 0-2.1-.9-2.1-2.1s.9-2.1 2.1-2.1 2.1.9 2.1 2.1-.9 2.1-2.1 2.1zm0-4c-1 0-1.9.8-1.9 1.9s.8 1.9 1.9 1.9c1 0 1.9-.8 1.9-1.9s-.8-1.9-1.9-1.9z"/></svg>