<svg xmlns="http://www.w3.org/2000/svg" viewBox="0 0 24 24"><path d="M11.8 22.1c-1.1 0-3.7 0-4.2-.5-.1-.1-.1-.1-.1-.2 0-.3.4-.6.7-.8-.3-.2-.6-.4-.5-.8 0-.3.3-.5.6-.7.2-.2.5-.4.8-.7.3-.5.3-.6.3-.7 0-.1 0-.2.1-.3.1-.1.2-.1.3-.2V17c.2-.4.9-2.8 1-4 .1-1 0-2.6 0-2.9-.2 0-.5 0-.8-.1-.1 0-.1 0-.2-.1-.2-.2-.4-.3-.4-.6 0-.1 0-.2.1-.3.2-.2.4-.2.7-.2-.1-.1-.2-.2-.2-.3 0-.3.2-.4.5-.5.1 0 .2-.1.2-.1.1 0 .3 0 .3-.1-.3-.1-.6-.4-.8-.6-.5-.7-.8-1.3-.8-1.7 0-.9.9-1 1.7-1h.1v-.1c0-.1.2-.2.4-.2h.2v-.1l-.1.1c-.1-.1-.3-.1-.3-.3 0-.1.1-.2.2-.2 0 0 .1 0 .1-.1s.1-.1 0-.2-.1-.1-.2-.1c-.2 0-.2.1-.2.1h-.1c-.1 0-.1 0-.1-.1-.1-.2-.1-.3 0-.6v-.1l.1-.1c.1 0 .1 0 .2.1.1 0 .1.1.2.1.2 0 .2-.1.2-.2l-.1-.1c-.1 0-.2 0-.2-.2 0-.1.1-.1.2-.2l.1-.1c0-.1-.1-.1 0-.2s.1-.1.2-.1.2 0 .3.1V2c.1 0 .3 0 .3.2 0 .1-.1.2-.2.2l-.1.1c0 .1 0 .2.2.2.1 0 .1 0 .2-.1.1 0 .1-.1.2-.1h.1v.4c.1.2.1.4 0 .6v.1h-.1s-.1 0-.1-.1l-.1-.1h-.1c-.1 0-.2 0-.2.1-.1.1-.1.1 0 .2 0 0 .1 0 .1.1.1 0 .2.1.2.2s-.1.2-.3.3l-.1.1h.1c.2 0 .4.1.4.2h.1c.9 0 1.7.1 1.7 1 0 .4-.2 1-.8 1.6-.2.3-.6.5-.8.6.1 0 .2.1.3.2.1 0 .1.1.2.1.2.1.5.2.5.4 0 .1-.1.2-.2.3.3 0 .5.1.7.2.1.1.1.2.1.3 0 .2-.2.4-.4.5 0 0-.1.1-.2.1-.2.1-.6.1-.8.1v2.9c.1 1.2.8 3.6 1 4v.2c.1 0 .2.1.3.2.1.1.1.2.1.3 0 .1 0 .3.3.7.2.3.5.5.8.7.3.2.5.4.6.7 0 .4-.3.7-.6.9.4.1.7.5.7.8 0 .5-1.4.7-4.1.7h-.5zm.6-.5c2.2 0 3.1-.2 3.4-.3-.1-.1-.2-.1-.2-.2H8.4s-.1.1-.2.1c.5.1 1.7.3 3.6.3h.2l.4.1zm-2.6-3.8c0 .2-.1.5-.4.9-.3.4-.6.7-.9.8-.3.2-.3.2-.3.3 0 .1.2.3.4.4h6.8c.2-.1.4-.3.4-.4 0-.1-.1-.1-.3-.3-.3-.2-.6-.4-.9-.8-.3-.4-.4-.7-.4-.9H9.8zm3.9-.9c-.3-.9-.9-2.8-.9-3.8-.1-.9 0-2.2 0-2.8h-1.5v2.8c-.1 1-.6 2.9-.9 3.8h3.3zm-3.6-7.5H14h-3.6c-.2-.1-.3 0-.3 0-.1 0 0 0 0 0zm2.9-.9c-.2-.1-.4-.2-.4-.3h-1.2c-.1 0-.2.1-.4.2l2 .1zm-1.8-3.4c-1.1 0-1.2.2-1.2.4 0 .1 0 .5.7 1.3.1.2.4.4.7.5h1.4c.2-.1.5-.3.6-.5.6-.7.6-1.1.6-1.2 0-.3-.1-.4-1.2-.4H12l-.8-.1z"/></svg>