<svg xmlns="http://www.w3.org/2000/svg" viewBox="0 0 24 24"><path d="M14.7 22.1h-.3c-.1 0-.3-.1-.4-.2-.5-.5-.5-1.5-.5-2.1v-2.6c-.1-.7-.3-1.1-.4-1.2l-5-5c-.2-.2-.8-.4-2.2-.4H4.4c-.6 0-1.6-.1-2.1-.5-.2-.1-.3-.3-.3-.4-.2-.9.4-2.1 1.4-3.2l.4-.4c1.3-1.2 3-2.3 4.2-2.9 1.3-.6 3-1.1 4-1.1h.4c0-.1.1-.1.2-.1.1-.1.2-.1.2-.1.3 0 .8.2 1.1.4l.2.1c.2.1 1.7 1.1 1.9 1.5.2.3.1.7 0 .9l3.5 3.8c.1-.2.3-.3.4-.3.1 0 .2 0 .2.1.4.2 1.3 1.2 1.4 1.4.3.6.5 1.1.4 1.4 0 .1-.1.2-.1.2.1.1.1.2.1.2.1 1.1-.4 3.1-1 4.4-.6 1.2-1.8 2.9-2.9 4.2-.1.2-.3.3-.4.4-1 .9-2.1 1.5-2.9 1.5zM5.9 9.9c1.5 0 2.2.3 2.5.6l5.1 5.1c.3.4.7 1.4.5 3.4-.1 1.1.1 2 .4 2.4h.2c.8 0 1.9-.6 2.7-1.6 1.1-1.2 2.3-2.9 2.8-4.1.7-1.4 1.1-3.2 1-4.1v-.1c-.1-.6-.3-1-1-2l-.2-.2c-.1-.1-.2-.1-.3-.1h-.2c-.1 0-.2-.1-.5-.5l-.7-.7-.8-.8-.3-.3s-.9-.8-1.1-1.1c-.7-.7-.8-.9-.9-1v-.3s0-.1-.1-.1c-.1-.1-.1-.1-.3-.2-1.3-1-2.1-1.3-2.5-1.3h-.3c-1 0-2.5.4-3.8 1-1 .4-2.7 1.6-3.9 2.7-1 .9-1.7 2.1-1.6 2.8 0 0 0 .1.1.1.3.3 1 .5 1.8.5H5c.4-.1.7-.1.9-.1z"/><circle opacity=".5" cx="11.2" cy="9.7" r="1.4"/><path d="M10.5 8.8l.3.3c.1.1.2.1.3.1s.2 0 .3-.1l.3-.3c.1 0 .1.1.2.1s.1.1.2.1l-.3.3c-.2.2-.2.5 0 .7l.3.3c0 .1-.1.1-.1.2 0 0-.1.1-.2.1l-.3-.3c-.1-.1-.2-.1-.3-.1s-.2 0-.3.1l-.3.3c-.1 0-.1-.1-.2-.1 0 0-.1-.1-.1-.2l.3-.3c.2-.2.2-.5 0-.7l-.3-.3c0-.1.1-.1.2-.2-.1 0 0 0 0 0m1.3-.3c-.1 0-.1 0-.2.1l-.3.3s-.1.1-.2.1-.1 0-.2-.1l-.3-.3s-.1-.1-.2-.1h-.1c-.1.1-.2.1-.2.2s0 .2-.1.2v.3l.3.3c.1.1.1.2 0 .3l-.3.4c-.1.1-.1.2 0 .3.1.1.1.2.2.2s.1.1.2.2h.1c.1 0 .1 0 .2-.1l.3-.3s.1-.1.2-.1.1 0 .2.1l.3.3s.1.1.2.1h.1c.1-.1.2-.1.2-.2l.2-.2c.1-.1 0-.2 0-.3l-.4-.4c-.1-.1-.1-.2 0-.3l.3-.3c.1-.1.1-.2 0-.3-.1-.1-.1-.2-.2-.2s-.1-.1-.2-.2h-.1z"/><circle cx="11" cy="5.1" r="1"/><path d="M11 3.9c.3 0 .6.1.9.4.5.5.5 1.3 0 1.8-.2.2-.6.4-.9.4-.3 0-.6-.1-.9-.4s-.3-.6-.3-1 .1-.6.4-.9c.2-.2.5-.3.8-.3m0-.3c-.4 0-.8.1-1.1.4-.6.6-.6 1.5 0 2.1.3.3.7.4 1.1.4.4 0 .8-.1 1.1-.4.6-.6.6-1.5 0-2.1-.3-.2-.7-.4-1.1-.4z"/><circle cx="14.4" cy="13.1" r="1"/><path d="M14.4 11.8c.3 0 .6.1.9.4.5.5.5 1.3 0 1.8-.2.2-.6.4-.9.4s-.6-.1-.9-.4c-.5-.5-.5-1.3 0-1.8.3-.2.6-.4.9-.4m0-.2c-.4 0-.8.1-1.1.4-.6.6-.6 1.5 0 2.1.3.3.7.4 1.1.4.4 0 .8-.1 1.1-.4.6-.6.6-1.5 0-2.1-.3-.3-.7-.4-1.1-.4z"/><circle fill="#42A5F5" cx="17.7" cy="11.7" r=".8"/><circle fill="#EF5350" cx="19.7" cy="13.7" r=".8"/><circle fill="#FFEE58" cx="19.7" cy="11.7" r=".8"/><circle fill="#66BB6A" cx="17.7" cy="13.7" r=".8"/><path opacity=".5" d="M16.8 8.9c-.2.2-.4.3-.6.3h-.1c-.3 0-.7-.1-.9-.3-.2-.2-.3-.5-.3-.9v-.1c0-.2.1-.4.3-.6.2-.2.4-.3.6-.3h.6c.2.1.3.1.4.3.1.1.2.3.3.4.1.2.1.4 0 .6 0 .3-.1.5-.3.6z"/><path d="M16.6 8c0 .4-.1.8-.3 1.2h-.1c.2-.5.2-.9.1-1.3-.4-.1-.9-.1-1.3.1v-.1c.4-.3.8-.3 1.2-.3-.1-.2-.2-.4-.3-.5h.6c.1.1.1.3.2.5.2 0 .4.1.5.2.1.2.1.4 0 .6-.2-.1-.4-.2-.6-.4z"/></svg>