<?xml version="1.0" encoding="utf-8"?>
<!-- Generator: Adobe Illustrator 17.1.0, SVG Export Plug-In . SVG Version: 6.00 Build 0)  -->
<!DOCTYPE svg PUBLIC "-//W3C//DTD SVG 1.1//EN" "http://www.w3.org/Graphics/SVG/1.1/DTD/svg11.dtd">
<svg version="1.1" id="Layer_30" xmlns="http://www.w3.org/2000/svg" xmlns:xlink="http://www.w3.org/1999/xlink" x="0px" y="0px"
	 viewBox="0 0 24 24" enable-background="new 0 0 24 24" xml:space="preserve">
<g>
	<path d="M2,18.9c0-4.4,0-8.7,0-13.1c0-0.2,0-0.4,0-0.6c0-0.8,0.7-1.6,1.6-1.6c0.9,0,1.7,0,2.6,0c0,0,0.1,0,0.1,0c0,0.1,0,0.1,0,0.1
		c0,0.2,0,0.5,0,0.7c0,0.7,0,1.3,0,2c0,0.3,0,0.5,0.2,0.8c0.4,0.6,1.3,0.6,1.7,0.2c0.1-0.1,0.2-0.3,0.4-0.4C8.7,7,8.7,6.9,8.7,6.8
		c0-1,0-2,0-2.9c0-0.1,0-0.1,0-0.2c1.8,0,3.6,0,5.4,0c0,0.5,0,1,0,1.5c0,0.6,0,1.1,0,1.7c0,0.1,0,0.2,0.1,0.3c0.4,0.9,1.5,1,2,0.3
		c0.1-0.1,0.2-0.2,0.2-0.3c0-0.1,0.1-0.2,0.1-0.2c0-1,0-2,0-3c0,0,0-0.1,0-0.1c0.1,0,0.1,0,0.1,0c0.9,0,1.7,0,2.6,0
		c0.2,0,0.4,0,0.6,0.1c0.4,0.2,0.7,0.5,0.9,0.9c0.1,0.3,0.1,0.6,0.1,0.9c0,2.3,0,4.6,0,6.9c0,0,0,0.1,0,0.1c0,0-0.1-0.1-0.1-0.1
		c-0.3-0.2-0.6-0.4-0.8-0.7c-0.1-0.1-0.2-0.1-0.3-0.2c-0.1-0.1,0-0.2,0-0.4c0-0.2,0-1.5,0-1.7c-5.4,0-10.8,0-16.3,0c0,0,0,0.1,0,0.1
		c0,2.5,0,6.2,0,8.7c0,0.6,0,1.1,0,1.7c0,0.4,0.3,0.7,0.7,0.7c0.3,0,0.6,0,0.9,0c2.5,0,5,0,7.5,0c0.1,0,0.1,0,0.2,0.1
		c0.5,0.5,1.1,0.8,1.7,1.1c0,0,0.1,0,0.1,0.1c0,0-0.1,0-0.1,0c-2.2,0-4.4,0-6.5,0c-1.4,0-2.8,0-4.2,0c-0.4,0-0.8-0.2-1.1-0.5
		c-0.1-0.2-0.3-0.4-0.4-0.5C2,20.8,2,20.7,2,20.5c0-0.5,0-0.9,0-1.4C2,19.1,2,19,2,18.9z"/>
	<path d="M22,17c0,0.2,0,0.4-0.1,0.6c-0.5,2.2-2.2,3.9-4.3,4.2c-1.9,0.3-3.5-0.2-4.8-1.5c-0.8-0.8-1.3-1.8-1.5-2.9
		c-0.3-2.2,0.5-3.9,2.2-5.2c0.7-0.5,1.6-0.9,2.5-1c3.1-0.3,5.4,1.8,5.9,4.4c0,0.2,0.1,0.4,0.1,0.6C22,16.5,22,16.7,22,17z
		 M21.2,16.6c0-2.4-2.1-4.6-4.6-4.6c-2.5,0-4.6,2.1-4.6,4.6c0,2.6,2.2,4.7,4.7,4.6C19.1,21.2,21.2,19.1,21.2,16.6z"/>
	<path d="M15.3,2c0.1,0,0.1,0,0.2,0c0.4,0.1,0.6,0.3,0.7,0.6c0,0,0,0.1,0,0.1c0,1.3,0,2.6,0,3.8c0,0.3-0.3,0.7-0.7,0.8
		c-0.5,0.1-0.9-0.1-1.1-0.6c0,0,0-0.1,0-0.1c0-1.3,0-2.6,0-3.8c0-0.3,0.2-0.5,0.4-0.7C14.9,2.1,15.1,2.1,15.3,2
		C15.2,2,15.3,2,15.3,2z"/>
	<path d="M7.5,2c0.1,0,0.1,0,0.2,0C8,2.1,8.2,2.4,8.3,2.7c0,0,0,0.1,0,0.1c0,1.3,0,2.6,0,3.8c0,0.3-0.3,0.7-0.7,0.8
		c-0.5,0.1-0.9-0.1-1-0.6c0,0,0-0.1,0-0.1c0-1.3,0-2.6,0-3.8c0-0.3,0.2-0.5,0.4-0.7C7.1,2.1,7.3,2,7.5,2C7.4,2,7.4,2,7.5,2z"/>
	<path d="M7.5,17.4c0,0.8,0,1.5,0,2.2c-0.8,0-1.5,0-2.3,0c0-0.7,0-1.5,0-2.2C6,17.4,6.7,17.4,7.5,17.4z M7.1,19.3c0,0,0-0.1,0-0.1
		c0-0.4,0-0.8,0-1.2c0-0.1,0-0.1-0.1-0.1c-0.4,0-0.8,0-1.2,0c0,0-0.1,0-0.1,0c0,0.5,0,0.9,0,1.4C6.1,19.3,6.6,19.3,7.1,19.3z"/>
	<path d="M8.5,19.7c0-0.8,0-1.5,0-2.2c0.8,0,1.5,0,2.3,0c0,0.8,0,1.5,0,2.2C10,19.7,9.2,19.7,8.5,19.7z M10.3,17.9
		c-0.5,0-0.9,0-1.4,0c0,0.5,0,0.9,0,1.4c0.5,0,0.9,0,1.4,0C10.3,18.8,10.3,18.3,10.3,17.9z"/>
	<path d="M10.7,16.8c-0.8,0-1.5,0-2.3,0c0-0.8,0-1.5,0-2.3c0.8,0,1.5,0,2.3,0C10.7,15.3,10.7,16,10.7,16.8z M8.9,14.9
		c0,0.5,0,0.9,0,1.4c0.5,0,0.9,0,1.4,0c0-0.5,0-0.9,0-1.4C9.8,14.9,9.4,14.9,8.9,14.9z"/>
	<path d="M8.5,13.8c0-0.8,0-1.5,0-2.2c0.8,0,1.5,0,2.3,0c0,0.7,0,1.5,0,2.2C10,13.8,9.2,13.8,8.5,13.8z M8.9,13.4c0.5,0,0.9,0,1.4,0
		c0-0.5,0-0.9,0-1.4c-0.5,0-0.9,0-1.4,0C8.9,12.5,8.9,12.9,8.9,13.4z"/>
	<path d="M5.3,14.5c0.8,0,1.5,0,2.3,0c0,0.8,0,1.5,0,2.3c-0.8,0-1.5,0-2.3,0C5.3,16,5.3,15.3,5.3,14.5z M7.1,14.9
		c-0.5,0-0.9,0-1.4,0c0,0.5,0,0.9,0,1.4c0,0,0,0,0,0c0.4,0,0.9,0,1.3,0c0.1,0,0.1,0,0.1-0.1c0-0.2,0-0.5,0-0.7
		C7.1,15.3,7.1,15.1,7.1,14.9z"/>
	<path d="M5.2,13.8c0-0.8,0-1.5,0-2.2c0.8,0,1.5,0,2.3,0c0,0.7,0,1.5,0,2.2C6.8,13.8,6,13.8,5.2,13.8z M5.7,12c0,0.5,0,0.9,0,1.4
		c0.5,0,0.9,0,1.4,0c0-0.5,0-0.9,0-1.4C6.6,12,6.1,12,5.7,12z"/>
	<path d="M11.7,11.6c0.7,0,1.4,0,2.1,0c-0.2,0.1-0.4,0.3-0.6,0.4c-0.1,0-0.2,0-0.3,0c-0.2,0-0.5,0-0.8,0c0,0.1,0,0.1,0,0.2
		c0,0.3,0,0.5,0,0.8c0,0.1,0,0.1-0.1,0.2c-0.1,0.2-0.2,0.3-0.3,0.5C11.7,13.4,11.6,11.9,11.7,11.6z"/>
	<path d="M17.1,16.2c0.8,0,1.7,0,2.5,0c0,0.3,0,0.6,0,0.9c-1.1,0-2.2,0-3.4,0c0,0,0-0.1,0-0.1c0-1.3,0-2.6,0-4c0-0.1,0-0.1,0.1-0.1
		c0.2,0,0.5,0,0.7,0C17.1,14,17.1,15.1,17.1,16.2z"/>
</g>
</svg>
