<svg xmlns="http://www.w3.org/2000/svg" viewBox="0 0 24 24"><g fill="#231F20"><path d="M15.2 22.1c-.4 0-1.3 0-1.7-.1-.2 0-.4-.1-.5-.2-.1-.2-.1-.4-.1-.6v-.8c-.1-.9-.1-1.8 0-2.8 0-.2.1-.4.2-.5 0-.1.1-.2.1-.2V14c-.6 1.1-1.4 1.9-2.2 2.6l-.2.2-.4.5c-.5.6-.9 1.2-1.4 1.8-.3.5-.7 1-.9 1.4-.2.4-.6.7-1 1l-.1.1s-.1.1-.2.1-.2-.1-.2-.1l-.1-.1c-.1-.1-.2-.2-.2-.3-.2-.3-.1-.6.1-.8l.1-.1.4-.4c.3-.2.4-.4.6-.7l.1-.2c.4-.7.8-1.4 1.2-2l.6-.6c.1-.1.2-.2.3-.2.2-.8.5-1.4.9-2.1.2-.3.3-.6.5-.8l.1-.1-2.1-1.3c-.1 0-.1-.1-.1-.2v-.2l.3-.4.6-.9c.3-.4.6-.8 1-1.1.1-.1.3-.2.5-.2.3 0 .5-.1.7-.3.1-.1.2-.3.2-.7 0-.1 0-.2.1-.3 1.3-.8 2.7-1.8 2.9-1.9.2-.2 1-1.5 1.1-1.9v-.2c.3-1.2.5-1.7.8-1.7h.1c.2.1.4.2.5.5.2.4.1.8 0 1-.1.2-.2.3-.3.4-.1.1-.1.2-.2.4-.1.3-.8 2.3-1.3 2.5-.7.4-2 1.7-1.9 2.1.5.6.8 1.4 1 2.6.3 1.6.4 3.2.1 4.7 0 .2-.1.3-.2.5 0 .1-.1.2-.1.3-.1.2-.1.4-.2.7l-.2 1.3c-.1.7-.2 1.3-.3 1.9.3.1.4.2.7.3.1 0 .4.1.6.3.2.1.3.3.3.5s-.1.3-.3.4c0-.2-.1-.2-.3-.2zm-1.6-.6c.3 0 1.1.1 1.5.1-.2-.1-.3-.1-.3-.1-.3-.1-.5-.1-.7-.2-.2-.1-.4-.2-.4-.7.1-.5.3-1.8.3-1.8l.2-1.4c0-.3.1-.5.2-.8 0-.1.1-.2.1-.3.1-.1.1-.2.1-.3.3-1.4.2-2.9-.1-4.5-.2-1.2-.5-1.9-1-2.4-.4-1 1.6-2.6 2.1-2.8.1-.1.6-.9.9-1.6-.3.6-.7 1.3-.9 1.5-.2.2-2.4 1.6-2.8 1.9 0 .3-.1.7-.3.9-.3.3-.7.5-1.1.5-.1 0-.1 0-.2.1-.3.2-.6.6-.8.9-.2.3-.4.6-.7.9l-.1.2 2.1 1.3c.1.1.2.2.1.4l-.2.4c-.2.3-.3.5-.5.8-.3.6-.7 1.2-.8 1.9 0 .1-.1.2-.2.3l-.3.3c-.2.2-.4.3-.5.5-.4.6-.8 1.2-1.1 1.8l-.2.3c-.2.3-.4.6-.7.9-.1.1-.2.2-.4.3l-.1.1c0 .1-.1.1 0 .1 0 .1.1.1.1.2.3-.3.6-.5.8-.8.3-.5.6-1 1-1.5.5-.6.9-1.3 1.4-1.9l.4-.5.3-.3c.8-.7 1.6-1.5 2.2-2.5.1-.2.3-.3.5-.3h.2c.2.1.3.4.3.5v2.8c0 .1 0 .2-.1.3 0 .1-.1.2-.1.3-.1.2-.1.3-.1.4-.2.9-.1 1.8 0 2.6v1.2h-.1zm3.6-19c-.1.3-.3.9-.3 1.1.1 0 .1-.1.2-.2s.1-.1.2-.3c0 0 .1-.3-.1-.6.1.1.1 0 0 0zm-5.4 10.3h-.1c-.1 0-.1-.1-.1-.1l-1.2-1c-.1-.1-.1-.3 0-.4l1-1.4c.1-.1.1-.1.2-.1h.1c.5.2.9.7 1 1.2.1.6-.1 1.2-.6 1.7-.1.1-.2.1-.3.1zm0-.6c.3-.3.4-.7.3-1-.1-.3-.2-.5-.5-.7l-.7 1 .9.7z"/><path d="M15.2 22.1c-.4 0-1.3 0-1.7-.1-.2 0-.4-.1-.5-.2-.1-.2-.1-.4-.1-.6v-.8c-.1-.9-.1-1.8 0-2.8 0-.2.1-.4.2-.5 0-.1.1-.2.1-.2V14c-.6 1.1-1.4 1.9-2.2 2.6l-.2.2-.4.5c-.5.6-.9 1.2-1.4 1.8-.3.5-.7 1-.9 1.4-.2.4-.6.7-1 1l-.1.1s-.1.1-.2.1-.2-.1-.2-.1l-.1-.1c-.1-.1-.2-.2-.2-.3-.2-.3-.1-.6.1-.8l.1-.1.4-.4c.3-.2.4-.4.6-.7l.1-.2c.4-.7.8-1.4 1.2-2l.6-.6c.1-.1.2-.2.3-.2.2-.8.5-1.4.9-2.1.2-.3.3-.6.5-.8l.1-.1-2.1-1.3c-.1 0-.1-.1-.1-.2v-.2l.3-.4.6-.9c.3-.4.6-.8 1-1.1.1-.1.3-.2.5-.2.3 0 .5-.1.7-.3.1-.1.2-.3.2-.7 0-.1 0-.2.1-.3 1.3-.8 2.7-1.8 2.9-1.9.2-.2 1-1.5 1.1-1.9v-.2c.3-1.2.5-1.7.8-1.7h.1c.2.1.4.2.5.5.2.4.1.8 0 1-.1.2-.2.3-.3.4-.1.1-.1.2-.2.4-.1.3-.8 2.3-1.3 2.5-.7.4-2 1.7-1.9 2.1.5.6.8 1.4 1 2.6.3 1.6.4 3.2.1 4.7 0 .2-.1.3-.2.5 0 .1-.1.2-.1.3-.1.2-.1.4-.2.7l-.2 1.3c-.1.7-.2 1.3-.3 1.9.3.1.4.2.7.3.1 0 .4.1.6.3.2.1.3.3.3.5s-.1.3-.3.4c0-.2-.1-.2-.3-.2zm-1.6-.6c.3 0 1.1.1 1.5.1-.2-.1-.3-.1-.3-.1-.3-.1-.5-.1-.7-.2-.2-.1-.4-.2-.4-.7.1-.5.3-1.8.3-1.8l.2-1.4c0-.3.1-.5.2-.8 0-.1.1-.2.1-.3.1-.1.1-.2.1-.3.3-1.4.2-2.9-.1-4.5-.2-1.2-.5-1.9-1-2.4-.4-1 1.6-2.6 2.1-2.8.1-.1.6-.9.9-1.6-.3.6-.7 1.3-.9 1.5-.2.2-2.4 1.6-2.8 1.9 0 .3-.1.7-.3.9-.3.3-.7.5-1.1.5-.1 0-.1 0-.2.1-.3.2-.6.6-.8.9-.2.3-.4.6-.7.9l-.1.2 2.1 1.3c.1.1.2.2.1.4l-.2.4c-.2.3-.3.5-.5.8-.3.6-.7 1.2-.8 1.9 0 .1-.1.2-.2.3l-.3.3c-.2.2-.4.3-.5.5-.4.6-.8 1.2-1.1 1.8l-.2.3c-.2.3-.4.6-.7.9-.1.1-.2.2-.4.3l-.1.1c0 .1-.1.1 0 .1 0 .1.1.1.1.2.3-.3.6-.5.8-.8.3-.5.6-1 1-1.5.5-.6.9-1.3 1.4-1.9l.4-.5.3-.3c.8-.7 1.6-1.5 2.2-2.5.1-.2.3-.3.5-.3h.2c.2.1.3.4.3.5v2.8c0 .1 0 .2-.1.3 0 .1-.1.2-.1.3-.1.2-.1.3-.1.4-.2.9-.1 1.8 0 2.6v1.2h-.1zm3.6-19c-.1.3-.3.9-.3 1.1.1 0 .1-.1.2-.2s.1-.1.2-.3c0 0 .1-.3-.1-.6.1.1.1 0 0 0zm-5.4 10.3h-.1c-.1 0-.1-.1-.1-.1l-1.2-1c-.1-.1-.1-.3 0-.4l1-1.4c.1-.1.1-.1.2-.1h.1c.5.2.9.7 1 1.2.1.6-.1 1.2-.6 1.7-.1.1-.2.1-.3.1zm0-.6c.3-.3.4-.7.3-1-.1-.3-.2-.5-.5-.7l-.7 1 .9.7z"/><path d="M10.6 9.1c-.3 0-.6-.1-.9-.2-.8-.4-1.2-1.2-.9-1.9.2-.6.7-.9 1.4-.9.2 0 .3 0 .5.1.7.2 1.2.7 1.5 1.4.2.6 0 1.1-.6 1.4-.4 0-.7.1-1 .1zm-.4-2.5c-.4 0-.7.2-.9.5-.2.5.1 1 .6 1.2.3.1.5.2.7.2.2 0 .5-.1.7-.2.3-.1.4-.3.3-.7-.2-.5-.6-.9-1.1-1h-.3z"/><path d="M10.6 9.1c-.3 0-.6-.1-.9-.2-.8-.4-1.2-1.2-.9-1.9.2-.6.7-.9 1.4-.9.2 0 .3 0 .5.1.7.2 1.2.7 1.5 1.4.2.6 0 1.1-.6 1.4-.4 0-.7.1-1 .1zm-.4-2.5c-.4 0-.7.2-.9.5-.2.5.1 1 .6 1.2.3.1.5.2.7.2.2 0 .5-.1.7-.2.3-.1.4-.3.3-.7-.2-.5-.6-.9-1.1-1h-.3z"/><path d="M7.5 10.6c-.3 0-.5-.1-.7-.2-.1-.1-.2-.1-.4-.1l-.2-.1c-.1 0-.1-.1-.2-.1v-.2l.1-.2.1-.1c.1 0 .1-.1.1-.1.5-.2.7-.6.6-1.1v-.7c.1-.6.4-.9.9-.9h.1c.3 0 .8.1.9.6 0 .1 0 .3-.2.3-.2.2-.2.2-.1.5 0 .1 0 .1.1.2 0 .1.1.3.1.3v.4c0 .6-.1 1-.5 1.3-.2.1-.4.2-.7.2zm-.4-.7c.2.1.4.1.5.1.1 0 .2 0 .3-.1.2-.2.3-.4.3-.8 0-.1 0-.2-.1-.3 0 0-.1-.2-.1-.3 0-.1-.1-.1-.1-.2-.1-.4 0-.7.3-.9h-.3l-.1-.1v.1c-.2 0-.3.1-.3.3v.6c.1.7-.1 1.2-.6 1.6h.2z"/><path d="M7.5 10.6c-.3 0-.5-.1-.7-.2-.1-.1-.2-.1-.4-.1l-.2-.1c-.1 0-.1-.1-.2-.1v-.2l.1-.2.1-.1c.1 0 .1-.1.1-.1.5-.2.7-.6.6-1.1v-.7c.1-.6.4-.9.9-.9h.1c.3 0 .8.1.9.6 0 .1 0 .3-.2.3-.2.2-.2.2-.1.5 0 .1 0 .1.1.2 0 .1.1.3.1.3v.4c0 .6-.1 1-.5 1.3-.2.1-.4.2-.7.2zm-.4-.7c.2.1.4.1.5.1.1 0 .2 0 .3-.1.2-.2.3-.4.3-.8 0-.1 0-.2-.1-.3 0 0-.1-.2-.1-.3 0-.1-.1-.1-.1-.2-.1-.4 0-.7.3-.9h-.3l-.1-.1v.1c-.2 0-.3.1-.3.3v.6c.1.7-.1 1.2-.6 1.6h.2zm4.7 2.9h-.1c-.1 0-.1-.1-.1-.1l-1.2-1c-.1-.1-.1-.3 0-.4l1-1.4c.1-.1.1-.1.2-.1h.1c.5.2.9.7 1 1.2.1.6-.1 1.2-.6 1.7-.1.1-.2.1-.3.1zm0-.6c.3-.3.4-.7.3-1-.1-.3-.2-.5-.5-.7l-.7 1 .9.7z"/><path d="M11.8 12.8h-.1c-.1 0-.1-.1-.1-.1l-1.2-1c-.1-.1-.1-.3 0-.4l1-1.4c.1-.1.1-.1.2-.1h.1c.5.2.9.7 1 1.2.1.6-.1 1.2-.6 1.7-.1.1-.2.1-.3.1zm0-.6c.3-.3.4-.7.3-1-.1-.3-.2-.5-.5-.7l-.7 1 .9.7z"/></g></svg>