<svg xmlns="http://www.w3.org/2000/svg" viewBox="0 0 24 24"><path d="M12 22.1c-1.4 0-2.7-.3-3.9-.8l-.1-.1c-.3-.1-.7-.3-1-.5-.2-.1-.3-.1-.3-.2-.4-.2-.7-.5-1-.8-.1 0-.2-.2-.2-.2-.5-.2-.8-.5-1-.8l-.2-.2c-.3-.3-.5-.7-.8-1l-.1-.1-.1-.2c-.1-.2-.3-.5-.4-.7 0 0-.1-.3-.2-.4-.2-.3-.3-.7-.4-1.1 0-.1-.1-.3-.1-.3-.1-.3-.1-.6-.2-.9 0-.1 0-.3-.1-.4 0-.3-.1-.6-.1-.9V12c0-.3 0-.7.1-1v-.1c0-.3.1-.6.1-.8v-.2c.1-.3.1-.5.2-.8.2-.7.5-1.3.8-1.8l.1-.1c.1-.3.3-.5.4-.7l.2-.4c.2-.1.3-.2.4-.4l.1-.2c.4-.5.8-.9 1.3-1.3l.1-.1c.3-.1.5-.3.7-.4l.2-.1c.2-.1.4-.3.7-.4l.1-.1c.5-.3 1.1-.5 1.6-.7H9c.3-.1.6-.2.9-.2h.1c.3-.2.6-.2.9-.2h.1c.3 0 .7-.1 1-.1.3 0 .7 0 1 .1h.1c.3 0 .5.1.8.1h.2c.3.1.5.1.8.2l.3.1h.1c.4.2.8.3 1.1.5 0 0 .2.1.3.2.4.2.7.4 1.1.7.1.1.2.1.2.2.4.3.6.5.9.7l.2.2c.3.3.6.6.8.9l.1.1c.1.1.2.2.2.3v.2l.1-.1c.4.6.7 1.1 1 1.7l.1.2c.1.2.2.5.3.8v.1c.2.6.3 1.2.4 1.9v1.1c0 .4 0 .8-.1 1.1 0 .1 0 .3-.1.4-.1.3-.1.6-.2.9v.1c0 .1 0 .2-.1.3-.1.4-.2.7-.4 1.1 0 .1-.1.3-.1.3-.1.3-.3.5-.4.8-.1.1-.1.1-.1.2 0 0 0 .1-.1.1-.3.4-.5.7-.7 1l-.1.2c-.2.3-.5.6-.8.9l-.3.3c-.3.3-.7.6-1 .8l-.1.1c-.4.2-.7.4-1 .6-.1.1-.2.1-.2.1l-.2.1c-.1.1-.3.1-.4.2-.2.1-.4.2-.6.2-.1 0-.2.1-.4.1l-.2-.1v.1c-.2 0-.3.1-.5.1-.1 0-.2 0-.3.1h-.2c-.2 0-.3.1-.5.1h-.6c-.1-.2-.2-.2-.4-.2zm-4.5-4.4l.5 1.7.3 1.3c1.1.5 2.4.7 3.7.7 1.4 0 2.8-.3 4.1-.9l.1-.9.4-1.8-2.7-2.8h-3.7l-2.7 2.7zm9.6-.4l1.7-.3 1.2-.1c.8-1.4 1.3-3.1 1.3-4.9v-.5l-.8-.4-1.5-.9-3.5 1-.5 1.7-.6 1.7 2.7 2.7zm-13.2-6l-1.3 1c.1 1.6.6 3.3 1.5 4.7h1.2l1.9.2 2.6-2.7-.6-1.6-.5-1.8-3.3-.9-1.5 1.1zm10-7.4L12.4 5v3.5l1.5 1 1.5 1.1 3.3-1 .3-1.7.4-1.7c-1.1-1.4-2.7-2.5-4.4-3l-1.1.7zm-4.8-.8c-1.9.6-3.6 1.8-4.7 3.5l.5 1.3.6 1.8 3.4.9 1.4-1.1 1.5-1V5l-1.5-1-1.2-.9z"/></svg>