<svg xmlns="http://www.w3.org/2000/svg" viewBox="0 0 24 24"><g fill="#231F20"><path d="M12 15.7c-3.8 0-6.9-3.1-6.9-6.9S8.2 2 12 2s6.9 3.1 6.9 6.9-3.1 6.8-6.9 6.8zm0-13.2c-3.5 0-6.3 2.8-6.3 6.3s2.8 6.3 6.3 6.3 6.3-2.8 6.3-6.3-2.8-6.3-6.3-6.3z"/><path d="M12 15.7c-3.8 0-6.9-3.1-6.9-6.9S8.2 2 12 2s6.9 3.1 6.9 6.9-3.1 6.8-6.9 6.8zm0-13.2c-3.5 0-6.3 2.8-6.3 6.3s2.8 6.3 6.3 6.3 6.3-2.8 6.3-6.3-2.8-6.3-6.3-6.3z"/><path d="M11.7 22c-.3 0-.6-.3-.6-.6v-.1c0-1-.1-3.2-1.6-3.6-.8-.2-1.5-.3-1.5-.8v-.4c0-.4.4-.8.8-.8.2.1 1.7.5 3.1.5 1.5 0 3.1-.5 3.1-.5.5 0 .9.4.9.8v.4c0 .2-.1.6-1.4.8-1.4.3-1.7 2.4-1.8 3.7 0 .3-.3.6-.6.6h-.4zm-3.2-5.1s.1.1 1 .3c1.9.4 2 3 2.1 4.1v.1s0 .1.1.1h.6s.1 0 .1-.1c.1-2.4.9-3.9 2.2-4.2.8-.2.9-.3.9-.3v-.4c0-.1-.1-.3-.3-.3-.1 0-1.7.5-3.2.5-1.5 0-2.9-.4-3.2-.5-.1 0-.2.1-.2.3l-.1.4z"/><path d="M11.7 22c-.3 0-.6-.3-.6-.6v-.1c0-1-.1-3.2-1.6-3.6-.8-.2-1.5-.3-1.5-.8v-.4c0-.4.4-.8.8-.8.2.1 1.7.5 3.1.5 1.5 0 3.1-.5 3.1-.5.5 0 .9.4.9.8v.4c0 .2-.1.6-1.4.8-1.4.3-1.7 2.4-1.8 3.7 0 .3-.3.6-.6.6h-.4zm-3.2-5.1s.1.1 1 .3c1.9.4 2 3 2.1 4.1v.1s0 .1.1.1h.6s.1 0 .1-.1c.1-2.4.9-3.9 2.2-4.2.8-.2.9-.3.9-.3v-.4c0-.1-.1-.3-.3-.3-.1 0-1.7.5-3.2.5-1.5 0-2.9-.4-3.2-.5-.1 0-.2.1-.2.3l-.1.4zm4.6-10.7l-.1-.1s-.1-.1-.1-.2-.1-.1-.1-.2v-.3c0-.1 0-.2.1-.3 0-.1.1-.2.1-.3.1-.1.1-.2.2-.2l.1-.1.1-.1c.1-.1.2-.1.3-.1.1 0 .2-.1.3-.1h.2c.1 0 .2 0 .2.1.1 0 .1.1.2.1l.1.1.2.3-.4-.2h-.4c-.1 0-.1.1-.2.1s-.1.1-.2.1V5h-.2l.1.1-.2.2c0 .1-.1.1-.1.2s-.1.1-.1.2 0 .1-.1.2v.2l.1.3-.1-.2z"/><path d="M13.1 6.2l-.1-.1s-.1-.1-.1-.2-.1-.1-.1-.2v-.3c0-.1 0-.2.1-.3 0-.1.1-.2.1-.3.1-.1.1-.2.2-.2l.1-.1.1-.1c.1-.1.2-.1.3-.1.1 0 .2-.1.3-.1h.2c.1 0 .2 0 .2.1.1 0 .1.1.2.1l.1.1.2.3-.4-.2h-.4c-.1 0-.1.1-.2.1s-.1.1-.2.1V5h-.2l.1.1-.2.2c0 .1-.1.1-.1.2s-.1.1-.1.2 0 .1-.1.2v.2l.1.3-.1-.2zm.3 3.3l-.1-.1s-.1-.1-.1-.2-.1-.1-.1-.2v-.3c0-.1 0-.2.1-.3 0-.1.1-.2.1-.3.1-.1.1-.2.2-.2h.2l-.1-.1.1-.1h.3c.1 0 .2-.1.3-.1h.2c.1 0 .2 0 .2.1.1 0 .1.1.2.1l.1.1.2.3-.4-.2-.1-.1V8h-.3c-.1 0-.1.1-.2.1s-.1.1-.2.1h-.2l.2.1h-.2l.1.1s-.1.1-.1.2-.1.1-.1.2-.1.1-.1.2 0 .1-.1.2v.2l.1.3-.2-.2z"/><path d="M13.4 9.5l-.1-.1s-.1-.1-.1-.2-.1-.1-.1-.2v-.3c0-.1 0-.2.1-.3 0-.1.1-.2.1-.3.1-.1.1-.2.2-.2h.2l-.1-.1.1-.1h.3c.1 0 .2-.1.3-.1h.2c.1 0 .2 0 .2.1.1 0 .1.1.2.1l.1.1.2.3-.4-.2-.1-.1V8h-.3c-.1 0-.1.1-.2.1s-.1.1-.2.1h-.2l.2.1h-.2l.1.1s-.1.1-.1.2-.1.1-.1.2-.1.1-.1.2 0 .1-.1.2v.2l.1.3-.2-.2zm.6 4.1l-.1-.1s-.1-.1-.1-.2-.1-.1-.1-.2v-.3c0-.1 0-.2.1-.3 0-.1.1-.2.1-.3.1-.1.1-.2.2-.2l.1-.1.1-.1c.1 0 .2-.1.3-.1.1 0 .2-.1.3-.1h.2c.1 0 .2 0 .2.1.1 0 .1.1.2.1l.1.1.2.3-.3-.2h-.4c-.1 0-.1.1-.2.1s-.1.1-.2.1h-.1l.1.1h-.2l.1.1s-.1.1-.1.2-.1.1-.1.2-.1.1-.1.2 0 .1-.1.2v.2l.1.3-.3-.1z"/><path d="M14 13.6l-.1-.1s-.1-.1-.1-.2-.1-.1-.1-.2v-.3c0-.1 0-.2.1-.3 0-.1.1-.2.1-.3.1-.1.1-.2.2-.2l.1-.1.1-.1c.1 0 .2-.1.3-.1.1 0 .2-.1.3-.1h.2c.1 0 .2 0 .2.1.1 0 .1.1.2.1l.1.1.2.3-.3-.2h-.4c-.1 0-.1.1-.2.1s-.1.1-.2.1h-.1l.1.1h-.2l.1.1s-.1.1-.1.2-.1.1-.1.2-.1.1-.1.2 0 .1-.1.2v.2l.1.3-.3-.1zm2.1-3.6l-.1-.1s-.1-.1-.1-.2-.1-.1-.1-.2v-.3c0-.1 0-.2.1-.3 0-.1.1-.2.1-.3.1-.1.1-.2.2-.2l.1-.1.1-.1c.1-.1.2-.1.3-.1.2-.1.2-.1.3-.1h.2c.1 0 .2 0 .2.1.1 0 .1.1.2.1l.1.1.2.3-.4-.2h-.4c-.1 0-.1.1-.2.1s-.1.1-.2.1l-.1.1h-.2l.1.1s-.1.1-.1.2-.1.1-.1.2-.1.1-.1.2 0 .1-.1.2v.2l.1.3-.1-.1z"/><path d="M16.1 10l-.1-.1s-.1-.1-.1-.2-.1-.1-.1-.2v-.3c0-.1 0-.2.1-.3 0-.1.1-.2.1-.3.1-.1.1-.2.2-.2l.1-.1.1-.1c.1-.1.2-.1.3-.1.2-.1.2-.1.3-.1h.2c.1 0 .2 0 .2.1.1 0 .1.1.2.1l.1.1.2.3-.4-.2h-.4c-.1 0-.1.1-.2.1s-.1.1-.2.1l-.1.1h-.2l.1.1s-.1.1-.1.2-.1.1-.1.2-.1.1-.1.2 0 .1-.1.2v.2l.1.3-.1-.1zm-5.7-.6l-.1-.1s-.1-.1-.1-.2-.1-.1-.1-.2v-.3c0-.1 0-.2.1-.3 0-.1.1-.2.1-.3.1-.1.1-.2.2-.2h.2l-.1-.1.1-.1c.1-.1.2-.1.3-.1.1 0 .2-.1.3-.1h.2c.1 0 .2 0 .2.1.1 0 .1.1.2.1l.1.1.2.3-.3-.1-.1-.1v.1h-.4c-.1 0-.1.1-.2.1s-.1.1-.2.1h-.2.2-.2l.1.1s-.1.1-.1.2-.1.1-.1.2-.1.1-.1.2 0 .1-.1.2v.2l.1.3-.2-.1z"/><path d="M10.4 9.4l-.1-.1s-.1-.1-.1-.2-.1-.1-.1-.2v-.3c0-.1 0-.2.1-.3 0-.1.1-.2.1-.3.1-.1.1-.2.2-.2h.2l-.1-.1.1-.1c.1-.1.2-.1.3-.1.1 0 .2-.1.3-.1h.2c.1 0 .2 0 .2.1.1 0 .1.1.2.1l.1.1.2.3-.3-.1-.1-.1v.1h-.4c-.1 0-.1.1-.2.1s-.1.1-.2.1h-.2.2-.2l.1.1s-.1.1-.1.2-.1.1-.1.2-.1.1-.1.2 0 .1-.1.2v.2l.1.3-.2-.1zm-.8-3.5l-.1-.1s-.1-.1-.1-.2-.1-.1-.1-.2v-.3c0-.1 0-.2.1-.3 0-.1.1-.2.1-.3.1-.1.1-.2.2-.2l.1-.1.1-.1c.2 0 .3-.1.4-.1.1 0 .2-.1.3-.1h.2c.1 0 .2 0 .2.1.1 0 .1.1.2.1l.1.1.1.2-.2-.1h-.5c-.1 0-.1.1-.2.1s-.1.1-.2.1h-.2l.1.1H10l.1.1c0 .1-.1.1-.1.2-.1.1-.1.1-.1.2s-.1.1-.1.2 0 .1-.1.2v.2l.2.3-.3-.1z"/><path d="M9.6 5.9l-.1-.1s-.1-.1-.1-.2-.1-.1-.1-.2v-.3c0-.1 0-.2.1-.3 0-.1.1-.2.1-.3.1-.1.1-.2.2-.2l.1-.1.1-.1c.2 0 .3-.1.4-.1.1 0 .2-.1.3-.1h.2c.1 0 .2 0 .2.1.1 0 .1.1.2.1l.1.1.1.2-.2-.1h-.5c-.1 0-.1.1-.2.1s-.1.1-.2.1h-.2l.1.1H10l.1.1c0 .1-.1.1-.1.2-.1.1-.1.1-.1.2s-.1.1-.1.2 0 .1-.1.2v.2l.2.3-.3-.1zM6.8 9.6l-.1-.1s-.1-.1-.1-.2-.1-.1-.1-.2v-.3c0-.1 0-.2.1-.3 0-.1.1-.2.1-.3.1 0 .2 0 .3-.1l.1-.1.1-.1c.1-.1.2-.1.3-.1.1 0 .2-.1.3-.1H8c.1 0 .2 0 .2.1 0 0 .1.1.2.1l.1.1.2.3-.4-.2h-.1C8.1 8 8.1 8 8 8h-.2c-.1 0-.1.1-.2.1s-.1.1-.2.1h-.2l.1.1h-.2l.1.1s-.1.1-.1.2-.1.1-.1.2V9c0 .1 0 .1-.1.2v.2l.1.3-.2-.1z"/><path d="M6.8 9.6l-.1-.1s-.1-.1-.1-.2-.1-.1-.1-.2v-.3c0-.1 0-.2.1-.3 0-.1.1-.2.1-.3.1 0 .2 0 .3-.1l.1-.1.1-.1c.1-.1.2-.1.3-.1.1 0 .2-.1.3-.1H8c.1 0 .2 0 .2.1 0 0 .1.1.2.1l.1.1.2.3-.4-.2h-.1C8.1 8 8.1 8 8 8h-.2c-.1 0-.1.1-.2.1s-.1.1-.2.1h-.2l.1.1h-.2l.1.1s-.1.1-.1.2-.1.1-.1.2V9c0 .1 0 .1-.1.2v.2l.1.3-.2-.1zM8 12.9l-.1-.1s-.1-.1-.1-.2-.1-.1-.1-.2v-.3c0-.1 0-.2.1-.3 0-.1.1-.2.1-.3.1-.1.1-.2.2-.2l.1-.1.1-.1c.1-.1.2-.1.3-.1h.5c.1 0 .2 0 .2.1.1 0 .1.1.2.1l.1.1.2.3-.4-.2-.1-.1v.1H9c-.1 0-.1.1-.2.1s-.1.1-.2.1h-.1l.1.1h-.2l.1.1s-.1.1-.1.2-.1.1-.1.2-.1.1-.1.2 0 .1-.1.2v.2l.1.2-.2-.1z"/><path d="M8 12.9l-.1-.1s-.1-.1-.1-.2-.1-.1-.1-.2v-.3c0-.1 0-.2.1-.3 0-.1.1-.2.1-.3.1-.1.1-.2.2-.2l.1-.1.1-.1c.1-.1.2-.1.3-.1h.5c.1 0 .2 0 .2.1.1 0 .1.1.2.1l.1.1.2.3-.4-.2-.1-.1v.1H9c-.1 0-.1.1-.2.1s-.1.1-.2.1h-.1l.1.1h-.2l.1.1s-.1.1-.1.2-.1.1-.1.2-.1.1-.1.2 0 .1-.1.2v.2l.1.2-.2-.1zm3.2.3l-.1-.1s-.1-.1-.1-.2-.1-.1-.1-.2v-.3c0-.1 0-.2.1-.3 0-.1.1-.2.1-.3.1-.1.1-.2.2-.2l.1-.1.1-.1c.1-.1.2-.1.3-.1.1 0 .2-.1.3-.1h.2c.1 0 .2 0 .2.1.1 0 .1.1.2.1l.1.1.2.3-.3-.1-.1-.1v.1h-.4c-.1 0-.1.1-.2.1s-.1.1-.2.1h-.2l.1.1h-.2l.1.1s-.1.1-.1.2-.1.1-.1.2-.1.1-.1.2 0 .1-.1.2v.2l.1.3-.1-.2z"/><path d="M11.2 13.2l-.1-.1s-.1-.1-.1-.2-.1-.1-.1-.2v-.3c0-.1 0-.2.1-.3 0-.1.1-.2.1-.3.1-.1.1-.2.2-.2l.1-.1.1-.1c.1-.1.2-.1.3-.1.1 0 .2-.1.3-.1h.2c.1 0 .2 0 .2.1.1 0 .1.1.2.1l.1.1.2.3-.3-.1-.1-.1v.1h-.4c-.1 0-.1.1-.2.1s-.1.1-.2.1h-.2l.1.1h-.2l.1.1s-.1.1-.1.2-.1.1-.1.2-.1.1-.1.2 0 .1-.1.2v.2l.1.3-.1-.2z"/></g></svg>