<svg xmlns="http://www.w3.org/2000/svg" viewBox="0 0 24 24"><path d="M12.1 22.1h-.3c-.1 0-.3-.1-.4-.2-.1 0-.2-.1-.3-.1-.1 0-.2 0-.3-.1h-.4c-.5-.1-.6-.2-.7-.7v-.1c.1-.7-.1-1.4-.3-2-.2-.6-.3-1.2-.2-1.9v-.7l.1-.2h-.1v-.9c-.1-.5-.2-1-.2-1.5s-.1-.9-.2-1.4v-.1c0-.1-.1-.2-.1-.3l-.3-.1c-.1 0-.3-.1-.4-.2-.2-.1-.5-.2-.7-.3-.2-.1-.5-.2-.7-.3-.4 0-.6-.1-.9-.2-.2-.1-.4-.2-.6-.2-.1-.1-.3-.1-.4-.3-.2-.2-.4-.4-.5-.7V9l.3-.7c.2-.4.3-.8.5-1.1.2-.5.3-.9.3-1.4 0-.1-.1-.2-.2-.3-.4-.3-.6-.5-.5-.9v-.4c0-.2 0-.3-.1-.4-.1-.1-.2-.3-.3-.4l-.1-.2v-.4c0-.1.1-.2.2-.3l.1-.1c.1 0 .2-.1.3-.1h.2c.4 0 .7.3.9.6.1.4.2.6.4.8h.4l1.7.3c.4.1.9.2 1.3.4.4.3.7.5 1 .6.3.1.6.3 1 .3.2 0 .5.1.7.2-.1-.1-.1-.2-.1-.3 0 0 0-.1-.1-.1-.1-.2-.2-.3-.3-.4-.3-.1-.5-.3-.5-.5-.1-.3 0-.5.2-.8l.1-.2c.1-.1.2-.2.2-.3.1-.2.3-.3.5-.5.2-.1.3-.2.5-.2s.4.1.6.2c.3 0 .5.2.6.4h.1c.7 0 1.2.5 1.4.7.1.1.2.3.2.4 0 .2 0 .4.1.6 0 .1 0 .2.1.2.1.2.1.3.1.5.2-.3.5-.5.8-.7.4-.3.8-.5 1.2-.7h.1l-.1-.1c.1 0 .1-.1.1-.1.1-.3.3-.6.5-.9.1-.2.2-.4.4-.5l.1-.2c.1-.1.1-.1.2-.1h.2c.1 0 .2.1.3.2v.4s0 .1-.1.2c0 0 .1.1.1.2s.2.5-.4 1.3l-.4.4c-.2.1-.4.4-.6.6l-.3.3-.3.3c-.4.4-.8.8-1.1 1.2-.3.3-.6.6-.8.9-.1.2-.3.4-.4.5l-.1.1v.6c-.1.6-.3 1.3-.7 1.8-.2.3-.4.5-.6.6-.5.3-1.1.6-1.7.8-.2.1-.5.2-.7.2h-.2v.2c0 .7 0 1.3-.1 1.8-.1.4-.1.7-.1 1 0 .3 0 .5-.1.9v.1c0 .2-.1.4 0 .6v.9c0 .5.1 1 .1 1.6 0 .2.1.4.2.5.3.3.6.5 1 .7.4.1.5.4.5.5 0 .1 0 .3-.1.5-.4.2-.6.3-.8.3zM4.9 2.9c-.1.1-.2.1-.3.1l.1.1c.1.2.2.3.3.5.1.2.1.5.1.7v.4c0 .1 0 .2.2.3.2.2.4.4.4.7.1.6-.1 1.1-.3 1.7-.1.3-.3.7-.5 1l-.2.7v.3c0 .2.1.3.3.5.1 0 .2.1.3.1.2.1.4.1.6.2H6c.2.1.4.2.6.2.2.1.5.2.7.3.3.3.5.4.7.4.1 0 .2.1.4.1l.3.1c.1 0 .2.1.3.2.1.1.1.3.2.4v.1c.1.5.2 1 .2 1.5 0 .4.1.9.2 1.3v.1c0 .1 0 .3.1.4v.5c0 .2 0 .3.1.4v.5c0 .5 0 1.1.2 1.6.2.7.4 1.5.3 2.3v.2h.6c.1 0 .3 0 .4.1.1 0 .2.1.3.1.2.1.3.1.3.1h.4c0-.1 0-.1-.1-.1-.5-.2-.8-.5-1.1-.8-.3-.3-.3-.6-.4-.9 0-.5-.1-1-.1-1.4v-1.8l.1-.1h-.1c.1-.3.1-.5.1-.7 0-.4 0-.8.1-1.2.1-.4.2-.9.1-1.5v-.3c0-.2.1-.4.3-.5l.3-.1c.2-.1.4-.1.6-.2.6-.3 1.2-.6 1.7-.8.2-.1.3-.2.4-.4.3-.5.5-1.1.6-1.6v-.6c0-.2.1-.3.2-.4.2-.2.3-.4.5-.6.2-.3.5-.6.8-1L17.4 5l.3-.3c.1.3.2.2.3.1.2-.3.5-.6.8-.8l.3-.2c.3-.4.3-.6.3-.7-.1 0-.2-.1-.2-.3v.1c-.2.3-.3.7-.5 1l-.3.3-.1.1c-.4.2-.8.5-1.2.7-.3.2-.6.4-.7.7-.2.3-.4.6-.6.8-.2.3-.6.5-.9.6h-.1c-.1 0-.2 0-.3-.1 0-.1-.1-.1-.1-.3 0-.1 0-.2.1-.3.1-.2.3-.2.3-.2h.2c0-.2 0-.2.1-.2s.1-.1.1-.2c0-.3.1-.5.2-.7-.1-.2-.2-.4-.2-.6V4c0-.1 0-.1-.1-.1-.3-.4-.6-.5-1-.5l-.1-.1v.1c-.2 0-.4-.1-.4-.3l-.1-.1c-.2 0-.3 0-.4-.2-.1-.1-.1-.1-.2-.1s-.1 0-.2.1c-.2.1-.3.3-.4.5-.1.1-.1.2-.2.3l-.1.2c-.1.1-.1.2-.1.3 0 .1.1.2.2.2s.2.2.2.2c.1.1.2.3.3.5 0 .1.1.2.1.2 0 .1.1.2.2.3.1 0 .1.1.2.2s.1.2.1.2v.2c0 .1-.1.1-.2.1h-.2c-.1 0-.1 0-.2-.1-.1 0-.2-.1-.2-.1h-.2c-.2-.1-.4-.1-.6-.1-.4-.1-.8-.2-1.1-.4-.5-.1-.8-.3-1.1-.5-.3-.2-.7-.3-1.1-.4l-1.7-.3h-.3c-.2-.1-.3-.1-.4-.2-.3-.3-.5-.6-.6-.9 0-.2-.2-.3-.4-.3zM9 9.7c-.2 0-.4 0-.6-.1-.7-.1-1.3-.1-1.9-.2-.1 0-.3-.1-.4-.1-.1-.1-.2-.1-.3-.2-.1-.1 0-.3 0-.4l.2-.3c.1-.3.1-.5.1-.7 0 0-.1-1.8-.1-1.9 0-.1 0-.4.3-.6.1-.2.1-.2.2-.3 0-.2.2-.3.3-.3H7l.2.1c.1 0 .2.1.3.2.5.3 1.2.5 1.7.7.2 0 .3.1.5.2s1.2.7 1.4.8c.1.1.3.1.5.2.4.2.6.4.6.8v1c0 .3-.1.5-.2.6l-.1.1c0 .1-.1.3-.5.3h-1.1c-.3 0-.5 0-.8.1l-.2-.1v.1H9zm-2.6-.9h.2c.5.1 1.1.2 1.8.3.3 0 .4.1.6.1h.3c.3 0 .5-.1.9-.1h1.1c0-.1.1-.1.1-.2.1-.1.1-.1.1-.2V7.5c0-.1 0-.2-.2-.2-.3-.1-.4-.2-.6-.3-.2-.1-.5-.3-.7-.4 0 0-.5-.3-.7-.4 0 0-.2-.1-.3-.1-.5-.2-1.2-.4-1.8-.7-.1-.1-.2-.1-.3-.2-.1.2-.2.3-.3.4l-.1.1.1 1.9c0 .3 0 .7-.2 1v.2z"/></svg>