<svg xmlns="http://www.w3.org/2000/svg" viewBox="0 0 24 24"><g fill="#231F20"><path d="M9.8 20.6c-2.1 0-4.1-.8-5.6-2.4-.3-.3-.6-.7-.9-1-.3-.4-.5-.8-.7-1.2-.5-1.1-.8-2.3-.8-3.5v-.8c.2-.9.4-1.7.8-2.4.3-.8.8-1.5 1.4-2.1.1-.2.2-.3.3-.5.9-.9 2.1-1.6 3.3-1.9.5-.1.9-.2 1.4-.2h.1v.1c0 .1 0 .2.1.3l.1.1h-.1c-.4.1-.8.1-1.2.2l.2 1.5L10.4 8l1.9-1.1c.2 0 .3.1.4.1.2 0 .3-.1.5-.1l2.3 1.3.1-.2c-.1-.1-.2-.2-.3-.4l.1-.1c.6.5 1.4 1.4 1.4 1.5v.1c-.1.2-.1.5-.1.8-.1.4-.1.9-.3 1.1-.1.1-.2.2-.4.3-.1.1-.3.2-.4.3h-.1l-.3-.2-2.6 1v1.8l2.2.8 1.9-1.3v-1.3h.1c.2 0 .5-.1.6-.1l.1-.1.2-.2v.7c0 .5-.1 1.1-.2 1.6-.2 1-.6 2-1.2 2.9-1.4 2-3.8 3.4-6.5 3.4zm-.6-.7h.6c.9 0 1.9-.2 2.7-.5l-1.7-.5-1.6 1zM6.5 17v1.7l1.9 1 2.1-1.3-.4-2.6-1.6-.8-2 2zm6.8 2.1c.2-.1.5-.3.8-.5l.8-.9-.2-2.2-2.2-.8-1.9 1.1.4 2.6 2.3.7zm2.1-1.7c.2-.2.4-.5.5-.7.5-.7.8-1.5 1-2.4l-1.7 1.2.2 1.9zm-9.2-.8l2-2.1-.3-1.8-2.2-1.2-2.1 1.4.1 2.5 2.5 1.2zM4.3 7.7c-.9 1.1-1.5 2.5-1.7 4l.8.7 2-1.4V8.5l-1.1-.8zm6.4.8l.1 2.1v.4l1.8 1 2.6-1V8.5L13 7.3l-2.3 1.2zm1.6-3c-.2-.1-.5-.2-.8-.2v-.2h.2c.4 0 .7.1 1 .3l.3.1-.6.3-.1-.3z"/><path d="M21.5 13.7c-.2 0-.4-.1-1.1-.8-.6-.6-1.6-1.5-2.1-1.5-.1.6-.4 1-.7 1.2-.2.1-.4.1-.7.2-.2 0-.5.1-.7.2h-.6c-.2 0-.6-.1-.6-.6-.1-.8.6-1.3 1-1.5.1-.1.3-.2.3-.2.1-.1.2-.6.2-.9 0-.3.1-.5.1-.7-.1 0-1-1.1-1.6-1.5-.6-.5-1-.6-1.2-.6-.2 0-.2 0-.3.1-.2.1-.4.2-.7.2-.3 0-.6-.1-.9-.3-.2-.2-.3-.4-.3-.7 0-.2.1-.5.6-.7-.1 0-.2-.1-.4-.1s-.3 0-.5.1-.8.2-1.3.2c-.4 0-.6-.1-.9-.2-.3-.3-.5-.8-.3-1.2.1-.4.3-.5.7-.6.3 0 .7-.1 1-.2.4-.1.8-.2 1.1-.2h.3c.7.2 2.2.8 2.6 1.4.6.1 1.7.7 2.1 1.2.1.1.2.3.4.5.5.5 1.4 1.3 2 1.7.7.4 1.4.5 2 .6.2.2.4.2.6.2.8.2.6 1.6.4 3.1-.1.5-.1.9-.1 1.2-.1.3-.3.4-.4.4zm-3.3-2.9c.6 0 1.4.7 2.5 1.7.2.2.4.4.6.5 0-.3.1-.6.1-.9.3-2.2.2-2.5.1-2.6-.1 0-.3-.1-.5-.1-.7-.1-1.6-.2-2.3-.7-.6-.4-1.5-1.2-2.1-1.8-.2-.3-.3-.5-.4-.5-.3-.4-1.1-.8-1.6-1-.1 0-.2 0-.2-.1h-.1c-.4 0-.8.1-1 .3l-.8.4c-.2.1-.4.2-.4.4 0 .1 0 .1.1.2.2.1.3.2.5.2s.4-.1.5-.1c.1-.1.2-.1.4-.1h.2c.4 0 1 .2 1.6.7.6.4 1.4 1.4 1.7 1.6 0 0 .1 0 .1.1v.1c-.1.1-.2.5-.2.7-.1.4-.1.9-.3 1.1-.1.1-.3.3-.5.4-.4.3-.8.5-.7 1 0 .1 0 .1.1.1s.3-.1.5-.1c.2-.1.5-.1.8-.2.2 0 .5-.1.5-.1.1-.1.4-.4.4-1v-.1c.2-.1.3-.1.4-.1zm-6.4-5.9c.4 0 .7.1 1 .3.3-.1.6-.3.9-.3-.5-.4-1.4-.7-1.9-.9h-.2c-.2 0-.6.1-.9.2-.4.1-.8.2-1.1.2-.2 0-.2.1-.3.1 0 .2.1.4.2.6.1.1.3.1.5.1.5 0 1-.1 1.1-.2.3 0 .5-.1.7-.1z"/></g></svg>