<svg xmlns="http://www.w3.org/2000/svg" viewBox="0 0 24 24"><path d="M9.3 22.1c-4.1 0-7.4-3.3-7.4-7.4 0-4 3.1-7.2 7.1-7.4V3c0-.6.5-1.1 1.1-1.1H21c.6 0 1.1.5 1.1 1.1v16.5c0 .7-.5 1.2-1.1 1.2h-7.4c-1.2.9-2.7 1.4-4.3 1.4zm-3.2-3.3l.4 1.2.3 1.1c.8.3 1.6.4 2.6.4s2-.2 2.9-.6v-.3l.1-.5.3-1.3-1.9-1.9H8.1l-2 1.9zM21 20.1c.3 0 .6-.3.6-.6v-8h-3c-.1 1.1-.8 2-1.8 2.3v.8c0 1.4-.4 2.8-1.2 4h2.6c.5 0 .9.4.9.9v.6H21zm-2.5 0v-.6c0-.2-.1-.4-.3-.4h-3c-.2.4-.5.7-.8.9h4.1zm-5.6-1.6l1.2-.2h.1l1-.1c.5-1 .9-2.2.9-3.4v-.2l-.7-.4-.3-.2c-.4-.1-.7-.2-1-.5l-2.3.7-.3 1.2-.4 1.2 1.8 1.9zm-9.3-4.3l-1.1.9c.1 1.1.4 2.2 1 3.2h1l1.4.1 1.8-1.9-.4-1.1-.5-1.4-2.3-.6-.9.8zM10.7 9l-1.1.7v2.5l1.1.7 1.1.8 2.1-.6.2-.1.2-1.2v-.1l.2-.7.1-.7c-.1-.2-.3-.4-.5-.6-.1-.1-.2-.2-.3-.2-.6-.5-1.4-1-2.2-1.2l-.9.7zm-3.6-.8c-1.3.5-2.4 1.3-3.3 2.4l.5 1.1.4 1.3 2.4.7.9-.8 1-.7V9.6L8.1 9l-1-.8zm8.9 3.3c.2.5.5 1.1.6 1.8.8-.3 1.3-.9 1.4-1.8h-2zm-1.5-2.1c.4.4.9 1 1.2 1.6h2.2c-.1-1.1-1.1-2-2.2-2-.4 0-.8.2-1.2.4zm7 1.6V3c0-.3-.2-.6-.6-.6H19v.5c0 .5-.4.9-1 .9h-4.8c-.5 0-1-.4-1-.9v-.5H10c-.2 0-.4.3-.4.6v4.3c1.6.1 3.2.7 4.5 1.7.5-.4 1.1-.6 1.6-.6 1.4 0 2.6 1.1 2.8 2.5h3zm-8.6-8.1c0 .2.2.4.4.4h4.8c.2 0 .3-.1.3-.4v-.5h-5.5v.5z"/></svg>