<svg xmlns="http://www.w3.org/2000/svg" viewBox="0 0 24 24"><path fill-opacity=".26" d="M17.7 21.9c-.7 0-1.4-.1-2.1-.3-1-.7-1.7-1.8-1.7-2.9 0-.7.2-1.5.7-2 .8.8 1.9 1.2 3.1 1.2 1.2 0 2.3-.5 3.1-1.2.5.6.7 1.3.7 2 0 1.2-.6 2.3-1.7 2.9-.7.3-1.5.3-2.1.3zM10.3 6.2c-1.2 0-2.1-.9-2.1-2.1 0-.6.2-1.1.6-1.5.4-.4 1-.6 1.5-.6h1.9c1.2 0 2.1.9 2.1 2.1s-.9 2.1-2.1 2.1h-1.9zm-5.7 8.7c-1.2 0-2.1-.9-2.1-2.1 0-.6.2-1.1.6-1.5.4-.4.9-.6 1.5-.6h1.9c1.2 0 2.1.9 2.1 2.1s-.9 2.1-2.1 2.1H4.6z"/><path fill="#231F20" d="M17.7 10.7c-1.8 0-3.2 1.4-3.2 3 0 1.7 1.4 3 3.2 3 1.8 0 3.2-1.4 3.2-3-.1-1.6-1.5-3-3.2-3zm0 4.9c-1.1 0-2-.8-2-1.9 0-1 .9-1.9 2-1.9s2.1.8 2.1 1.9c-.1 1.1-1 1.9-2.1 1.9z"/><path fill="#231F20" d="M20.7 15.9c-.7.9-1.8 1.5-3.1 1.5s-2.4-.6-3.1-1.5c-.8.7-1.3 1.8-1.3 2.9 0 1.5.8 2.7 2 3.5.7.2 1.5.3 2.3.3.8 0 1.6-.1 2.3-.3 1.2-.7 2-2 2-3.5.2-1.2-.3-2.2-1.1-2.9zm-4.9 5.3c-.8-.6-1.3-1.4-1.3-2.4 0-.4.1-.8.3-1.2.8.6 1.9 1 2.9 1 1.1 0 2.1-.3 2.9-1 .2.4.3.8.3 1.2 0 1-.5 1.8-1.3 2.4-.6.1-1.3.2-1.9.2-.7 0-1.3-.1-1.9-.2zM12.2 1.5h-1.9c-.7 0-1.4.3-1.9.8s-.7 1.1-.7 1.8c0 1.5 1.2 2.6 2.6 2.6h1.9c1.5 0 2.6-1.2 2.6-2.6s-1.1-2.6-2.6-2.6zm0 4.2h-1.9c-.9 0-1.6-.7-1.6-1.6 0-.4.2-.8.5-1.1.3-.3.7-.5 1.1-.5h1.9c.9 0 1.6.7 1.6 1.6 0 .9-.7 1.6-1.6 1.6zm-5.7 4.5H4.6c-.7 0-1.4.3-1.9.8-.4.4-.7 1.1-.7 1.8 0 1.5 1.2 2.6 2.6 2.6h1.9c1.5 0 2.6-1.2 2.6-2.6 0-1.5-1.1-2.6-2.6-2.6zm0 4.2H4.6c-.9 0-1.6-.7-1.6-1.6 0-.4.2-.8.5-1.1.3-.3.7-.5 1.1-.5h1.9c.9 0 1.6.7 1.6 1.6 0 .9-.7 1.6-1.6 1.6zM21.6 3.7L17.3 8l-.5.5L4.2 21.1c-.1.1-.2.2-.4.2s-.3-.1-.4-.2c-.2-.2-.2-.5 0-.7L20.8 3c.2-.2.5-.2.7 0 .3.2.3.5.1.7z"/><path fill="#231F20" d="M6.1 9.2c0-.3.2-.5.5-.5h7.7l1.1-1.1h-3.1c-.3 0-.5-.2-.5-.5v-.4h-1.1V7c0 .3-.2.5-.5.5H6.1c-.6 0-1 .5-1 1.1v1.5h1.1v-.9z"/></svg>