<svg xmlns="http://www.w3.org/2000/svg" width="24" height="24"><path d="M14.7 19.8H9.4v-.5c0-.1 0-.1.1-.1h5.1c.2 0 .2 0 .2.2-.1.1-.1.3-.1.4z"/><path d="M2 11.9v-.1c0-.2.1-.3.3-.4C5.4 9.2 8.5 7 11.7 4.7c.1 0 .1-.1.1-.2V2.1c0-.1 0-.1.1-.1h.4l.1.1c.1 0 .3-.1.4-.1h.3c.2.1.5.1.7.2.3.1.7.1 1-.1v1.6s0 .1-.1.1c-.3.2-.6.2-.8.2-.3-.1-.5-.1-.8-.2-.3-.1-.5-.1-.8 0-.1 0-.1.1-.1.1v.7c0 .1 0 .1.1.2l9.3 6.6c.2.1.3.2.4.5v.1c-.1.3-.2.4-.5.4h-.9v8c0 .1 0 .1.1.1.2 0 .4.2.4.4v.5c0 .3-.2.5-.4.4h-4.2v-.5c0-.2-.2-.4-.4-.5h-.2v-.5c0-.3-.2-.5-.5-.5h-.2v-.5c0-.1 0-.2-.1-.2-.1-.1-.2-.2-.4-.2h-.4v-4.3c0-.3-.2-.5-.5-.5h-3.4c-.3 0-.5.2-.5.5v4.3h-.4c-.3 0-.5.2-.5.5v.4h-.3c-.2 0-.4.2-.4.4v.6h-.1c-.1 0-.2 0-.2.1-.2.1-.3.2-.3.4v.5H3.4c-.2 0-.4-.2-.4-.4v-.5c0-.2.2-.4.4-.4.1 0 .1 0 .1-.1v-8h-1c-.2-.1-.4-.2-.5-.5 0 .1 0 0 0 0zM14.3 10c0-1.3-1-2.3-2.3-2.3-1.3 0-2.3 1-2.3 2.3 0 1.3 1 2.3 2.3 2.3 1.3 0 2.3-1 2.3-2.3zm4 4.3h-.4c-.2 0-.3.1-.3.3v.9c0 .2.1.3.3.3h.9c.2 0 .3-.1.3-.3v-.9c0-.2-.1-.3-.3-.3h-.5zm0 3.8h.4c.2 0 .3-.1.3-.3V17c0-.2-.1-.3-.3-.3h-.9c-.2 0-.3.1-.3.3v.9c0 .2.1.3.3.3.2-.1.4-.1.5-.1zM5.7 14.3h-.4c-.2 0-.3.1-.3.3v.8c0 .2.1.3.3.3h.8c.2 0 .3-.1.3-.3v-.9c0-.1-.1-.2-.3-.2h-.4zm0 3.8h.4c.2 0 .3-.1.3-.3v-.9c0-.2-.1-.3-.3-.3h-.9c-.2 0-.3.1-.3.3v.9c0 .2.1.3.3.3h.5zm2.4 0h.4c.2 0 .3-.1.3-.3v-.9c0-.2-.1-.3-.3-.3h-.9c-.2 0-.3.1-.3.3v.9c0 .2.1.3.3.3h.5zm0-3.8h-.4c-.2 0-.3.1-.3.3v.8c0 .2.1.3.3.3h.9c.2 0 .3-.1.3-.3v-.9c0-.2-.1-.3-.3-.3-.2.1-.3.1-.5.1zm7.8 0h-.4c-.2 0-.3.1-.3.3v.8c0 .2.1.3.3.3h.9c.2 0 .3-.1.3-.3v-.9c0-.2-.1-.3-.3-.3-.2.1-.4.1-.5.1zm0 3.8h.4c.2 0 .3-.1.3-.3V17c0-.2-.1-.3-.3-.3h-.9c-.2 0-.3.1-.3.3v.9c0 .2.1.3.3.3.2-.1.3-.1.5-.1z"/><path d="M8.1 22c-.1 0-.1-.1-.1-.2v-.5c0-.1 0-.2.2-.2h7.7c.2 0 .2 0 .2.2v.4c0 .1 0 .2-.1.2-2.7.1-5.3.1-7.9.1zm.5-1.2v-.5c0-.1.1-.1.2-.1h6.5c.1 0 .2 0 .2.2v.4c0 .1 0 .1-.1.1H8.8c-.1-.1-.2-.1-.2-.1zm4-3.6c-.2 0-.3-.2-.3-.3 0-.2.2-.3.3-.3.2 0 .3.2.3.3.1.2-.1.3-.3.3zm-1.2 0c-.2 0-.3-.1-.3-.3 0-.2.2-.3.3-.3.2 0 .3.2.3.3 0 .2-.2.3-.3.3zm.8-7.4h1.2c.2 0 .3.1.3.3 0 .1-.1.3-.3.3h-1.5c-.2 0-.3-.1-.3-.3V8.7c0-.2.1-.3.3-.3.2 0 .3.1.3.3v1.1c0-.1 0 0 0 0z"/></svg>