<?xml version="1.0" encoding="utf-8"?>
<!-- Generator: Adobe Illustrator 17.1.0, SVG Export Plug-In . SVG Version: 6.00 Build 0)  -->
<!DOCTYPE svg PUBLIC "-//W3C//DTD SVG 1.1//EN" "http://www.w3.org/Graphics/SVG/1.1/DTD/svg11.dtd">
<svg version="1.1" id="Layer_30" xmlns="http://www.w3.org/2000/svg" xmlns:xlink="http://www.w3.org/1999/xlink" x="0px" y="0px"
	 width="24px" height="24px" viewBox="0 0 24 24" enable-background="new 0 0 24 24" xml:space="preserve">
<path d="M14.7,19.8c-1.8,0-3.5,0-5.3,0c0-0.2,0-0.3,0-0.5c0-0.1,0-0.1,0.1-0.1c0,0,0,0,0.1,0c1.7,0,3.3,0,5,0c0.2,0,0.2,0,0.2,0.2
	C14.7,19.5,14.7,19.7,14.7,19.8z"/>
<g>
	<path d="M2,11.9c0,0,0-0.1,0-0.1c0-0.2,0.1-0.3,0.3-0.4C5.4,9.2,8.5,7,11.7,4.7c0.1,0,0.1-0.1,0.1-0.2c0-0.8,0-1.6,0-2.4
		c0-0.1,0-0.1,0.1-0.1c0.1,0,0.2,0,0.4,0c0,0,0.1,0.1,0.1,0.1c0.1,0,0.3-0.1,0.4-0.1c0,0,0.1,0,0.1,0c0.1,0,0.1,0,0.2,0
		c0.2,0.1,0.5,0.1,0.7,0.2c0.3,0.1,0.7,0.1,1-0.1c0,0,0,0,0,0c0,0.5,0,1.1,0,1.6c0,0,0,0.1-0.1,0.1C14.4,4,14.1,4,13.9,4
		c-0.3-0.1-0.5-0.1-0.8-0.2c-0.3-0.1-0.5-0.1-0.8,0c-0.1,0-0.1,0.1-0.1,0.1c0,0.2,0,0.4,0,0.7c0,0.1,0,0.1,0.1,0.2
		c3.1,2.2,6.2,4.4,9.3,6.6c0.2,0.1,0.3,0.2,0.4,0.5c0,0,0,0.1,0,0.1c0,0,0,0,0,0c-0.1,0.3-0.2,0.4-0.5,0.4c-0.3,0-0.5,0-0.8,0
		c0,0-0.1,0-0.1,0c0,0,0,0.1,0,0.1c0,2.6,0,5.2,0,7.9c0,0,0,0,0,0c0,0.1,0,0.1,0.1,0.1c0.2,0,0.4,0.2,0.4,0.4c0,0.2,0,0.3,0,0.5
		c0,0.3-0.2,0.5-0.4,0.4c-1.4,0-2.7,0-4.1,0c0,0-0.1,0-0.1,0c0,0,0-0.1,0-0.1c0-0.1,0-0.3,0-0.4c0-0.2-0.2-0.4-0.4-0.5
		c-0.1,0-0.1,0-0.2,0c0-0.2,0-0.3,0-0.5c0-0.3-0.2-0.5-0.5-0.5c-0.1,0-0.1,0-0.2,0c0-0.2,0-0.3,0-0.5c0-0.1,0-0.2-0.1-0.2
		c-0.1-0.1-0.2-0.2-0.4-0.2c-0.1,0-0.3,0-0.4,0c0,0,0-0.1,0-0.1c0-1.4,0-2.8,0-4.2c0-0.3-0.2-0.5-0.5-0.5c-1.1,0-2.3,0-3.4,0
		c-0.3,0-0.5,0.2-0.5,0.5c0,1.4,0,2.8,0,4.2c0,0,0,0.1,0,0.1c-0.1,0-0.2,0-0.4,0c-0.3,0-0.5,0.2-0.5,0.5c0,0.1,0,0.3,0,0.4
		c-0.1,0-0.2,0-0.3,0c-0.2,0-0.4,0.2-0.4,0.4c0,0.2,0,0.3,0,0.5c0,0,0,0.1,0,0.1c0,0-0.1,0-0.1,0c-0.1,0-0.2,0-0.2,0.1
		c-0.2,0.1-0.3,0.2-0.3,0.4c0,0.2,0,0.3,0,0.5c0,0-0.1,0-0.1,0c-1.4,0-2.8,0-4.2,0c-0.2,0-0.4-0.2-0.4-0.4c0-0.2,0-0.4,0-0.5
		c0-0.2,0.2-0.4,0.4-0.4c0.1,0,0.1,0,0.1-0.1c0-2.6,0-5.3,0-7.9c0,0,0-0.1,0-0.1c0,0-0.1,0-0.1,0c-0.3,0-0.6,0-0.9,0
		C2.3,12.3,2.1,12.2,2,11.9C2,12,2,11.9,2,11.9z M14.3,10c0-1.3-1-2.3-2.3-2.3c-1.3,0-2.3,1-2.3,2.3c0,1.3,1,2.3,2.3,2.3
		C13.3,12.3,14.3,11.3,14.3,10z M18.3,14.3c-0.1,0-0.3,0-0.4,0c-0.2,0-0.3,0.1-0.3,0.3c0,0.3,0,0.6,0,0.9c0,0.2,0.1,0.3,0.3,0.3
		c0.3,0,0.6,0,0.9,0c0.2,0,0.3-0.1,0.3-0.3c0-0.3,0-0.6,0-0.9c0-0.2-0.1-0.3-0.3-0.3C18.6,14.3,18.5,14.3,18.3,14.3z M18.3,18.1
		c0.1,0,0.3,0,0.4,0c0.2,0,0.3-0.1,0.3-0.3c0-0.3,0-0.6,0-0.8c0-0.2-0.1-0.3-0.3-0.3c-0.3,0-0.6,0-0.9,0c-0.2,0-0.3,0.1-0.3,0.3
		c0,0.3,0,0.6,0,0.9c0,0.2,0.1,0.3,0.3,0.3C18,18.1,18.2,18.1,18.3,18.1z M5.7,14.3c-0.1,0-0.3,0-0.4,0c-0.2,0-0.3,0.1-0.3,0.3
		c0,0.3,0,0.5,0,0.8c0,0.2,0.1,0.3,0.3,0.3c0.3,0,0.6,0,0.8,0c0.2,0,0.3-0.1,0.3-0.3c0-0.3,0-0.5,0-0.8c0,0,0,0,0-0.1
		c0-0.1-0.1-0.2-0.3-0.2C6,14.3,5.8,14.3,5.7,14.3z M5.7,18.1c0.1,0,0.3,0,0.4,0c0.2,0,0.3-0.1,0.3-0.3c0-0.3,0-0.6,0-0.9
		c0-0.2-0.1-0.3-0.3-0.3c-0.3,0-0.6,0-0.9,0c-0.2,0-0.3,0.1-0.3,0.3c0,0.3,0,0.6,0,0.9c0,0.2,0.1,0.3,0.3,0.3
		C5.4,18.1,5.5,18.1,5.7,18.1z M8.1,18.1c0.1,0,0.3,0,0.4,0c0.2,0,0.3-0.1,0.3-0.3c0-0.3,0-0.6,0-0.9c0-0.2-0.1-0.3-0.3-0.3
		c-0.3,0-0.6,0-0.9,0c-0.2,0-0.3,0.1-0.3,0.3c0,0.3,0,0.6,0,0.9c0,0.2,0.1,0.3,0.3,0.3C7.8,18.1,8,18.1,8.1,18.1z M8.1,14.3
		c-0.1,0-0.3,0-0.4,0c-0.2,0-0.3,0.1-0.3,0.3c0,0.3,0,0.5,0,0.8c0,0.2,0.1,0.3,0.3,0.3c0.3,0,0.6,0,0.9,0c0.2,0,0.3-0.1,0.3-0.3
		c0-0.3,0-0.6,0-0.9c0-0.2-0.1-0.3-0.3-0.3C8.4,14.3,8.3,14.3,8.1,14.3z M15.9,14.3c-0.1,0-0.3,0-0.4,0c-0.2,0-0.3,0.1-0.3,0.3
		c0,0.3,0,0.6,0,0.8c0,0.2,0.1,0.3,0.3,0.3c0.3,0,0.6,0,0.9,0c0.2,0,0.3-0.1,0.3-0.3c0-0.3,0-0.6,0-0.9c0-0.2-0.1-0.3-0.3-0.3
		C16.2,14.3,16,14.3,15.9,14.3z M15.9,18.1c0.1,0,0.3,0,0.4,0c0.2,0,0.3-0.1,0.3-0.3c0-0.3,0-0.6,0-0.8c0-0.2-0.1-0.3-0.3-0.3
		c-0.3,0-0.6,0-0.9,0c-0.2,0-0.3,0.1-0.3,0.3c0,0.3,0,0.6,0,0.9c0,0.2,0.1,0.3,0.3,0.3C15.6,18.1,15.7,18.1,15.9,18.1z"/>
	<path d="M8.1,22C8,22,8,21.9,8,21.8c0-0.2,0-0.3,0-0.5c0-0.1,0-0.2,0.2-0.2c0.6,0,1.2,0,1.8,0c2,0,4,0,5.9,0c0.2,0,0.2,0,0.2,0.2
		c0,0.1,0,0.3,0,0.4c0,0.1,0,0.2-0.1,0.2C13.3,22,10.7,22,8.1,22z"/>
	<path d="M8.6,20.8c0-0.2,0-0.4,0-0.5c0-0.1,0.1-0.1,0.2-0.1c1.2,0,2.4,0,3.7,0c0.9,0,1.9,0,2.8,0c0.1,0,0.2,0,0.2,0.2
		c0,0.1,0,0.3,0,0.4c0,0.1,0,0.1-0.1,0.1c0,0,0,0-0.1,0c-2.2,0-4.4,0-6.5,0C8.7,20.8,8.6,20.8,8.6,20.8z"/>
	<path d="M12.6,17.2c-0.2,0-0.3-0.2-0.3-0.3c0-0.2,0.2-0.3,0.3-0.3c0.2,0,0.3,0.2,0.3,0.3C13,17.1,12.8,17.2,12.6,17.2z"/>
	<path d="M11.4,17.2c-0.2,0-0.3-0.1-0.3-0.3c0-0.2,0.2-0.3,0.3-0.3c0.2,0,0.3,0.2,0.3,0.3C11.7,17.1,11.5,17.2,11.4,17.2z"/>
	<path d="M12.2,9.8c0,0,0.1,0,0.1,0c0.4,0,0.8,0,1.1,0c0.2,0,0.3,0.1,0.3,0.3c0,0.1-0.1,0.3-0.3,0.3c0,0-0.1,0-0.1,0
		c-0.5,0-0.9,0-1.4,0c-0.2,0-0.3-0.1-0.3-0.3c0-0.5,0-1,0-1.4c0-0.2,0.1-0.3,0.3-0.3c0.2,0,0.3,0.1,0.3,0.3c0,0.4,0,0.8,0,1.1
		C12.2,9.7,12.2,9.8,12.2,9.8z"/>
</g>
</svg>
