<?xml version="1.0" encoding="utf-8"?>
<!-- Generator: Adobe Illustrator 17.1.0, SVG Export Plug-In . SVG Version: 6.00 Build 0)  -->
<!DOCTYPE svg PUBLIC "-//W3C//DTD SVG 1.1//EN" "http://www.w3.org/Graphics/SVG/1.1/DTD/svg11.dtd">
<svg version="1.1" id="Layer_30" xmlns="http://www.w3.org/2000/svg" xmlns:xlink="http://www.w3.org/1999/xlink" x="0px" y="0px"
	 viewBox="0 0 24 24" enable-background="new 0 0 24 24" xml:space="preserve">
<g>
	<path d="M16.9,21.3c-0.1,0-0.3,0-0.4,0c-0.2,0-0.4,0-0.6-0.1c-1.5-0.2-2.6-1-3.5-2.2c0-0.1-0.1-0.1-0.2-0.1c-1.2,0-2.4,0-3.6,0
		c-0.4,0-0.7-0.3-0.7-0.7c0-0.3,0-0.7,0-1c0-0.1,0-0.2,0-0.3c-0.1-0.3-0.4-0.4-0.6-0.4c-0.3,0-0.5,0.3-0.5,0.6c0,0.4,0,0.8,0,1.1
		c0,0.1,0,0.2,0,0.2c-0.1,0.3-0.3,0.5-0.7,0.5c-1.1,0-2.3,0-3.4,0c0,0-0.1,0-0.1,0c-0.3,0-0.5-0.2-0.6-0.4c0,0,0-0.1,0-0.1
		c0-5,0-10.1,0-15.1C2.1,3.1,2.1,3,2.3,2.9c0.1-0.1,0.2-0.1,0.3-0.1c5.8,0,11.5,0,17.3,0c0.5,0.2,0.6,0.3,0.6,0.8c0,2.8,0,5.7,0,8.5
		c0,0.1,0,0.1,0.1,0.2c0.8,0.8,1.2,1.7,1.4,2.8c0,0.2,0.1,0.4,0.1,0.6c0,0.2,0,0.4,0,0.7c0,0.1,0,0.3,0,0.4c-0.1,1-0.6,2-1.3,2.8
		c-0.9,1-1.9,1.6-3.2,1.8C17.3,21.2,17.1,21.2,16.9,21.3z M11.7,17.6c-0.6-2.2-0.1-4.2,1.6-5.7c1.8-1.5,3.7-1.6,5.8-0.7
		c0-2.4,0-4.8,0-7.2C13.9,4,8.6,4,3.3,4c0,4.5,0,9,0,13.6c0.7,0,1.5,0,2.2,0c0-0.1,0-0.3,0-0.4c0-0.1,0-0.3,0-0.4
		c0.1-0.9,0.9-1.5,1.7-1.6c0.9,0,1.7,0.5,1.9,1.4c0.1,0.2,0.1,0.4,0.1,0.6c0,0.1,0,0.3,0,0.4C10.1,17.6,10.9,17.6,11.7,17.6z
		 M16.7,11.5c-2.5,0-4.5,2-4.5,4.5c0,2.5,2,4.5,4.5,4.5c2.5,0,4.5-2,4.5-4.5C21.2,13.5,19.2,11.5,16.7,11.5z"/>
	<path d="M8.2,13.3c-1.1,0-2.2,0-3.3,0c0,0-0.1,0-0.1,0c-0.1,0-0.1-0.1-0.1-0.1c0-0.2,0-0.4,0-0.5c0,0,0-0.1,0.1-0.1
		c0.7-0.6,1.4-1.1,2.3-1.3c0.1,0,0.2,0,0.3,0c0.6,0.3,1.2,0.3,1.8,0c0.1,0,0.2-0.1,0.3,0c0.8,0.2,1.6,0.6,2.2,1.2
		c0.1,0.1,0.1,0.1,0.1,0.2c0,0.1,0,0.3,0,0.4c0,0.1-0.1,0.2-0.2,0.2c-0.1,0-0.2,0-0.3,0C10.3,13.3,9.2,13.3,8.2,13.3z"/>
	<path d="M9.6,9c0,0.3-0.1,0.6-0.3,0.8c-0.2,0.3-0.4,0.6-0.8,0.7c-0.5,0.1-0.9,0-1.2-0.3c-0.3-0.3-0.5-0.6-0.5-1c0,0,0-0.1,0-0.1
		C6.6,9,6.5,8.9,6.6,8.6c0,0,0-0.1,0-0.1c0.1-0.1,0.1-0.2,0.1-0.3C6.5,7.5,6.9,6.7,7.6,6.4c0.7-0.3,1.5-0.1,2,0.6
		c0.3,0.4,0.4,0.9,0.2,1.4c0,0.1,0,0.1,0,0.1c0.1,0.1,0.1,0.2,0.1,0.3C9.8,8.9,9.7,9,9.6,9z"/>
	<path d="M15.1,8.8c-0.8,0-1.5,0-2.3,0c0,0-0.1,0-0.1,0c-0.1,0-0.2-0.1-0.2-0.2c0-0.1,0.1-0.2,0.2-0.3c0,0,0.1,0,0.1,0
		c1.5,0,3.1,0,4.6,0c0,0,0.1,0,0.1,0c0.1,0,0.2,0.1,0.2,0.3c0,0.1-0.1,0.2-0.2,0.3c0,0-0.1,0-0.1,0C16.7,8.8,15.9,8.8,15.1,8.8z"/>
	<path d="M15.1,6.3c0.8,0,1.6,0,2.3,0c0.2,0,0.3,0.2,0.3,0.3c0,0.1-0.1,0.2-0.2,0.2c0,0,0,0-0.1,0c-1.6,0-3.1,0-4.7,0
		c-0.1,0-0.2-0.1-0.3-0.2c-0.1-0.2,0-0.3,0.2-0.3c0.2,0,0.4,0,0.6,0C14,6.3,14.5,6.3,15.1,6.3z"/>
	<path d="M16.1,15.3c0-0.2,0-0.3,0-0.5c0-0.5,0-1,0-1.5c0-0.2,0.1-0.4,0.4-0.4c0.2,0,0.4,0,0.6,0c0.2,0,0.4,0.1,0.4,0.4
		c0,0.6,0,1.3,0,1.9c0,0,0,0.1,0,0.1c0,0,0.1,0,0.1,0c0.6,0,1.2,0,1.8,0c0.3,0,0.4,0.1,0.4,0.4c0,0.2,0,0.3,0,0.5
		c0,0.2-0.1,0.4-0.4,0.4c-0.6,0-1.2,0-1.8,0c0,0-0.1,0-0.1,0c0,0,0,0.1,0,0.1c0,0.6,0,1.3,0,1.9c0,0.3-0.1,0.4-0.4,0.4
		c-0.2,0-0.4,0-0.6,0c-0.2,0-0.3-0.1-0.3-0.3c0-0.6,0-1.3,0-1.9c0,0,0-0.1,0-0.1c0,0-0.1,0-0.1,0c-0.6,0-1.2,0-1.8,0
		c-0.3,0-0.4-0.1-0.4-0.4c0-0.2,0-0.3,0-0.5c0-0.2,0.1-0.4,0.4-0.4c0.6,0,1.2,0,1.8,0C16,15.3,16.1,15.3,16.1,15.3z"/>
</g>
</svg>
