<svg xmlns="http://www.w3.org/2000/svg" viewBox="0 0 24 24"><path d="M8.8 9.5l5.6 5.6c-.3 0-.8-.1-1.6-.4-.3-.1-.6-.1-.9-.1-.9 0-1.9.4-2.7 1l-.2.2-1-1c.1-.1.1-.2.2-.3.9-1.1 1.2-2.3.9-3.5-.1-.7-.2-1.3-.3-1.5m-.5-1.3v1.1s.1.8.4 1.9c.3 1 0 2-.8 3-.1.2-.3.3-.4.5l-.1.1 1.7 1.7.1-.1c.1-.1.2-.2.4-.3.7-.6 1.6-.9 2.4-.9.3 0 .5 0 .8.1 1.1.3 1.8.4 1.8.4h1.1L8.3 8.2z"/><path d="M15.2 2.4c1.7 0 3.3.6 4.4 1.8 1.2 1.2 1.8 2.8 1.8 4.5 0 1.7-.7 3.3-1.9 4.5-1.2 1.2-2.8 1.9-4.5 1.9h-.4L8.8 9.2c-.1-1.8.6-3.6 1.9-4.9 1.2-1.2 2.8-1.9 4.5-1.9m0-.5c-1.8 0-3.6.7-4.9 2-1.4 1.4-2.2 3.4-2 5.4v.1l6.1 6.1h.6c1.8 0 3.6-.7 4.9-2 1.3-1.3 2-3 2-4.9 0-1.8-.7-3.5-2-4.8-1.2-1.2-2.8-1.9-4.7-1.9zm-5.2 11l1 1-7.3 7.5h-.1l-1.2-1.2h-.5.5l7.6-7.3m0-.7l-7.9 7.6c0 .1-.1.3-.1.4 0 .1 0 .3.1.4l1.2 1.2c.1.1.2.1.3.1.1 0 .3-.1.4-.2l7.6-7.9-1.6-1.6z"/><circle fill="none" stroke="#000" stroke-width=".496" stroke-miterlimit="10" cx="13.3" cy="20.2" r="1.8"/></svg>