<svg xmlns="http://www.w3.org/2000/svg" viewBox="0 0 24 24"><g stroke="#000" stroke-miterlimit="10"><path fill-opacity=".26" stroke-linejoin="round" d="M9.5 6.4h5c.7 0 1.3-.5 1.3-1.1V3.1c0-.6-.6-1.1-1.3-1.1h-5c-.7 0-1.3.5-1.3 1.1v2.2c0 .6.6 1.1 1.3 1.1zm-4.9 8.7h3.6c.5 0 .9-.4.9-.9v-1.9c0-.5-.4-.9-.9-.9H4.6c-.5 0-.9.4-.9.9v1.9c0 .5.4.9.9.9zm11.2 0h3.6c.5 0 .9-.4.9-.9v-1.9c0-.5-.4-.9-.9-.9h-3.6c-.5 0-.9.4-.9.9v1.9c-.1.5.4.9.9.9zM8.2 22h2.2c.3 0 .5-.3.5-.7v-1.4c0-.4-.2-.7-.5-.7H8.2c-.3 0-.5.3-.5.7v1.4c-.1.4.2.7.5.7zm-5.7 0h2.1c.3 0 .5-.3.5-.7V20c0-.4-.2-.7-.5-.7H2.5c-.3 0-.5.3-.5.7v1.3c0 .4.2.7.5.7zm16.8 0h2.2c.3 0 .5-.3.5-.7v-1.4c0-.4-.2-.7-.5-.7h-2.2c-.3 0-.5.3-.5.7v1.4c-.1.4.2.7.5.7zm-5.6 0h2.1c.3 0 .5-.3.5-.7V20c0-.4-.2-.7-.5-.7h-2.1c-.3 0-.5.3-.5.7v1.3c0 .4.2.7.5.7z"/><path fill="none" stroke-linejoin="round" d="M17.6 11.3V9.6c0-.6-.5-1.1-1.1-1.1h-9c-.6.1-1.1.5-1.1 1.1v1.7M12 8.6V6.3"/><path fill="none" d="M3.6 18.8h0c0-.8.5-1.4 1.1-1.4h3.6c.6 0 1.1.6 1.1 1.4v0m11-.1h0c0-.8-.5-1.4-1.1-1.4h-3.6c-.6 0-1.1.6-1.1 1.4v.1m-8.2-1.2v-2.4m11.2 2.4v-2.4"/></g></svg>