<svg xmlns="http://www.w3.org/2000/svg" width="24" height="24"><path d="M4 5.1v3.4c0 .1.1.1.1.2.7.3 1.5.6 2.2.9.3.1.6.2.8.4V6.4C6.2 6 5 5.5 4 5.1zm9.4 9.1c-.9.4-1.8.7-2.6 1.1-.4.2-.4.2-.4.6V19h.1l3-1.2c.1 0 .1-.1.1-.2v-3.3c0-.2-.1-.1-.2-.1zm0 0c-.9.4-1.8.7-2.6 1.1-.4.2-.4.2-.4.6V19h.1l3-1.2c.1 0 .1-.1.1-.2v-3.3c0-.2-.1-.1-.2-.1zM4 5.1v3.4c0 .1.1.1.1.2.7.3 1.5.6 2.2.9.3.1.6.2.8.4V6.4C6.2 6 5 5.5 4 5.1zm17.7-.2c-2-.9-4.1-1.8-6.1-2.8-.2-.1-.4-.1-.6 0L9 4.8h-.3c-1.5-.7-3-1.3-4.5-2-.6-.2-1.1-.5-1.7-.7-.2-.1-.5 0-.5.3v16.3c0 .3.1.4.3.5 2.1.8 4.2 1.8 6.2 2.7.2.1.4.1.6 0l6-2.7c.1-.1.2-.1.4 0 1.3.6 2.6 1.2 3.8 1.7.7.3 1.5.7 2.2 1 .3.1.5 0 .5-.3V5.4c0-.3-.1-.4-.3-.5zM7.8 18.3c0 .1-.1.1-.1.2h-.3l-3.9-1.7c-.1 0-.1-.1-.1-.2v-.4c0-.1.1-.1.1-.2h.3l3.9 1.7c.1 0 .1.1.1.2v.4zm0-1.8c0 .1-.1.1-.1.2h-.3L3.5 15c-.1 0-.1-.1-.1-.2v-.4c0-.1.1-.1.1-.2h.3l3.9 1.7c.1 0 .1.1.1.2v.4zm0-2.1c0 .1-.1.1-.1.2h-.3l-3.9-1.7c-.1 0-.1-.1-.1-.2v-.4c0-.1.1-.1.1-.2h.3l3.9 1.7c.1 0 .1.1.1.2v.4zm0-1.9c0 .1-.1.1-.1.2h-.3L3.5 11c-.1 0-.1-.1-.1-.2v-.4c0-.1.1-.1.1-.2h.3l3.9 1.7c.1 0 .1.1.1.2v.4zm0-2.2c0 .4-.2.5-.5.4-1.2-.5-2.5-1-3.7-1.5-.2-.2-.3-.3-.3-.5v-4c0-.4.2-.5.5-.4 1.2.5 2.4 1 3.7 1.5.3.2.3.3.3.5v4zM10 7.5l3.9-1.7h.3c.1 0 .1.1.1.2v.4c0 .1-.1.1-.1.2l-3.9 1.7H10c-.1 0-.1-.1-.1-.2v-.4c-.1-.1 0-.2.1-.2zm0 1.9l3.9-1.7h.3c.1 0 .1.1.1.2v.4c0 .1-.1.1-.1.2l-3.9 1.7H10c-.1 0-.1-.1-.1-.2v-.4c-.1-.1 0-.2.1-.2zm0 2l3.9-1.7h.3c.1 0 .1.1.1.2v.4c0 .1-.1.1-.1.2l-3.9 1.7H10c-.1 0-.1-.1-.1-.2v-.4c-.1 0 0-.1.1-.2zm0 1.8l3.9-1.7h.3c.1 0 .1.1.1.2v.4c0 .1-.1.1-.1.2L10.3 14H10c-.1 0-.1-.1-.1-.2v-.4c-.1-.1 0-.2.1-.2zm4.3 2.5v2c0 .2-.1.4-.3.5-1.2.5-2.5 1-3.7 1.5-.3.1-.5 0-.5-.4v-4c0-.2.1-.3.3-.4 1.2-.5 2.4-1 3.7-1.5.4-.2.6 0 .6.4v1.9zm1.9-7v-4c0-.4.2-.5.5-.4 1.2.5 2.4 1 3.7 1.5.2.1.3.2.3.5v4c0 .4-.2.5-.5.4-1.2-.5-2.5-1-3.7-1.5-.2-.2-.3-.3-.3-.5zm4.6 9.6c0 .1-.1.1-.1.2h-.3l-3.9-1.7c-.1 0-.1-.1-.1-.2v-.4c0-.1.1-.1.1-.2h.3l3.9 1.7c.1 0 .1.1.1.2v.4zm0-1.8c0 .1-.1.1-.1.2h-.3L16.5 15c-.1 0-.1-.1-.1-.2v-.4c0-.1.1-.1.1-.2h.3l3.9 1.7c.1 0 .1.1.1.2v.4zm0-2.1c0 .1-.1.1-.1.2h-.3l-3.9-1.7c-.1 0-.1-.1-.1-.2v-.4c0-.1.1-.1.1-.2h.3l3.9 1.7c.1 0 .1.1.1.2v.4zm0-1.9c0 .1-.1.1-.1.2h-.3L16.5 11c-.1 0-.1-.1-.1-.2v-.4c0-.1.1-.1.1-.2h.3l3.9 1.7c.1 0 .1.1.1.2v.4zM17 8.6c.7.3 1.5.6 2.2.9.3.1.6.2.8.3V6.4c-1-.4-2-.9-3.1-1.3v3.4s0 .1.1.1zm-6.2 6.7c-.4.2-.4.2-.4.6V19h.1l3-1.2c.1 0 .1-.1.1-.2v-3.3c-.1 0-.2 0-.2.1-.8.1-1.7.5-2.6.9zM4 8.5c0 .1.1.1.1.2.7.3 1.5.6 2.2.9.3.1.6.2.8.4V6.4C6.2 6 5 5.5 4 5.1v3.4zm0-3.4v3.4c0 .1.1.1.1.2.7.3 1.5.6 2.2.9.3.1.6.2.8.4V6.4C6.2 6 5 5.5 4 5.1zm0 0v3.4c0 .1.1.1.1.2.7.3 1.5.6 2.2.9.3.1.6.2.8.4V6.4C6.2 6 5 5.5 4 5.1z"/></svg>