<?xml version="1.0" encoding="utf-8"?>
<!-- Generator: Adobe Illustrator 17.1.0, SVG Export Plug-In . SVG Version: 6.00 Build 0)  -->
<!DOCTYPE svg PUBLIC "-//W3C//DTD SVG 1.1//EN" "http://www.w3.org/Graphics/SVG/1.1/DTD/svg11.dtd">
<svg version="1.1" id="Layer_30" xmlns="http://www.w3.org/2000/svg" xmlns:xlink="http://www.w3.org/1999/xlink" x="0px" y="0px"
	 width="24px" height="24px" viewBox="0 0 24 24" enable-background="new 0 0 24 24" xml:space="preserve">
<g>
	<path d="M20.6,9.9c-0.2-0.1-0.3-0.2-0.5-0.3C18,8.5,15.4,9.2,14,11.2c-0.2,0.2-0.3,0.3-0.6,0.3c-1,0-1.9,0-2.9,0
		c-0.2,0-0.4-0.1-0.5-0.2C8.5,9.1,6,8.5,3.6,9.8c0,0-0.1,0-0.2,0.1c0-0.1,0.1-0.2,0.1-0.3C3.8,9,4.1,8.4,4.4,7.9
		c1-2.1,4.1-2.3,5.4-0.4c0.1,0.1,0.2,0.3,0.3,0.5c0.3,0.6,0.3,0.6,1,0.6c0.8,0,1.6,0,2.4,0c0.2,0,0.3,0,0.4-0.3
		c0.3-1.3,1.4-1.9,2.6-2.1c1.2-0.2,2.2,0.2,2.9,1.1C19.8,8.1,20.2,9,20.6,9.9C20.6,9.9,20.6,9.9,20.6,9.9z"/>
	<path d="M6,17.8c-2.2,0-4.1-1.9-4-4.1c0-2.2,1.9-4.1,4.1-4.1c2.3,0,4.1,1.8,4.1,4.1C10.1,16,8.3,17.8,6,17.8z M8.8,13.7
		c0-1.5-1.2-2.7-2.7-2.7c-1.5,0-2.7,1.3-2.7,2.7c0,1.5,1.3,2.7,2.7,2.7C7.6,16.4,8.8,15.2,8.8,13.7z"/>
	<path d="M13.9,13.7c0-2.3,1.8-4.1,4.1-4.1c2.3,0,4.1,1.9,4,4.1c0,2.3-1.9,4-4.2,4C15.6,17.8,13.8,16,13.9,13.7z M20.6,13.8
		c0-1.5-1.2-2.7-2.7-2.7c-1.5,0-2.7,1.2-2.7,2.7c0,1.5,1.2,2.7,2.7,2.7C19.4,16.5,20.6,15.3,20.6,13.8z"/>
	<path d="M13.5,12.2c-0.1,0.7-0.2,1.4-0.3,2.2c-0.8,0-1.6,0-2.5,0c-0.1-0.7-0.2-1.4-0.2-2.2C11.5,12.2,12.5,12.2,13.5,12.2z"/>
</g>
</svg>
