<?xml version="1.0" encoding="utf-8"?>
<!-- Generator: Adobe Illustrator 17.1.0, SVG Export Plug-In . SVG Version: 6.00 Build 0)  -->
<!DOCTYPE svg PUBLIC "-//W3C//DTD SVG 1.1//EN" "http://www.w3.org/Graphics/SVG/1.1/DTD/svg11.dtd">
<svg version="1.1" id="Layer_30" xmlns="http://www.w3.org/2000/svg" xmlns:xlink="http://www.w3.org/1999/xlink" x="0px" y="0px"
	 width="24px" height="24px" viewBox="0 0 24 24" enable-background="new 0 0 24 24" xml:space="preserve">
<g>
	<path display="none" fill="#FFFFFF" d="M13.8,6.9c0.1,0.2,0.2,0.4,0.2,0.6c-1.3,0.5-2.6,1.1-3.9,1.6C10.1,8.9,10,8.7,9.9,8.5
		C11.2,7.9,12.5,7.4,13.8,6.9z"/>
	<path display="none" fill="#FFFFFF" d="M13.8,8.5c0.1,0.2,0.2,0.4,0.2,0.6c-1.3,0.5-2.6,1.1-3.9,1.6c-0.1-0.2-0.2-0.4-0.2-0.6
		C11.2,9.6,12.5,9,13.8,8.5z"/>
	<path display="none" fill="#FFFFFF" d="M10.2,12.3c-0.1-0.2-0.2-0.4-0.2-0.6c1.3-0.5,2.6-1.1,3.9-1.6c0.1,0.2,0.2,0.4,0.2,0.6
		C12.8,11.2,11.5,11.8,10.2,12.3z"/>
	<path display="none" fill="#FFFFFF" d="M10.2,13.9c-0.1-0.2-0.2-0.4-0.2-0.6c1.3-0.5,2.6-1.1,3.9-1.6c0.1,0.2,0.2,0.4,0.3,0.6
		C12.8,12.8,11.5,13.4,10.2,13.9z"/>
	<path display="none" fill="#FFFFFF" d="M3.7,10.1c1.3,0.5,2.6,1.1,3.9,1.6c-0.1,0.2-0.2,0.4-0.2,0.6c-1.3-0.5-2.6-1.1-3.9-1.6
		C3.6,10.5,3.7,10.3,3.7,10.1z"/>
	<path display="none" fill="#FFFFFF" d="M3.7,14.9C5,15.5,6.3,16,7.6,16.5c-0.1,0.2-0.2,0.4-0.2,0.6c-1.3-0.5-2.6-1.1-3.9-1.6
		C3.6,15.3,3.7,15.1,3.7,14.9z"/>
	<path display="none" fill="#FFFFFF" d="M7.6,13.3c-0.1,0.2-0.2,0.4-0.3,0.6c-1.3-0.5-2.6-1.1-3.9-1.6c0.1-0.2,0.2-0.4,0.2-0.6
		C5,12.2,6.3,12.8,7.6,13.3z"/>
	<path display="none" fill="#FFFFFF" d="M3.5,13.9c0.1-0.2,0.2-0.4,0.2-0.6c1.3,0.5,2.6,1.1,3.9,1.6c-0.1,0.2-0.2,0.4-0.2,0.6
		C6.1,15,4.8,14.5,3.5,13.9z"/>
	<path display="none" fill="#FFFFFF" d="M16.4,12.3c0.1-0.2,0.2-0.4,0.2-0.6c1.3,0.5,2.6,1.1,3.9,1.6c-0.1,0.2-0.2,0.4-0.2,0.6
		C19,13.4,17.7,12.8,16.4,12.3z"/>
	<path display="none" fill="#FFFFFF" d="M16.4,10.7c0.1-0.2,0.2-0.4,0.2-0.6c1.3,0.5,2.6,1.1,3.9,1.6c-0.1,0.2-0.2,0.4-0.2,0.6
		C19,11.8,17.7,11.2,16.4,10.7z"/>
	<path display="none" fill="#FFFFFF" d="M16.4,13.9c0.1-0.2,0.2-0.4,0.2-0.6c1.3,0.5,2.6,1.1,3.9,1.6c-0.1,0.2-0.2,0.4-0.2,0.6
		C19,15,17.7,14.5,16.4,13.9z"/>
	<path display="none" fill="#FFFFFF" d="M16.4,15.5c0.1-0.2,0.2-0.4,0.2-0.6c1.3,0.5,2.6,1.1,3.9,1.6c-0.1,0.2-0.2,0.4-0.2,0.6
		C19,16.6,17.7,16.1,16.4,15.5z"/>
</g>
<path d="M4,5.1c0,1.1,0,2.3,0,3.4c0,0.1,0.1,0.1,0.1,0.2c0.7,0.3,1.5,0.6,2.2,0.9c0.3,0.1,0.6,0.2,0.8,0.4V6.4C6.2,6,5,5.5,4,5.1z
	 M13.4,14.2c-0.9,0.4-1.8,0.7-2.6,1.1c-0.4,0.2-0.4,0.2-0.4,0.6v3.1c0.1,0,0.1,0,0.1,0c1-0.4,2-0.8,3-1.2c0.1,0,0.1-0.1,0.1-0.2
	c0-1,0-2,0-3.1v-0.2C13.6,14.1,13.5,14.2,13.4,14.2z M13.4,14.2c-0.9,0.4-1.8,0.7-2.6,1.1c-0.4,0.2-0.4,0.2-0.4,0.6v3.1
	c0.1,0,0.1,0,0.1,0c1-0.4,2-0.8,3-1.2c0.1,0,0.1-0.1,0.1-0.2c0-1,0-2,0-3.1v-0.2C13.6,14.1,13.5,14.2,13.4,14.2z M4,5.1
	c0,1.1,0,2.3,0,3.4c0,0.1,0.1,0.1,0.1,0.2c0.7,0.3,1.5,0.6,2.2,0.9c0.3,0.1,0.6,0.2,0.8,0.4V6.4C6.2,6,5,5.5,4,5.1z M21.7,4.9
	c-2-0.9-4.1-1.8-6.1-2.8c-0.2-0.1-0.4-0.1-0.6,0C13,3,11,3.9,9,4.8c-0.1,0-0.2,0-0.3,0c-1.5-0.7-3-1.3-4.5-2
	C3.6,2.6,3.1,2.3,2.5,2.1C2.3,2,2,2.1,2,2.4c0,0.1,0,0.1,0,0.2v8c0,2.7,0,5.4,0,8.1c0,0.3,0.1,0.4,0.3,0.5C4.4,20,6.5,21,8.5,21.9
	c0.2,0.1,0.4,0.1,0.6,0c2-0.9,4-1.8,6-2.7c0.1-0.1,0.2-0.1,0.4,0c1.3,0.6,2.6,1.2,3.8,1.7c0.7,0.3,1.5,0.7,2.2,1
	c0.3,0.1,0.5,0,0.5-0.3v-0.1c0-5.4,0-10.7,0-16.1C22,5.1,21.9,5,21.7,4.9z M7.8,18.3c0,0.1-0.1,0.1-0.1,0.2c0,0-0.1,0-0.2,0
	c0,0-0.1,0-0.1,0l-3.9-1.7c-0.1,0-0.1-0.1-0.1-0.2l0-0.4c0-0.1,0.1-0.1,0.1-0.2c0,0,0.1,0,0.2,0c0,0,0.1,0,0.1,0l3.9,1.7
	c0.1,0,0.1,0.1,0.1,0.2L7.8,18.3z M7.8,16.5c0,0.1-0.1,0.1-0.1,0.2c0,0-0.1,0-0.2,0c0,0-0.1,0-0.1,0L3.5,15c-0.1,0-0.1-0.1-0.1-0.2
	l0-0.4c0-0.1,0.1-0.1,0.1-0.2c0,0,0.1,0,0.2,0c0,0,0.1,0,0.1,0l3.9,1.7c0.1,0,0.1,0.1,0.1,0.2L7.8,16.5z M7.8,14.4
	c0,0.1-0.1,0.1-0.1,0.2c0,0-0.1,0-0.2,0c0,0-0.1,0-0.1,0l-3.9-1.7c-0.1,0-0.1-0.1-0.1-0.2l0-0.4c0-0.1,0.1-0.1,0.1-0.2
	c0,0,0.1,0,0.2,0c0,0,0.1,0,0.1,0l3.9,1.7c0.1,0,0.1,0.1,0.1,0.2L7.8,14.4z M7.8,12.5c0,0.1-0.1,0.1-0.1,0.2c0,0-0.1,0-0.2,0
	c0,0-0.1,0-0.1,0L3.5,11c-0.1,0-0.1-0.1-0.1-0.2l0-0.4c0-0.1,0.1-0.1,0.1-0.2c0,0,0.1,0,0.2,0c0,0,0.1,0,0.1,0l3.9,1.7
	c0.1,0,0.1,0.1,0.1,0.2L7.8,12.5z M7.8,10.3c0,0.4-0.2,0.5-0.5,0.4c-1.2-0.5-2.5-1-3.7-1.5C3.4,9,3.3,8.9,3.3,8.7c0-0.7,0-1.3,0-2
	c0-0.7,0-1.3,0-2c0-0.4,0.2-0.5,0.5-0.4c1.2,0.5,2.4,1,3.7,1.5C7.8,6,7.8,6.1,7.8,6.3C7.8,7.6,7.8,9,7.8,10.3z M10,7.5l3.9-1.7
	c0,0,0.1,0,0.1,0c0.1,0,0.1,0,0.2,0c0.1,0,0.1,0.1,0.1,0.2l0,0.4c0,0.1-0.1,0.1-0.1,0.2l-3.9,1.7c0,0-0.1,0-0.1,0
	c-0.1,0-0.1,0-0.2,0c-0.1,0-0.1-0.1-0.1-0.2l0-0.4C9.8,7.6,9.9,7.5,10,7.5z M10,9.4l3.9-1.7c0,0,0.1,0,0.1,0c0.1,0,0.1,0,0.2,0
	c0.1,0,0.1,0.1,0.1,0.2l0,0.4c0,0.1-0.1,0.1-0.1,0.2l-3.9,1.7c0,0-0.1,0-0.1,0c-0.1,0-0.1,0-0.2,0c-0.1,0-0.1-0.1-0.1-0.2l0-0.4
	C9.8,9.5,9.9,9.4,10,9.4z M10,11.4l3.9-1.7c0,0,0.1,0,0.1,0c0.1,0,0.1,0,0.2,0c0.1,0,0.1,0.1,0.1,0.2l0,0.4c0,0.1-0.1,0.1-0.1,0.2
	l-3.9,1.7c0,0-0.1,0-0.1,0c-0.1,0-0.1,0-0.2,0c-0.1,0-0.1-0.1-0.1-0.2l0-0.4C9.8,11.6,9.9,11.5,10,11.4z M10,13.2l3.9-1.7
	c0,0,0.1,0,0.1,0c0.1,0,0.1,0,0.2,0c0.1,0,0.1,0.1,0.1,0.2l0,0.4c0,0.1-0.1,0.1-0.1,0.2L10.3,14c0,0-0.1,0-0.1,0c-0.1,0-0.1,0-0.2,0
	c-0.1,0-0.1-0.1-0.1-0.2l0-0.4C9.8,13.3,9.9,13.2,10,13.2z M14.3,15.7c0,0.7,0,1.3,0,2c0,0.2-0.1,0.4-0.3,0.5
	c-1.2,0.5-2.5,1-3.7,1.5c-0.3,0.1-0.5,0-0.5-0.4c0-1.3,0-2.7,0-4c0-0.2,0.1-0.3,0.3-0.4c1.2-0.5,2.4-1,3.7-1.5
	c0.4-0.2,0.6,0,0.6,0.4V15.7z M16.2,8.7c0-0.7,0-1.4,0-2c0-0.7,0-1.3,0-2c0-0.4,0.2-0.5,0.5-0.4c1.2,0.5,2.4,1,3.7,1.5
	c0.2,0.1,0.3,0.2,0.3,0.5c0,1.3,0,2.6,0,4c0,0.4-0.2,0.5-0.5,0.4c-1.2-0.5-2.5-1-3.7-1.5C16.3,9,16.2,8.9,16.2,8.7z M20.8,18.3
	c0,0.1-0.1,0.1-0.1,0.2c0,0-0.1,0-0.2,0c0,0-0.1,0-0.1,0l-3.9-1.7c-0.1,0-0.1-0.1-0.1-0.2l0-0.4c0-0.1,0.1-0.1,0.1-0.2
	c0,0,0.1,0,0.2,0c0,0,0.1,0,0.1,0l3.9,1.7c0.1,0,0.1,0.1,0.1,0.2L20.8,18.3z M20.8,16.5c0,0.1-0.1,0.1-0.1,0.2c0,0-0.1,0-0.2,0
	c0,0-0.1,0-0.1,0L16.5,15c-0.1,0-0.1-0.1-0.1-0.2l0-0.4c0-0.1,0.1-0.1,0.1-0.2c0,0,0.1,0,0.2,0c0,0,0.1,0,0.1,0l3.9,1.7
	c0.1,0,0.1,0.1,0.1,0.2L20.8,16.5z M20.8,14.4c0,0.1-0.1,0.1-0.1,0.2c0,0-0.1,0-0.2,0c0,0-0.1,0-0.1,0l-3.9-1.7
	c-0.1,0-0.1-0.1-0.1-0.2l0-0.4c0-0.1,0.1-0.1,0.1-0.2c0,0,0.1,0,0.2,0c0,0,0.1,0,0.1,0l3.9,1.7c0.1,0,0.1,0.1,0.1,0.2L20.8,14.4z
	 M20.8,12.5c0,0.1-0.1,0.1-0.1,0.2c0,0-0.1,0-0.2,0c0,0-0.1,0-0.1,0L16.5,11c-0.1,0-0.1-0.1-0.1-0.2l0-0.4c0-0.1,0.1-0.1,0.1-0.2
	c0,0,0.1,0,0.2,0c0,0,0.1,0,0.1,0l3.9,1.7c0.1,0,0.1,0.1,0.1,0.2L20.8,12.5z M17,8.6c0.7,0.3,1.5,0.6,2.2,0.9
	c0.3,0.1,0.6,0.2,0.8,0.3V6.4C19,6,18,5.5,16.9,5.1c0,1.2,0,2.3,0,3.4C16.9,8.5,16.9,8.6,17,8.6z M10.8,15.3
	c-0.4,0.2-0.4,0.2-0.4,0.6v3.1c0.1,0,0.1,0,0.1,0c1-0.4,2-0.8,3-1.2c0.1,0,0.1-0.1,0.1-0.2c0-1,0-2,0-3.1v-0.2c-0.1,0-0.2,0-0.2,0.1
	C12.6,14.5,11.7,14.9,10.8,15.3z M4,8.5c0,0.1,0.1,0.1,0.1,0.2c0.7,0.3,1.5,0.6,2.2,0.9c0.3,0.1,0.6,0.2,0.8,0.4V6.4
	C6.2,6,5,5.5,4,5.1C4,6.2,4,7.3,4,8.5z M4,5.1c0,1.1,0,2.3,0,3.4c0,0.1,0.1,0.1,0.1,0.2c0.7,0.3,1.5,0.6,2.2,0.9
	c0.3,0.1,0.6,0.2,0.8,0.4V6.4C6.2,6,5,5.5,4,5.1z M4,5.1c0,1.1,0,2.3,0,3.4c0,0.1,0.1,0.1,0.1,0.2c0.7,0.3,1.5,0.6,2.2,0.9
	c0.3,0.1,0.6,0.2,0.8,0.4V6.4C6.2,6,5,5.5,4,5.1z"/>
</svg>
