<svg xmlns="http://www.w3.org/2000/svg" viewBox="0 0 24 24"><g fill="#231F20"><path d="M11.3 21c-.1 0-.2-.1-.2-.2s0-.2.1-.2c5.1-1.9 8-6.1 7.6-11.3-.2-2.8-2.9-4.7-6.8-4.7-.9 0-1.8.1-2.8.3-.1-.1-.2-.1-.2-.2s0-.2.1-.3c1.2-.9 3.4-1.5 5.5-1.5 2 0 6.6.6 7.2 5.7.5 3.7-.3 6.7-2.2 8.9C17.4 20 14 21 11.5 21h-.2zm.8-16.9c4.1 0 7 2.1 7.2 5.1.3 5-2.3 9.3-7.1 11.4 2.8-.3 5.5-1.5 7.1-3.4 1.8-2.1 2.5-5 2.1-8.6-.6-4.8-5-5.3-6.8-5.3-1.6 0-3.3.4-4.5.9.7-.1 1.3-.1 2-.1z"/><path d="M11.3 21c-.1 0-.2-.1-.2-.2s0-.2.1-.2c5.1-1.9 8-6.1 7.6-11.3-.2-2.8-2.9-4.7-6.8-4.7-.9 0-1.8.1-2.8.3-.1-.1-.2-.1-.2-.2s0-.2.1-.3c1.2-.9 3.4-1.5 5.5-1.5 2 0 6.6.6 7.2 5.7.5 3.7-.3 6.7-2.2 8.9C17.4 20 14 21 11.5 21h-.2zm.8-16.9c4.1 0 7 2.1 7.2 5.1.3 5-2.3 9.3-7.1 11.4 2.8-.3 5.5-1.5 7.1-3.4 1.8-2.1 2.5-5 2.1-8.6-.6-4.8-5-5.3-6.8-5.3-1.6 0-3.3.4-4.5.9.7-.1 1.3-.1 2-.1z"/><path d="M8.5 21.1c-.1 0-.2-.1-.2-.2s0-.2.1-.2c2.4-1.4 8-4.7 6.6-10.5-.5-2.5-2.1-3.5-5-3.5-1.1 0-2.4.2-4 .5-.1 0-.2 0-.2-.1s0-.2.1-.3c1.4-1.3 3.7-2 6-2 3.1 0 6.5 1.4 6.8 4.6.3 2.8-.7 5.6-2.8 7.9-2.1 2.3-4.9 3.7-7.4 3.8zm1.6-14.9c3.1 0 4.8 1.2 5.4 3.9 1.4 6-4.4 9.5-6.2 10.6 2.2-.3 4.6-1.7 6.3-3.7 2-2.2 2.9-4.9 2.7-7.6-.3-2.9-3.4-4.2-6.3-4.2-1.9 0-3.8.5-5.1 1.5 1.1-.4 2.2-.5 3.2-.5z"/><path d="M8.5 21.1c-.1 0-.2-.1-.2-.2s0-.2.1-.2c2.4-1.4 8-4.7 6.6-10.5-.5-2.5-2.1-3.5-5-3.5-1.1 0-2.4.2-4 .5-.1 0-.2 0-.2-.1s0-.2.1-.3c1.4-1.3 3.7-2 6-2 3.1 0 6.5 1.4 6.8 4.6.3 2.8-.7 5.6-2.8 7.9-2.1 2.3-4.9 3.7-7.4 3.8zm1.6-14.9c3.1 0 4.8 1.2 5.4 3.9 1.4 6-4.4 9.5-6.2 10.6 2.2-.3 4.6-1.7 6.3-3.7 2-2.2 2.9-4.9 2.7-7.6-.3-2.9-3.4-4.2-6.3-4.2-1.9 0-3.8.5-5.1 1.5 1.1-.4 2.2-.5 3.2-.5z"/><path d="M8.9 13c-.6 0-1.1-.5-1.1-1.1s.5-1.1 1.1-1.1 1.1.5 1.1 1.1S9.5 13 8.9 13zm0-1.7c-.3 0-.6.3-.6.6s.3.6.6.6.6-.3.6-.6-.2-.6-.6-.6z"/><path d="M8.9 13c-.6 0-1.1-.5-1.1-1.1s.5-1.1 1.1-1.1 1.1.5 1.1 1.1S9.5 13 8.9 13zm0-1.7c-.3 0-.6.3-.6.6s.3.6.6.6.6-.3.6-.6-.2-.6-.6-.6zm1.2 8.1H10c-.5-.3 0-1 .4-1.5.1-.1.2-.3.2-.3l.1-.1c.5-1.1.7-1.6.9-1.7.1-.1.2-.1.3-.1.1 0 .2 0 .3.1.1.1.1.2.1.3 0 .1-.1.2-.1.3-.1.3-.3.7-.5 1.1v.2h.2c.2 0 .2.1.3.2 0 .1 0 .2-.1.2-.1.1-1.3.9-1.7 1.2-.2.1-.3.1-.3.1zm.9-1.8c-.1.1-.1.3-.3.4-.3.4-.4.7-.5.8.2-.3.8-.7 1.1-.9 0 0-.1 0-.1-.1-.1-.2-.1-.4-.1-.6 0-.1.1-.2.1-.3 0 .2-.2.7-.2.7z"/><path d="M10.1 19.4H10c-.5-.3 0-1 .4-1.5.1-.1.2-.3.2-.3l.1-.1c.5-1.1.7-1.6.9-1.7.1-.1.2-.1.3-.1.1 0 .2 0 .3.1.1.1.1.2.1.3 0 .1-.1.2-.1.3-.1.3-.3.7-.5 1.1v.2h.2c.2 0 .2.1.3.2 0 .1 0 .2-.1.2-.1.1-1.3.9-1.7 1.2-.2.1-.3.1-.3.1zm.9-1.8c-.1.1-.1.3-.3.4-.3.4-.4.7-.5.8.2-.3.8-.7 1.1-.9 0 0-.1 0-.1-.1-.1-.2-.1-.4-.1-.6 0-.1.1-.2.1-.3 0 .2-.2.7-.2.7z"/><path d="M12.1 17.7c-.1 0-.2 0-.2-.1-.1-.1-.2-.2-.2-.4 0-.1.1-.3.1-.4.1-.2.4-.4.6-.4.1 0 .2 0 .2.1.2.2.3.5 0 .8-.1.3-.3.4-.5.4zm.2-.8l-.2.2c-.1.1-.1.2-.1.2l.2-.2c.1-.1.1-.2.1-.2z"/><path d="M12.1 17.7c-.1 0-.2 0-.2-.1-.1-.1-.2-.2-.2-.4 0-.1.1-.3.1-.4.1-.2.4-.4.6-.4.1 0 .2 0 .2.1.2.2.3.5 0 .8-.1.3-.3.4-.5.4zm.2-.8l-.2.2c-.1.1-.1.2-.1.2l.2-.2c.1-.1.1-.2.1-.2zm-3.4.3c-.3 0-.5-.3-.5-.6 0-.2 0-.3.1-.5s.2-.3.4-.3c.3 0 .5.3.6.6 0 .2 0 .4-.1.6-.3.1-.4.2-.5.2zm-.1-.9v.2c0 .1.1.2.1.2v-.2c0-.1-.1-.2-.1-.2z"/><path d="M8.9 17.2c-.3 0-.5-.3-.5-.6 0-.2 0-.3.1-.5s.2-.3.4-.3c.3 0 .5.3.6.6 0 .2 0 .4-.1.6-.3.1-.4.2-.5.2zm-.1-.9v.2c0 .1.1.2.1.2v-.2c0-.1-.1-.2-.1-.2zm-5.4-.9c-.3 0-.5-.3-.4-.7 0-.4.2-.7.5-.7.2 0 .3.1.4.3.1.1.1.3.1.4-.1.4-.3.7-.6.7zm.1-.9s-.1.1-.1.2v.3s0-.1.1-.2v-.3z"/><path d="M3.4 15.4c-.3 0-.5-.3-.4-.7 0-.4.2-.7.5-.7.2 0 .3.1.4.3.1.1.1.3.1.4-.1.4-.3.7-.6.7zm.1-.9s-.1.1-.1.2v.3s0-.1.1-.2v-.3zm2.8.6c-.2 0-.3-.1-.3-.3 0-.1-.1-.3 0-.5 0-.3.2-.5.5-.5.2 0 .3.2.4.3 0 .1.1.3 0 .5-.1.3-.3.6-.6.5zm.2-.8s-.1.1-.1.2v.3s.1-.1.1-.2v-.3z"/><path d="M6.3 15.1c-.2 0-.3-.1-.3-.3 0-.1-.1-.3 0-.5 0-.3.2-.5.5-.5.2 0 .3.2.4.3 0 .1.1.3 0 .5-.1.3-.3.6-.6.5zm.2-.8s-.1.1-.1.2v.3s.1-.1.1-.2v-.3zm1.2 6.4c-.1 0-.2-.1-.3-.2-.1-.3 0-.7.3-1.3.1-.1.1-.3.1-.3.1-.4-.1-.8-.2-1.3-.1-.2-.1-.3-.1-.4-.2-.5 0-1.2.3-1.3 0 0 .1-.1.2-.1.3 0 .3.3.3.6 0 .2 0 .4.1.6.1.2.2.3.3.3.1.1.2.1.3.1.1 0 .3 0 .6-.7v-.5c-.1 0-.3-.1-.3-.3-.1-.2-.1-.7.2-.9.1-.1.2-.1.4-.1.1 0 .3 0 .5.3s.1.6.1.7c.2.6.3 1 .2 1.1 0 .1-.2.3-.4.6s-.5.6-.6.8c-.1.2 0 .5.1.7.1.3.2.7-.1.9-.1 0-.2.1-.2.1-.3 0-.4-.3-.5-.6v-.1c0 .1-.1.4-.2.5-.2.4-.3.8-.7.8h-.4zm.1-3.8v.1c0 .1.1.3.1.4.2.5.4 1 .2 1.5 0 .1-.1.2-.1.4-.1.2-.3.8-.3.9.1 0 .2-.4.3-.6.2-.4.3-.8.7-.8.2 0 .3.2.4.4 0 .2.1.2.1.2 0-.1-.1-.3-.1-.4-.1-.3-.2-.7-.1-1 .2-.3.5-.7.7-.9.1-.2.3-.4.3-.5 0 0 0-.3-.1-.5v.5c-.2.5-.5 1-1 1-.2 0-.3 0-.5-.1-.2 0-.4-.2-.5-.5l-.1-.1zm1.9-1.6h-.1s-.1.2 0 .3c0 .1.1.1.1.1.1 0 .1 0 .2.1v-.1s.1-.1 0-.3c-.1-.1-.2-.1-.2-.1z"/><path d="M7.7 20.7c-.1 0-.2-.1-.3-.2-.1-.3 0-.7.3-1.3.1-.1.1-.3.1-.3.1-.4-.1-.8-.2-1.3-.1-.2-.1-.3-.1-.4-.2-.5 0-1.2.3-1.3 0 0 .1-.1.2-.1.3 0 .3.3.3.6 0 .2 0 .4.1.6.1.2.2.3.3.3.1.1.2.1.3.1.1 0 .3 0 .6-.7v-.5c-.1 0-.3-.1-.3-.3-.1-.2-.1-.7.2-.9.1-.1.2-.1.4-.1.1 0 .3 0 .5.3s.1.6.1.7c.2.6.3 1 .2 1.1 0 .1-.2.3-.4.6s-.5.6-.6.8c-.1.2 0 .5.1.7.1.3.2.7-.1.9-.1 0-.2.1-.2.1-.3 0-.4-.3-.5-.6v-.1c0 .1-.1.4-.2.5-.2.4-.3.8-.7.8h-.4zm.1-3.8v.1c0 .1.1.3.1.4.2.5.4 1 .2 1.5 0 .1-.1.2-.1.4-.1.2-.3.8-.3.9.1 0 .2-.4.3-.6.2-.4.3-.8.7-.8.2 0 .3.2.4.4 0 .2.1.2.1.2 0-.1-.1-.3-.1-.4-.1-.3-.2-.7-.1-1 .2-.3.5-.7.7-.9.1-.2.3-.4.3-.5 0 0 0-.3-.1-.5v.5c-.2.5-.5 1-1 1-.2 0-.3 0-.5-.1-.2 0-.4-.2-.5-.5l-.1-.1zm1.9-1.6h-.1s-.1.2 0 .3c0 .1.1.1.1.1.1 0 .1 0 .2.1v-.1s.1-.1 0-.3c-.1-.1-.2-.1-.2-.1zm-6 3.4c-.1 0-.1 0-.2-.1 0 0-.9-1.4-1.3-2.5-.3-1-.2-1.8 0-2.1.1-.1.2-.1.2-.1.3 0 .4.3.5.7.1.4.2.8.5.8.5-.1.6-.6.6-1.1 0-.3 0-.6.3-.6.5 0 .5 1.2.5 1.7 0 1-.9 2.9-1 3.1 0 .1 0 .2-.1.2zm-1.3-4c0 .3 0 .7.2 1.2.2.8.8 1.7 1.1 2.2.2-.6.7-1.9.7-2.7 0-.3 0-.7-.1-.9 0 .5-.1 1.3-.8 1.4h-.1c-.7 0-.9-.7-1-1.2z"/><path d="M3.7 18.7c-.1 0-.1 0-.2-.1 0 0-.9-1.4-1.3-2.5-.3-1-.2-1.8 0-2.1.1-.1.2-.1.2-.1.3 0 .4.3.5.7.1.4.2.8.5.8.5-.1.6-.6.6-1.1 0-.3 0-.6.3-.6.5 0 .5 1.2.5 1.7 0 1-.9 2.9-1 3.1 0 .1 0 .2-.1.2zm-1.3-4c0 .3 0 .7.2 1.2.2.8.8 1.7 1.1 2.2.2-.6.7-1.9.7-2.7 0-.3 0-.7-.1-.9 0 .5-.1 1.3-.8 1.4h-.1c-.7 0-.9-.7-1-1.2zm4.4 5.8c-.5 0-.8-1.1-.8-1.3-.1-.4-.1-.6-.2-.7v.4c-.1.3-.1.5-.2.6-.1.1-.2.4-.5.4H5c-.1 0-.1-.1-.2-.2-.2-.4.1-1.4.1-1.4.1-.4.2-1.3.2-1.5 0-.2-.3-2-.2-2.3.1-.7.4-1.2.8-1.2.3.1.2.5.2.7 0 .2-.1.3-.1.5v.1c0 .6.1.7.3.7.5 0 .8-.5.9-.7.2-.5.4-1 .7-1 .1 0 .1 0 .2.1.4.3.2.7-.1 1.4-.1.3-.4.7-.6 1-.2.3-.5.7-.5.9 0 .4.3 2.2.3 2.5v.5c.1.4-.1.5-.2.5zm-1-2.5c.3 0 .4.3.6 1.1.1.6.3.9.4 1 0-.1 0-.2-.1-.5 0-.2-.4-2.1-.3-2.6 0-.3.3-.7.6-1.1l.6-.9c.1-.3.3-.8.3-.9 0 0-.1.1-.3.7-.1.4-.6 1-1.3 1-.7 0-.8-.8-.8-1.2v-.1c0-.2 0-.4.1-.6v-.1c0 .1-.2.4-.2.8 0 .3.2 2 .2 2.2.1.3-.1 1.2-.3 1.7-.1.4-.2.8-.1 1 0 0 0-.1.1-.1 0-.1.1-.3.1-.5 0-.6.1-.9.4-.9z"/><path d="M6.8 20.5c-.5 0-.8-1.1-.8-1.3-.1-.4-.1-.6-.2-.7v.4c-.1.3-.1.5-.2.6-.1.1-.2.4-.5.4H5c-.1 0-.1-.1-.2-.2-.2-.4.1-1.4.1-1.4.1-.4.2-1.3.2-1.5 0-.2-.3-2-.2-2.3.1-.7.4-1.2.8-1.2.3.1.2.5.2.7 0 .2-.1.3-.1.5v.1c0 .6.1.7.3.7.5 0 .8-.5.9-.7.2-.5.4-1 .7-1 .1 0 .1 0 .2.1.4.3.2.7-.1 1.4-.1.3-.4.7-.6 1-.2.3-.5.7-.5.9 0 .4.3 2.2.3 2.5v.5c.1.4-.1.5-.2.5zm-1-2.5c.3 0 .4.3.6 1.1.1.6.3.9.4 1 0-.1 0-.2-.1-.5 0-.2-.4-2.1-.3-2.6 0-.3.3-.7.6-1.1l.6-.9c.1-.3.3-.8.3-.9 0 0-.1.1-.3.7-.1.4-.6 1-1.3 1-.7 0-.8-.8-.8-1.2v-.1c0-.2 0-.4.1-.6v-.1c0 .1-.2.4-.2.8 0 .3.2 2 .2 2.2.1.3-.1 1.2-.3 1.7-.1.4-.2.8-.1 1 0 0 0-.1.1-.1 0-.1.1-.3.1-.5 0-.6.1-.9.4-.9z"/></g></svg>