<svg xmlns="http://www.w3.org/2000/svg" viewBox="0 0 24 24"><g fill="#231F20"><path d="M12 12.3h-.1l-8.5-5c-.1 0-.1-.1-.1-.2s.1-.2.1-.2L11.9 2h.2l8.5 4.9c.1 0 .1.1.1.2s-.1.2-.1.2l-8.5 4.9-.1.1zm0-.6l8-4.6-8-4.6-8 4.6 8 4.6z"/><path d="M12.8 9.8c-1.1 0-2.1-.3-3-.7-1.1-.7-1.5-1.7-1.2-2.5 0-.1.1-.1.2-.2.3 0 .5-.1.6-.2-.1 0-.1-.1-.1-.2s0-.2.1-.3l.1-.1c.1 0 .1-.1.2-.1h.2c.1 0 .1.1.1.2.3 0 .7-.2.9-.4.1-.1.2-.2.3-.2h.5c1.1 0 2.1.3 3 .7.9.5 1.4 1.2 1.4 1.9 0 .6-.4 1.1-1 1.5-.6.4-1.4.6-2.3.6zm-1.4-4.1c-.4.4-1.1.5-1.4.6 0 .1-.3.5-1 .7-.1.5.3 1.1 1.1 1.6.7.4 1.7.7 2.7.7.8 0 1.5-.2 2-.5s.7-.6.7-1c0-.5-.4-1-1.1-1.4-.7-.4-1.7-.7-2.7-.7h-.3z"/><path d="M8.4 7c-.7 0-1.3-.2-1.3-.2-.1 0-.2-.1-.2-.2v-.2s.4-.6 1.3-.8h.5c.4 0 .7.1.9.1.2 0 .4.1.4.1.1 0 .1.1.2.2v.2s-.4.6-1.2.8h-.6zm-.7-.6c.2 0 .5.1.7.1h.4c.3 0 .5-.1.6-.2-.2-.1-.4-.2-.7-.2h-.4c-.3.1-.5.2-.6.3z"/><path d="M9.9 6.3c-.1 0-.2 0-.2-.1 0 0-.1-.1-.1-.3-.1-.4-.1-.7.2-.9.4-.4 1.3-.6 1.4-.6.1 0 .2 0 .3.1 0 0 .3.5.1 1 0 .1-.1.1-.1.2-.6.5-1.5.6-1.6.6zM11.1 5c-.3.1-.7.2-.9.4-.1.1-.1.2-.1.4.3 0 .7-.2.9-.4.1-.2.1-.3.1-.4z"/><path d="M10.5 6.7c-.1 0-.2-.1-.2-.2 0 0-.2-.1-.5-.2-.1 0-.1-.1-.2-.1V6c0-.1.1-.2.3-.2.3.1.7.3.9.5.1.1 0 .3-.1.4h-.2zm1.4 15.4h-.1l-8.5-4.9c-.1 0-.1-.1-.1-.2V7.1c0-.1.1-.2.1-.2h.2l8.5 4.9c.1 0 .1.1.1.2v9.8c0 .1-.1.2-.1.2l-.1.1zm-8.2-5.3l8 4.5V12l-8-4.5v9.3z"/><path d="M12 22.1h-.1c-.1 0-.1-.1-.1-.2V12c0-.1.1-.2.1-.2l8.5-4.9h.2c.1 0 .1.1.1.2v9.8c0 .1-.1.2-.1.2L12.1 22l-.1.1zm.3-9.9v9.2l8-4.6V7.6l-8 4.6zM8 18.5h-.3c-.2-.1-1.5-1.8-2.2-2.9-.9-1.6-1.3-2.9-1.3-3v-.2c0-.1.1-.1.2-.1.2 0 .3.1.3.2 0 0 .4 1.3 1.3 2.9.7 1.2 1.8 2.5 2 2.7.2 0 1-.1 1.5-.4.7-.5 1.1-1.4 1.1-1.4 0-.1.1-.2.2-.2h.1c.1 0 .1.1.1.1v.2s-.4 1.1-1.3 1.7c-.5.3-1.3.4-1.7.4z"/><path d="M10.2 17c-.7 0-1.6-.3-2.6-.9-1.9-1.1-3.4-2.7-3.4-3.7 0-.5.4-.8 1-.8h.5c.1 0 .2 0 .2.1.3.1.6.1.8.1.5 0 .8-.1.9-.1h.1c.1 0 .2 0 .2.1.1.2 1.1 1.5 2 2.4.5.5 1.2 1.3 1.2 2.1.1.1 0 .7-.9.7zm-5-4.8c-.5 0-.5.2-.5.3 0 .7 1.3 2.1 3.1 3.2.9.5 1.8.8 2.4.8.5 0 .5-.2.5-.3 0-.4-.4-1-1.1-1.7-.9-.8-1.7-1.9-2-2.3-.2 0-.5.1-.9.1-.3 0-.6 0-.9-.1-.1 0-.2 0-.2-.1-.2.1-.3.1-.4.1z"/><path d="M7.6 12.8s-.9-1.6-1.1-2c0-.2 0-.3.2-.3s.6.1 1 .4c.5.3 1.1.8 1.1 1.1v.1h-.1c-.3.1-.8.5-1 .7l-.1.1v-.1z"/><path d="M7.7 13c-.1 0-.2-.1-.2-.1-.2-.4-.9-1.6-1.1-1.9 0 0-.1-.1-.1-.2 0-.2.1-.4.4-.4.2 0 .6.1 1.1.4.2.2 1.2.8 1.2 1.3 0 .1-.1.2-.2.3-.2 0-.7.4-.9.6h-.2zm-.6-1.9c.2.4.5.9.7 1.2.2-.1.4-.3.6-.4-.2-.2-.4-.4-.8-.6-.2-.1-.4-.1-.5-.2zm7.9 7.4c-.2 0-.4 0-.6-.1-.2-.1-.3-.2-.5-.3-.1-.1-.2-.2-.2-.3-.1-.1-.1-.2-.1-.2l-.1-.4.3.2.2.2c.1.1.2.1.3.2.1.1.2.1.3.1h.5c.1 0 .3-.1.5-.2.1 0 .2-.1.3-.1.1 0 .2-.1.3-.1l.3-.2.3-.2c.1-.1.2-.1.2-.2l.1-.1.3-.3.2-.2c.1-.1.1-.2.2-.2l.1-.1h.2l-.1-.1c.1-.1.2-.3.3-.4.1-.1.2-.3.2-.4l.3-.6.2.1s0 .1-.1.3c0 .2-.1.3-.1.4 0 .1-.1.3-.2.4-.1.2-.1.3-.2.5s-.2.4-.3.5c-.1.2-.3.4-.4.5l-.5.5-.2.2-.1.1h-.5c-.1.1-.2.1-.3.2-.1.1-.2.1-.3.1-.2.1-.4.1-.8.2zM12.7 15l.2-.2.1-.1c.1-.1.1-.2.2-.2.1-.1.1-.1.1-.2l.2-.3c.1-.1.1-.2.2-.3.1-.1.2-.3.4-.4.1-.1.4-.3.4-.3.1-.1.3-.1.4-.1h.4c.1 0 .2.1.2.1l.1.1.1.1.1.1-.1.2H15v.1c0 .4-.3.8-.6 1-.1.1-.2.1-.3.1-.2 0-.3-.1-.4-.3-.2.2-.3.4-.5.5-.1 0-.1.1-.2.1s-.2.1-.2.1l-.3.1.2-.2zm4.2-2.3c0-.1 0-.2.1-.3 0-.1.1-.1.1-.2s.1-.1.1-.2c.1-.2.1-.3.2-.4.1-.1.2-.3.3-.4.1-.1.2-.2.4-.3.1-.1.3-.2.4-.2h.3c.1 0 .2 0 .2.1h.1l.1.1v-.1h.2l.2.1v-.1h.3v.2l-.1.1s-.1.1-.2.1-.1.1-.2.1c-.2.1-.3.1-.5.1h-.1c0 .4-.3.8-.6 1-.1.1-.2.1-.3.1-.1 0-.2 0-.3-.1-.1-.1-.1-.2-.1-.3-.2.2-.3.3-.3.4l-.3.3v-.1z"/></g></svg>