<svg xmlns="http://www.w3.org/2000/svg" viewBox="0 0 24 24"><path fill="#231300" d="M12 6.2c1.3 0 2.3 1 2.3 2.3s-1 2.3-2.3 2.3-2.3-1-2.3-2.3 1-2.3 2.3-2.3zm0-.9c-1.8 0-3.2 1.4-3.2 3.2s1.4 3.2 3.2 3.2 3.2-1.4 3.2-3.2-1.4-3.2-3.2-3.2z"/><path opacity=".26" fill="#231F20" d="M12 17.5c-1.3 0-2.5-.3-3.7-.8-.4-.7-.6-1.4-.6-2.1 0-1 .3-1.9.9-2.6.9.9 2.1 1.4 3.4 1.4 1.3 0 2.5-.5 3.4-1.4.6.8.9 1.7.9 2.6 0 .7-.2 1.5-.6 2.1-1.2.5-2.4.8-3.7.8z"/><path fill="#231300" d="M15.3 12.7c.3.6.5 1.2.5 1.9 0 .6-.2 1.2-.4 1.8-1.1.4-2.2.6-3.4.6s-2.3-.2-3.4-.7c-.3-.6-.4-1.2-.4-1.8 0-.7.2-1.3.5-1.9.9.8 2.1 1.2 3.3 1.2 1.2 0 2.4-.4 3.3-1.1zm.1-1.5c-.8 1-2 1.7-3.4 1.7s-2.6-.7-3.4-1.7c-.9.9-1.4 2-1.4 3.4 0 .9.3 1.8.7 2.5 1.2.6 2.6.9 4 .9s2.8-.3 4-.9c.5-.7.7-1.6.7-2.5.2-1.3-.4-2.5-1.2-3.4z"/><path fill="#231F20" d="M13.8 21l-3.6-.9v.4c-3.4-.7-6.1-3.3-6.8-6.7-.9-4.4 1.9-8.8 6.2-10l-.3-1C4.5 4.1 1.5 9 2.4 13.9c.8 3.9 3.8 6.8 7.7 7.6v.5l3.7-1zm7.8-10.9c-.8-3.9-3.8-6.8-7.7-7.6V2l-3.6 1 3.6.9v-.4c3.4.7 6.1 3.3 6.8 6.7.9 4.4-1.8 8.7-6.1 10l.3.9c4.7-1.3 7.6-6.1 6.7-11z"/></svg>