<svg xmlns="http://www.w3.org/2000/svg" viewBox="0 0 24 24"><g fill="#231F20"><path d="M21 3c-.1-.1-.2-.2-.3-.2-.7-.5-2-.8-3.6-.8-.9 0-1.9.1-3 .3-1 .2-2.1.5-3.1 1C9.3 4 7.7 5 6.3 6.4c-1.2 1.2-2.1 2.6-2.8 4-.5 1.1-.9 2.3-1.2 3.5-.5 2.7-.3 5.1.3 6.5.1.2.3.4.4.6.6.6 2.1 1 3.9 1 .7 0 1.5-.1 2.3-.2 1-.1 2-.4 3.1-.8 1.9-.7 3.8-1.8 5.4-3.4 1.5-1.5 2.5-3.2 3.2-4.9.5-1.1.8-2.3.9-3.4.5-2.8.1-5.4-.8-6.3zm-3.9-.5c1.2 0 2.2.2 2.9.5-.3.5-.6 1-.9 1.4-.8-.7-1.8-1.4-2.7-1.8.1-.1.4-.1.7-.1zM6.7 6.7C7.9 5.5 9.4 4.6 11 3.8c2.4.3 4.5 1.4 6.2 3.1-.4.6-.9 1.2-1.4 1.8-.2.2-.3.4-.6.7l-.1.1c-1.9 2.2-3.8 4.2-5.8 5.9l-.3.2c-.1.1-.2.2-.3.2-.6.5-1.3 1-1.9 1.4C5.2 15.4 4.2 13 4 10.5c.8-1.4 1.7-2.7 2.7-3.8zM2.9 19.6c-.3-.8-.4-2.1-.3-3.5.4 1 1 1.9 1.7 2.8-.5.2-.9.5-1.4.7zm4 1.9c-2 0-3.1-.5-3.5-.8l-.1-.1c.6-.3 1.2-.6 1.7-.9.7.7 1.4 1.3 2.3 1.8h-.4zm2.3-.2c-1.4-.6-2.7-1.5-3.7-2.6-1.2-1.3-2.1-3-2.6-4.8.1-.5.2-1 .4-1.4.5 2.2 1.6 4.2 3.1 5.8 1.2 1.2 2.5 2.1 4.1 2.8-.4 0-.8.1-1.3.2zm8.1-4c-1.4 1.4-3.1 2.4-5 3.2-1.8-.4-3.3-1.3-4.7-2.5.6-.4 1.2-.9 1.8-1.3l.3-.3.2-.2c2.1-1.8 4.1-3.7 6-6 .1-.1.1-.1.1-.2.2-.2.4-.5.6-.7.4-.5.8-1.1 1.2-1.6 1.2 1.4 2 3.1 2.3 5-.5 1.8-1.5 3.3-2.8 4.6zm3.6-6.4c-.5-1.6-1.4-3.1-2.6-4.4-1.5-1.6-3.3-2.8-5.4-3.4.4-.1.8-.2 1.1-.3 1.7.5 3.4 1.4 4.7 2.7 1.1 1.1 1.9 2.4 2.5 3.9l-.3 1.5zm.5-3.5c-.5-.8-1-1.6-1.7-2.3.3-.5.7-1 1-1.5.5.7.8 2.1.7 3.8z"/><path d="M15.366 9.123l.92.918-6.207 6.236-.922-.917z"/><path d="M14.505 7.987l2.938 2.714-.272.294-2.938-2.715zm-.812.943l2.91 2.743-.273.29-2.912-2.743zm-.889.874l2.883 2.772-.277.289-2.883-2.773zm-.887.874l2.855 2.802-.28.285-2.855-2.801zm-.885.875l2.827 2.83-.283.283-2.827-2.83zm-.888.875l2.799 2.858-.286.28-2.798-2.858zm-.886.873l2.77 2.886-.29.277-2.77-2.886zm-.886.875l2.741 2.914-.291.274L8.08 14.45z"/></g></svg>