<?xml version="1.0" encoding="utf-8"?>
<!-- Generator: Adobe Illustrator 17.1.0, SVG Export Plug-In . SVG Version: 6.00 Build 0)  -->
<!DOCTYPE svg PUBLIC "-//W3C//DTD SVG 1.1//EN" "http://www.w3.org/Graphics/SVG/1.1/DTD/svg11.dtd">
<svg version="1.1" id="Layer_30" xmlns="http://www.w3.org/2000/svg" xmlns:xlink="http://www.w3.org/1999/xlink" x="0px" y="0px"
	 width="24px" height="24px" viewBox="0 0 24 24" enable-background="new 0 0 24 24" xml:space="preserve">
<g>
	<path d="M2,11.7c0.1-0.1,0.1-0.2,0.2-0.4c0.2-0.4,0.5-0.7,0.9-0.9c0.1,0,0.2-0.1,0.3-0.1c0.4,0,0.7,0,1.1,0c0-0.1,0-0.3,0-0.4
		c0-0.2,0-0.3,0-0.5c0-0.1,0-0.2,0.2-0.2c0.2,0,0.4,0,0.6,0c0.1,0,0.2,0.1,0.2,0.2c0,0.2,0,0.3,0,0.5c0,0.1,0,0.2,0,0.4
		c0.1,0,0.1,0,0.1,0c1.4,0,2.9,0,4.3,0c0.1,0,0.1,0,0.2,0c0.3,0.1,0.5,0.3,0.7,0.5c0.3,0.3,0.4,0.7,0.4,1.2c0,1.6,0,3.2,0,4.8
		c0,1.4,0,2.8,0,4.1c0,0.2,0,0.4,0,0.6c0,0.2,0,0.2-0.2,0.3c-0.3,0-0.7,0-1,0c-2.3,0-4.6,0-6.8,0c-0.2,0-0.4-0.1-0.5-0.2
		c-0.3-0.2-0.6-0.5-0.7-0.8c0-0.1-0.1-0.1-0.1-0.2C2,17.7,2,14.7,2,11.7z M6.2,20.3C6.2,20.3,6.2,20.3,6.2,20.3c0.8,0,1.5,0,2.2,0
		c0.4,0,0.8,0,1.2,0c0.2,0,0.2-0.1,0.3-0.3c0,0,0-0.1,0-0.1c0-0.4,0-0.7,0-1.1c0-2,0-4,0-6c0-0.2-0.2-0.3-0.3-0.3
		c-1.9,0-3.8,0-5.7,0c-0.2,0-0.3,0.2-0.3,0.3c0,2.4,0,4.7,0,7.1c0,0.2,0.2,0.4,0.3,0.4c0.2,0,0.5,0,0.7,0c0-0.1,0-0.1,0-0.1
		c0-1,0-1.9,0-2.9c0-0.2,0.1-0.3,0.2-0.3c0.1,0,0.1,0,0.2,0c0.2,0,0.4,0,0.7,0c0.2,0,0.3,0,0.4,0.2c0,0.1,0.1,0.1,0.1,0.2
		c0,0.9,0,1.9,0,2.8C6.2,20.2,6.2,20.3,6.2,20.3z"/>
	<path d="M22,8.9C22,8.9,22,8.9,22,8.9c-0.1,0.3-0.1,0.4-0.4,0.4c0,0-0.1,0-0.2,0c0,0.1,0,0.1,0,0.2c0,3.7,0,7.4,0,11.1
		c0,0.1,0,0.2-0.1,0.2c0,0.1-0.1,0.2-0.1,0.3c-0.2,0.3-0.4,0.6-0.7,0.8c-0.2,0.1-0.4,0.2-0.7,0.2c-0.5,0-1,0-1.5,0
		c-0.1,0-0.2,0-0.4,0c-0.1,0-0.2-0.1-0.2-0.2c0-0.4,0-0.8,0-1.2c0,0,0-0.1,0-0.1c0-0.1,0.1-0.1,0.1-0.1c0.3,0,0.6,0,0.8,0
		c0.2,0,0.5,0,0.7,0c0.1,0,0.3,0,0.4-0.2c0,0,0-0.1,0-0.1c0,0,0,0,0-0.1c0-3.5,0-6.9,0-10.4c0-0.2-0.1-0.3-0.3-0.3
		c-0.1,0-0.3,0-0.4,0c-0.4,0-0.8,0-1.1,0c0,0-0.1,0-0.1,0c-0.1,0-0.2-0.1-0.2-0.2c0-0.1,0-0.2,0-0.3c0-0.9,0-1.8,0-2.8
		c0-0.1,0-0.3,0-0.4c0-0.1,0.1-0.2,0.2-0.2c0.1,0,0.2,0,0.3,0c0.7,0,1.3,0,2,0c0.4,0,0.7,0.1,1,0.3C21.7,6,22,6.5,22,7.1
		c0,0,0,0.1,0,0.1C22,7.8,22,8.3,22,8.9z"/>
	<path d="M6.7,9.2C6.7,9.2,6.7,9.1,6.7,9.2c0-1.9,0-3.7,0-5.5c0-0.8,0.4-1.4,1.1-1.7C8,2,8.1,2,8.2,2c1.1,0,2.1,0,3.2,0
		c1.3,0,2.6,0,3.9,0c0.1,0,0.2,0,0.3,0.1c0.2,0.1,0.5,0.3,0.7,0.5c0.3,0.3,0.4,0.7,0.4,1.2c0,1.7,0,3.5,0,5.2c0,4.1,0,8.1,0,12.2
		c0,0.2,0,0.4,0,0.7c0,0.2,0,0.2-0.2,0.2c-0.2,0-0.3,0-0.5,0c-1.1,0-2.1,0-3.2,0c-0.3,0-0.2,0-0.2-0.2c0-0.8,0-1.7,0-2.5
		c0-2.2,0-4.5,0-6.7c0-0.4,0-0.7-0.1-1.1c-0.2-1-0.7-1.6-1.6-2c-0.3-0.1-0.7-0.1-1-0.2c-1,0-2,0-3,0C6.8,9.2,6.8,9.2,6.7,9.2z
		 M12.5,4.5C12.5,4.5,12.5,4.5,12.5,4.5c0-0.2,0-0.4,0-0.6c0-0.2,0-0.2-0.2-0.2c-0.4,0-0.7,0-1.1,0c-0.2,0-0.2,0.1-0.2,0.3
		c0,0.4,0,0.8,0,1.2c0,0.1,0.1,0.1,0.1,0.2c0.4,0.1,0.8,0.1,1.2,0c0.1,0,0.2,0,0.2-0.2C12.5,4.9,12.5,4.7,12.5,4.5z M12.5,7.3
		C12.5,7.3,12.5,7.3,12.5,7.3c0-0.2,0-0.4,0-0.6c0-0.2,0-0.2-0.2-0.2c-0.4,0-0.7,0-1.1,0c-0.2,0-0.2,0.1-0.3,0.2c0,0.4,0,0.8,0,1.1
		c0,0.2,0,0.2,0.2,0.2c0.4,0,0.8,0,1.1,0c0.2,0,0.2-0.1,0.2-0.2C12.5,7.6,12.5,7.4,12.5,7.3z M9.9,4.5C9.9,4.5,9.9,4.5,9.9,4.5
		c0-0.2,0-0.4,0-0.6c0-0.1-0.1-0.2-0.2-0.2c-0.4,0-0.7,0-1.1,0c-0.2,0-0.2,0.1-0.2,0.3c0,0.4,0,0.8,0,1.2c0,0.1,0.1,0.2,0.2,0.2
		c0.4,0.1,0.8,0.1,1.2,0c0.1,0,0.2-0.1,0.2-0.2C9.9,4.8,9.9,4.7,9.9,4.5z M9.9,7.3C9.9,7.3,9.9,7.3,9.9,7.3c0-0.2,0-0.4,0-0.5
		c0-0.2,0-0.3-0.2-0.3c-0.3,0-0.7,0-1,0c-0.2,0-0.3,0.1-0.3,0.3c0,0.4,0,0.7,0,1.1c0,0.2,0,0.2,0.2,0.2c0.4,0,0.8,0,1.1,0
		c0.2,0,0.2,0,0.2-0.2C9.9,7.6,9.9,7.4,9.9,7.3z M15.1,4.5C15.1,4.5,15.1,4.5,15.1,4.5c0-0.2,0-0.5,0-0.7c0-0.1,0-0.2-0.1-0.2
		c-0.4,0-0.8,0-1.1,0c-0.2,0-0.2,0.1-0.2,0.3c0,0.4,0,0.7,0,1.1c0,0.2,0.1,0.2,0.2,0.2c0.4,0,0.8,0,1.1,0c0.1,0,0.2-0.1,0.2-0.2
		C15.1,4.9,15.1,4.7,15.1,4.5z M15.1,18.4C15.1,18.4,15.1,18.4,15.1,18.4c0-0.2,0-0.5,0-0.7c0-0.1,0-0.2-0.1-0.2c-0.4,0-0.8,0-1.1,0
		c-0.2,0-0.2,0.1-0.2,0.3c0,0.4,0,0.8,0,1.1c0,0.2,0.1,0.2,0.2,0.2c0.4,0,0.8,0,1.2,0c0.1,0,0.1-0.1,0.1-0.2
		C15.1,18.8,15.1,18.6,15.1,18.4z M15.1,15.6C15.1,15.6,15.1,15.6,15.1,15.6c0-0.1,0-0.3,0-0.4c0,0,0,0,0-0.1c0-0.3,0-0.3-0.3-0.4
		c-0.3,0-0.7,0-1,0c-0.2,0-0.2,0.1-0.2,0.3c0,0.4,0,0.7,0,1.1c0,0.2,0.1,0.2,0.2,0.2c0.4,0,0.8,0,1.2,0c0.1,0,0.1,0,0.2-0.2
		C15.1,16,15.1,15.8,15.1,15.6z M15.1,7.3C15.1,7.3,15.1,7.3,15.1,7.3c0-0.2,0-0.4,0-0.7c0-0.1,0-0.2-0.2-0.2c-0.4,0-0.8,0-1.1,0
		c-0.2,0-0.2,0.1-0.2,0.3c0,0.4,0,0.8,0,1.1c0,0.2,0.1,0.2,0.2,0.2c0.4,0,0.8,0,1.2,0c0.1,0,0.1-0.1,0.1-0.2
		C15.1,7.7,15.1,7.5,15.1,7.3z M15.1,12.9C15.1,12.9,15.1,12.9,15.1,12.9c0-0.2,0-0.5,0-0.7c0-0.1,0-0.1-0.1-0.1c-0.4,0-0.8,0-1.2,0
		c-0.2,0-0.2,0.1-0.2,0.3c0,0.4,0,0.7,0,1.1c0,0.2,0.1,0.2,0.2,0.2c0.4,0,0.8,0,1.2,0c0.1,0,0.1-0.1,0.1-0.2
		C15.1,13.3,15.1,13.1,15.1,12.9z M15.1,10.1C15.1,10.1,15.1,10.1,15.1,10.1c0-0.2,0-0.5,0-0.7c0-0.1-0.1-0.2-0.1-0.2
		c-0.4,0-0.7,0-1.1,0c-0.2,0-0.3,0.1-0.3,0.3c0,0.4,0,0.8,0,1.1c0,0.2,0.1,0.2,0.2,0.2c0.4,0,0.8,0,1.2,0c0.1,0,0.1-0.1,0.1-0.2
		C15.1,10.5,15.1,10.3,15.1,10.1z"/>
	<path d="M18.8,11.5c0,0.2,0,0.5,0,0.7c0,0.2-0.1,0.4-0.3,0.4c-0.2,0-0.4,0-0.6,0c-0.1,0-0.1-0.1-0.1-0.1c0-0.1,0-0.1,0-0.2
		c0-0.6,0-1.1,0-1.7c0-0.1,0-0.1,0.1-0.2c0.2,0,0.4,0,0.6,0c0.2,0,0.3,0.1,0.3,0.3C18.8,11,18.8,11.2,18.8,11.5
		C18.8,11.5,18.8,11.5,18.8,11.5z"/>
	<path d="M17.8,14.8c0-0.3,0-0.6,0-0.8c0-0.2,0.1-0.3,0.3-0.3c0.1,0,0.3,0,0.4,0c0.1,0,0.2,0.1,0.2,0.1c0.1,0.1,0.1,0.2,0.1,0.3
		c0,0.5,0,0.9,0,1.4c0,0.1,0,0.1,0,0.2c0,0.1-0.1,0.2-0.3,0.2c-0.2,0-0.4,0-0.6,0c-0.1,0-0.2,0-0.2-0.2
		C17.8,15.4,17.8,15.1,17.8,14.8C17.8,14.8,17.8,14.8,17.8,14.8z"/>
	<path d="M17.8,18.1c0-0.3,0-0.6,0-0.8c0-0.2,0-0.3,0.3-0.3c0.2,0,0.3,0,0.5,0c0.1,0,0.2,0.1,0.2,0.3c0,0.2,0,0.5,0,0.7
		c0,0.3,0,0.6,0,0.9c0,0.2-0.1,0.3-0.3,0.3c-0.2,0-0.4,0-0.6,0c-0.1,0-0.1-0.1-0.1-0.2C17.8,18.7,17.8,18.4,17.8,18.1
		C17.8,18.1,17.8,18.1,17.8,18.1z"/>
	<path d="M7.3,18.1c0-0.3,0-0.5,0-0.8c0-0.2,0.1-0.3,0.3-0.3c0.3,0,0.7,0,1,0c0,0,0,0,0.1,0c0.1,0.1,0.2,0.3,0.2,0.5
		c0,0.4,0,0.8,0,1.3c0,0,0,0.1,0,0.1c0,0.3-0.1,0.3-0.3,0.3c-0.3,0-0.6,0-0.8,0c-0.3,0-0.3-0.1-0.4-0.4C7.3,18.6,7.3,18.3,7.3,18.1
		C7.3,18.1,7.3,18.1,7.3,18.1z"/>
	<path d="M8.8,14.8c0,0.3,0,0.5,0,0.8c0,0.1-0.1,0.3-0.2,0.3c-0.3,0-0.7,0-1,0c-0.2,0-0.2-0.1-0.3-0.3c0-0.1,0-0.2,0-0.3
		c0-0.4,0-0.8,0-1.2c0-0.1,0-0.3,0.2-0.3c0.1,0,0.1,0,0.2,0c0.3,0,0.6,0,0.9,0c0.2,0,0.3,0.1,0.3,0.3c0,0,0,0.1,0,0.1
		C8.8,14.3,8.8,14.6,8.8,14.8C8.8,14.8,8.8,14.8,8.8,14.8z"/>
	<path d="M4.6,14.8c0-0.3,0-0.5,0-0.8c0-0.2,0.1-0.3,0.3-0.3c0.3,0,0.6,0,1,0c0.1,0,0.2,0.1,0.3,0.3c0,0,0,0.1,0,0.1
		c0,0.5,0,1,0,1.5c0,0.2-0.1,0.3-0.3,0.3c-0.3,0-0.6,0-0.9,0c-0.3,0-0.3-0.2-0.3-0.3C4.6,15.3,4.6,15,4.6,14.8
		C4.6,14.8,4.6,14.8,4.6,14.8z"/>
</g>
</svg>
