<svg xmlns="http://www.w3.org/2000/svg" width="24" height="24"><path d="M2 11.7c.1-.1.1-.2.2-.4.2-.4.5-.7.9-.9.1 0 .2-.1.3-.1h1.1v-.9c0-.1 0-.2.2-.2h.6c.1 0 .2.1.2.2v.9h4.6c.3.1.5.3.7.5.3.3.4.7.4 1.2v9.5c0 .2 0 .2-.2.3H3.2c-.2 0-.4-.1-.5-.2-.3-.2-.6-.5-.7-.8 0-.1-.1-.1-.1-.2.1-2.9.1-5.9.1-8.9zm4.2 8.6h3.4c.2 0 .2-.1.3-.3v-7.2c0-.2-.2-.3-.3-.3H3.9c-.2 0-.3.2-.3.3v7.1c0 .2.2.4.3.4h.7v-3c0-.2.1-.3.2-.3h.9c.2 0 .3 0 .4.2 0 .1.1.1.1.2v2.9zM22 8.9c-.1.3-.1.4-.4.4h-.2v11.3c0 .1 0 .2-.1.2 0 .1-.1.2-.1.3-.2.3-.4.6-.7.8-.2.1-.4.2-.7.2h-1.9c-.1 0-.2-.1-.2-.2v-1.3c0-.1.1-.1.1-.1h1.5c.1 0 .3 0 .4-.2V9.7c0-.2-.1-.3-.3-.3h-1.6c-.1 0-.2-.1-.2-.2V5.7c0-.1.1-.2.2-.2h2.3c.4 0 .7.1 1 .3.6.2.9.7.9 1.3v1.8z"/><path d="M6.7 9.2s0-.1 0 0V3.7c0-.8.4-1.4 1.1-1.7h7.5c.1 0 .2 0 .3.1.2.1.5.3.7.5.3.3.4.7.4 1.2v18.1c0 .2 0 .2-.2.2h-3.7c-.3 0-.2 0-.2-.2v-9.2c0-.4 0-.7-.1-1.1-.2-1-.7-1.6-1.6-2-.3-.1-.7-.1-1-.2h-3c-.1-.2-.1-.2-.2-.2zm5.8-4.7v-.6c0-.2 0-.2-.2-.2h-1.1c-.2 0-.2.1-.2.3v1.2c0 .1.1.1.1.2.4.1.8.1 1.2 0 .1 0 .2 0 .2-.2v-.7zm0 2.8v-.6c0-.2 0-.2-.2-.2h-1.1c-.2 0-.2.1-.3.2v1.1c0 .2 0 .2.2.2h1.1c.2 0 .2-.1.2-.2.1-.2.1-.4.1-.5zM9.9 4.5v-.6c0-.1-.1-.2-.2-.2H8.6c-.2 0-.2.1-.2.3v1.2c0 .1.1.2.2.2.4.1.8.1 1.2 0 .1 0 .2-.1.2-.2-.1-.4-.1-.5-.1-.7zm0 2.8v-.5c0-.2 0-.3-.2-.3h-1c-.2 0-.3.1-.3.3v1.1c0 .2 0 .2.2.2h1.1c.2 0 .2 0 .2-.2v-.6zm5.2-2.8v-.7c0-.1 0-.2-.1-.2h-1.1c-.2 0-.2.1-.2.3V5c0 .2.1.2.2.2H15c.1 0 .2-.1.2-.2-.1-.1-.1-.3-.1-.5zm0 13.9v-.7c0-.1 0-.2-.1-.2h-1.1c-.2 0-.2.1-.2.3v1.1c0 .2.1.2.2.2h1.2c.1 0 .1-.1.1-.2-.1-.1-.1-.3-.1-.5zm0-2.8v-.5c0-.3 0-.3-.3-.4h-1c-.2 0-.2.1-.2.3v1.1c0 .2.1.2.2.2H15c.1 0 .1 0 .2-.2-.1-.1-.1-.3-.1-.5zm0-8.3v-.7c0-.1 0-.2-.2-.2h-1.1c-.2 0-.2.1-.2.3v1.1c0 .2.1.2.2.2H15c.1 0 .1-.1.1-.2v-.5zm0 5.6v-.7c0-.1 0-.1-.1-.1h-1.2c-.2 0-.2.1-.2.3v1.1c0 .2.1.2.2.2H15c.1 0 .1-.1.1-.2v-.6zm0-2.8v-.7c0-.1-.1-.2-.1-.2h-1.1c-.2 0-.3.1-.3.3v1.1c0 .2.1.2.2.2H15c.1 0 .1-.1.1-.2v-.5zm3.7 1.4v.7c0 .2-.1.4-.3.4h-.6c-.1 0-.1-.1-.1-.1v-1.9c0-.1 0-.1.1-.2h.6c.2 0 .3.1.3.3v.8zm-1 3.3V14c0-.2.1-.3.3-.3h.4c.1 0 .2.1.2.1.1.1.1.2.1.3v1.6c0 .1-.1.2-.3.2h-.6c-.1 0-.2 0-.2-.2.1-.3.1-.6.1-.9zm0 3.3v-.8c0-.2 0-.3.3-.3h.5c.1 0 .2.1.2.3v1.6c0 .2-.1.3-.3.3h-.6c-.1 0-.1-.1-.1-.2v-.9zm-10.5 0v-.8c0-.2.1-.3.3-.3h1.1c.1.1.2.3.2.5v1.4c0 .3-.1.3-.3.3h-.8c-.3 0-.3-.1-.4-.4-.1-.2-.1-.5-.1-.7z"/><path d="M8.8 14.8v.8c0 .1-.1.3-.2.3h-1c-.2 0-.2-.1-.3-.3v-1.5c0-.1 0-.3.2-.3h1.1c.2 0 .3.1.3.3v.1c-.1.1-.1.4-.1.6zm-4.2 0V14c0-.2.1-.3.3-.3h1c.1 0 .2.1.3.3v1.6c0 .2-.1.3-.3.3H5c-.3 0-.3-.2-.3-.3-.1-.3-.1-.6-.1-.8z"/></svg>