<svg xmlns="http://www.w3.org/2000/svg" viewBox="0 0 24 24"><path d="M18.1 15l-.9-.9-.9-.9s-.1-.1 0-.2c.8-2.8-1-5.6-3.8-6.2-2.7-.5-5.2 1.2-5.8 3.9-.6 2.7 1.2 5.4 3.9 5.8 1 .2 1.9.1 2.8-.3h.1l1.8 1.8h-.1c-.5.3-1 .5-1.5.7-.1 0-.1.1-.1.1-.1.6-.2 1.1-.2 1.7 0 .3-.3.5-.6.6H11c-.4 0-.7-.2-.8-.6-.1-.5-.2-1.1-.3-1.6 0-.1 0-.1-.1-.1-.6-.1-1.2-.4-1.7-.7h-.2c-.4.3-.9.7-1.3 1-.3.3-.7.2-1-.1-.4-.4-.8-.7-1.2-1.1-.3-.3-.3-.6-.1-1 .3-.5.6-.9.9-1.4v-.2c-.3-.5-.6-1.1-.8-1.7 0-.1 0-.1-.1-.1-.6-.1-1.1-.2-1.7-.2-.4-.1-.6-.3-.6-.7 0-.6 0-1.1-.1-1.7 0-.4.2-.7.6-.8.5-.1 1-.2 1.6-.3.1 0 .1 0 .1-.1.3-.3.5-.9.8-1.5V8c-.4-.4-.7-.8-1-1.3-.3-.3-.3-.6 0-.9.4-.4.8-.8 1.1-1.2.3-.3.6-.3 1-.1.5.2.9.5 1.4.8h.2c.5-.3 1-.5 1.6-.7.1 0 .1-.1.1-.1.1-.6.2-1.1.2-1.7 0-.3.3-.6.6-.6h1.9c.3 0 .6.2.7.5.1.6.2 1.1.3 1.7 0 .1 0 .1.1.1.6.1 1.2.4 1.8.7h.1c.4-.3.9-.7 1.3-1 .3-.3.7-.2 1 .1.4.4.8.8 1.2 1.1.3.3.3.6.1 1-.3.5-.6.9-.9 1.4V8c.3.5.6 1.1.8 1.7 0 .1.1.1.2.1.6.1 1.1.1 1.7.2.3 0 .6.3.6.7 0 .6 0 1.2.1 1.7 0 .4-.2.7-.6.7-.5.1-1.1.2-1.6.3-.1 0-.1 0-.1.1-.3.5-.5 1-.8 1.5.1 0 .1 0 0 0z"/><path d="M9.2 11.4c.4.3.9.6 1.3.8.3.2.6.2 1 0 .4-.3.7-.7.7-1.2 0-.4-.1-.7-.4-.9-.4-.3-.8-.5-1.2-.8h-.1c.1 0 .1-.1.1-.1.9-.4 1.8-.4 2.6.1.6.3 1 .8 1.1 1.5.1.4 0 .7 0 1.1-.1.3-.1.7.2.9l.1.1c2.3 2.3 4.6 4.7 7 7 .2.2.3.4.4.7.1.7-.5 1.3-1.2 1.3-.3 0-.6-.1-.8-.3l-.3-.3c-2.2-2.3-4.5-4.5-6.7-6.8-.3-.3-.7-.4-1.1-.3-.7.2-1.3 0-1.8-.4-.6-.4-.9-1-1-1.7v-.4c0-.1 0-.2.1-.3zm11.7 10c.3 0 .6-.3.6-.6s-.3-.6-.6-.6-.6.3-.6.6c-.1.3.2.6.6.6z"/></svg>