<?xml version="1.0" encoding="utf-8"?>
<!-- Generator: Adobe Illustrator 17.1.0, SVG Export Plug-In . SVG Version: 6.00 Build 0)  -->
<!DOCTYPE svg PUBLIC "-//W3C//DTD SVG 1.1//EN" "http://www.w3.org/Graphics/SVG/1.1/DTD/svg11.dtd">
<svg version="1.1" id="Layer_30" xmlns="http://www.w3.org/2000/svg" xmlns:xlink="http://www.w3.org/1999/xlink" x="0px" y="0px"
	 viewBox="0 0 24 24" enable-background="new 0 0 24 24" xml:space="preserve">
<g>
	<path d="M7.2,18.2c-1.1,0-2.3,0-3.4,0c-0.4,0-0.7-0.1-0.9-0.4c-0.1-0.1-0.2-0.3-0.3-0.4c-0.1-0.1-0.1-0.2-0.1-0.4
		c0-0.4,0-0.7,0-1.1c0-0.1,0-0.1,0-0.2c0-3.5,0-7.1,0-10.6c0-0.2,0-0.3,0-0.5c0-0.6,0.6-1.3,1.3-1.3c0.7,0,1.4,0,2.1,0
		c0,0,0.1,0,0.1,0c0,0,0,0.1,0,0.1c0,0.2,0,0.4,0,0.6c0,0.5,0,1.1,0,1.6c0,0.2,0,0.4,0.2,0.6c0.3,0.5,1.1,0.5,1.4,0.2
		c0.1-0.1,0.2-0.2,0.3-0.4C7.9,6.1,7.9,6,7.9,5.9c0-0.8,0-1.6,0-2.4c0,0,0-0.1,0-0.1c1.5,0,2.9,0,4.4,0c0,0.4,0,0.8,0,1.2
		c0,0.4,0,0.9,0,1.3c0,0.1,0,0.2,0.1,0.3c0.3,0.7,1.2,0.8,1.6,0.2c0.1-0.1,0.1-0.2,0.2-0.3c0-0.1,0.1-0.1,0.1-0.2c0-0.8,0-1.6,0-2.5
		c0,0,0-0.1,0-0.1c0,0,0.1,0,0.1,0c0.7,0,1.4,0,2.1,0c0.2,0,0.3,0,0.5,0.1c0.3,0.2,0.6,0.4,0.7,0.7c0.1,0.2,0.1,0.5,0.1,0.7
		c0,1.9,0,2.9,0,4.7c0,0,0,0,0,0.1c0,0-0.2-0.1-0.3-0.1c-0.1,0-0.1,0-0.4-0.1c-0.3-0.1-0.1,0-0.3-0.1c0,0,0-1.3,0-1.4
		c0-0.1,0,0,0-0.1c-4.4,0-8.8,0-13.2,0c0,0,0,0.1,0,0.1c0,2,0,5.3,0,7.3c0,0.5,0,0.9,0,1.4c0,0.3,0.3,0.6,0.6,0.6c0.3,0,0.5,0,0.8,0
		c2,0,1.8,0,3.9,0c0.1,0,0.1,0,0.1,0c0.1,0.7,0.2,0.8,0.3,1"/>
	<path d="M13.3,2c0,0,0.1,0,0.1,0c0.3,0.1,0.5,0.3,0.6,0.5c0,0,0,0.1,0,0.1c0,1,0,2.1,0,3.1c0,0.2-0.3,0.6-0.5,0.6
		c-0.4,0.1-0.7-0.1-0.9-0.5c0,0,0-0.1,0-0.1c0-1,0-2.1,0-3.1c0-0.2,0.1-0.4,0.3-0.5C13,2.1,13.1,2,13.3,2C13.2,2,13.2,2,13.3,2z"/>
	<path d="M6.9,2C6.9,2,7,2,7,2c0.3,0.1,0.5,0.3,0.6,0.5c0,0,0,0.1,0,0.1c0,1,0,2.1,0,3.1c0,0.2-0.3,0.6-0.5,0.6
		C6.7,6.5,6.3,6.3,6.2,5.9c0,0,0-0.1,0-0.1c0-1,0-2.1,0-3.1c0-0.3,0.1-0.4,0.3-0.6C6.6,2.1,6.7,2,6.9,2C6.9,2,6.9,2,6.9,2z"/>
	<path d="M6.9,14.5c0,0.6,0,1.2,0,1.8c-0.6,0-1.2,0-1.8,0c0-0.6,0-1.2,0-1.8C5.7,14.5,6.3,14.5,6.9,14.5z M6.6,16
		C6.6,16,6.6,15.9,6.6,16c0-0.4,0-0.7,0-1c0-0.1,0-0.1-0.1-0.1c-0.3,0-0.6,0-1,0c0,0-0.1,0-0.1,0c0,0.4,0,0.8,0,1.1
		C5.8,16,6.2,16,6.6,16z"/>
	<path d="M9.1,13.7C9.1,13.7,9.1,13.6,9.1,13.7c-0.3-0.1-0.7-0.1-1-0.1c0-0.4,0-0.7,0-1.1c0.4,0,0.8,0,1.1,0c0,0.3,0,0.7,0,1
		c0,0,0,0,0-0.1c0.1-0.2,0.2-0.4,0.3-0.6c0,0,0-0.1,0-0.1c0-0.2,0-0.4,0-0.5c-0.6,0-1.2,0-1.8,0c0,0.6,0,1.2,0,1.8
		c0.4,0,0.9,0,1.3,0C9.1,13.9,9.1,13.8,9.1,13.7z"/>
	<path d="M7.7,11.6c0-0.6,0-1.2,0-1.8c0.6,0,1.2,0,1.8,0c0,0.6,0,1.2,0,1.8C8.9,11.6,8.3,11.6,7.7,11.6z M8,11.2c0.4,0,0.8,0,1.1,0
		c0-0.4,0-0.8,0-1.1c-0.4,0-0.8,0-1.1,0C8,10.5,8,10.9,8,11.2z"/>
	<path d="M5.1,12.1c0.6,0,1.2,0,1.8,0c0,0.6,0,1.2,0,1.8c-0.6,0-1.2,0-1.8,0C5.1,13.4,5.1,12.8,5.1,12.1z M6.6,12.5
		c-0.4,0-0.8,0-1.1,0c0,0.4,0,0.8,0,1.1c0,0,0,0,0,0c0.4,0,0.7,0,1.1,0c0.1,0,0.1,0,0.1-0.1c0-0.2,0-0.4,0-0.6
		C6.6,12.8,6.6,12.7,6.6,12.5z"/>
	<path d="M5.1,11.6c0-0.6,0-1.2,0-1.8c0.6,0,1.2,0,1.8,0c0,0.6,0,1.2,0,1.8C6.3,11.6,5.7,11.6,5.1,11.6z M5.4,10.1
		c0,0.4,0,0.8,0,1.1c0.4,0,0.8,0,1.1,0c0-0.4,0-0.8,0-1.1C6.2,10.1,5.8,10.1,5.4,10.1z"/>
	<path d="M10.3,9.8c0.6,0,1.1,0,1.7,0c-0.2,0.1-0.3,0.2-0.5,0.3c-0.1,0-0.2,0-0.3,0c-0.2,0-0.4,0-0.6,0c0,0.1,0,0.1,0,0.1
		c0,0.2,0,0.4,0,0.6c0,0,0,0.1,0,0.1c-0.1,0.1-0.2,0.2-0.3,0.4C10.3,11.3,10.3,10,10.3,9.8z"/>
	<path d="M8.8,16.2c0-0.1,0-0.2,0-0.2c-0.3,0-0.5,0-0.8,0c0-0.4,0-0.7,0-1.1c0.3,0,0.5,0,0.8,0c0-0.1,0-0.1,0-0.2c0,0,0-0.1,0-0.1
		c-0.4,0-0.8,0-1.2,0c0,0.6,0,1.2,0,1.8c0.4,0,0.8,0,1.2,0C8.9,16.3,8.8,16.3,8.8,16.2z"/>
	<path fill="#010101" d="M15.6,22c-0.2,0-0.5,0-0.7,0c0,0-0.1,0-0.2,0c-0.2,0-0.4-0.1-0.6-0.1c-0.1,0-0.2-0.1-0.3-0.1
		c-0.1,0-0.2-0.1-0.3-0.1c-0.2-0.1-0.4-0.1-0.6-0.2c-0.1,0-0.2-0.1-0.3-0.1c0,0-0.1,0-0.1-0.1c-0.1,0-0.1-0.1-0.2-0.1
		c-0.1-0.1-0.2-0.1-0.3-0.2c0,0,0,0,0,0c-0.1-0.1-0.2-0.1-0.3-0.2c-0.1,0-0.1-0.1-0.2-0.1c0,0-0.1-0.1-0.1-0.1
		c-0.2-0.2-0.4-0.4-0.6-0.6c-0.1-0.1-0.1-0.2-0.2-0.2c-0.1-0.1-0.2-0.2-0.3-0.3c0-0.1-0.1-0.1-0.2-0.2c0,0,0-0.1-0.1-0.1
		c-0.1-0.2-0.3-0.4-0.4-0.6c-0.1-0.1-0.1-0.3-0.2-0.4c0-0.1-0.1-0.2-0.1-0.2c0-0.1-0.1-0.2-0.1-0.3c-0.1-0.2-0.1-0.4-0.2-0.6
		c0-0.1,0-0.2-0.1-0.3c0-0.1,0-0.2,0-0.3c0-0.1,0-0.2,0-0.3c0-0.1,0-0.2,0-0.3c0-0.1,0-0.2,0-0.3c0-0.1,0-0.2,0-0.3
		c0-0.1,0-0.2,0-0.3c0-0.1,0-0.2,0.1-0.3c0.1-0.2,0.1-0.4,0.2-0.6c0-0.1,0.1-0.2,0.1-0.3c0.1-0.2,0.2-0.4,0.3-0.6
		c0-0.1,0.1-0.2,0.1-0.3c0.1-0.1,0.2-0.3,0.2-0.4c0,0,0.1-0.1,0.1-0.1c0-0.1,0.1-0.1,0.1-0.2c0.2-0.2,0.4-0.5,0.6-0.7
		c0.3-0.3,0.5-0.5,0.8-0.7c0.1-0.1,0.2-0.1,0.3-0.2c0,0,0,0,0,0c0.1-0.1,0.2-0.1,0.3-0.2c0.1,0,0.1-0.1,0.2-0.1c0,0,0.1,0,0.1,0
		c0.1,0,0.2-0.1,0.3-0.1c0.2-0.1,0.4-0.1,0.6-0.2c0.1,0,0.2-0.1,0.3-0.1c0.1,0,0.2,0,0.3-0.1c0.1,0,0.3,0,0.4-0.1c0.1,0,0.2,0,0.3,0
		c0.3,0,0.5,0,0.8,0c0.1,0,0.1,0,0.2,0c0.2,0,0.4,0,0.6,0.1c0.1,0,0.2,0.1,0.3,0.1c0.1,0,0.2,0.1,0.3,0.1c0.1,0,0.2,0.1,0.3,0.1
		c0.1,0.1,0.2,0.1,0.3,0.1c0.1,0,0.2,0.1,0.3,0.1c0,0,0.1,0,0.1,0.1c0.1,0,0.1,0.1,0.2,0.1c0.1,0.1,0.2,0.1,0.3,0.2c0,0,0,0,0,0
		c0.1,0.1,0.2,0.1,0.3,0.2c0.2,0.2,0.4,0.3,0.6,0.5c0.3,0.3,0.6,0.6,0.8,0.9c0,0.1,0.1,0.1,0.1,0.2c0,0,0.1,0.1,0.1,0.1
		c0.1,0.2,0.2,0.4,0.4,0.6c0.1,0.2,0.2,0.4,0.3,0.6c0,0.1,0.1,0.2,0.1,0.3c0.1,0.2,0.1,0.4,0.2,0.6c0,0.1,0,0.2,0.1,0.3
		c0,0.1,0,0.2,0,0.3c0,0.1,0,0.2,0,0.3c0,0.1,0,0.2,0,0.3c0,0.1,0,0.2,0,0.3c0,0.1,0,0.2,0,0.3c0,0.1,0,0.2,0,0.3
		c0,0.1,0,0.2-0.1,0.3c-0.1,0.2-0.1,0.4-0.2,0.6c0,0.1-0.1,0.2-0.1,0.3c0,0.1-0.1,0.2-0.1,0.2c-0.1,0.1-0.1,0.3-0.2,0.4
		c-0.1,0.2-0.2,0.4-0.4,0.6c0,0,0,0.1-0.1,0.1c0,0.1-0.1,0.1-0.1,0.2c-0.1,0.1-0.2,0.2-0.3,0.3c-0.2,0.2-0.4,0.4-0.5,0.6
		c-0.1,0.1-0.2,0.2-0.3,0.3c0,0-0.1,0.1-0.1,0.1c-0.1,0-0.1,0.1-0.2,0.1c-0.1,0.1-0.2,0.1-0.3,0.2c0,0,0,0,0,0
		c-0.1,0.1-0.2,0.1-0.3,0.2c-0.1,0-0.1,0.1-0.2,0.1c0,0-0.1,0-0.1,0.1c-0.1,0-0.2,0.1-0.3,0.1c-0.2,0.1-0.4,0.1-0.6,0.2
		c-0.1,0-0.2,0.1-0.3,0.1c-0.1,0-0.2,0-0.3,0.1c-0.1,0-0.2,0-0.4,0.1c-0.1,0-0.1,0-0.2,0C15.7,22,15.6,22,15.6,22z M15.1,14.4
		c-0.1,0-0.2,0-0.4,0c-0.6,0-1.3,0.2-1.9,0.3c-1.1,0.3-2.2,0.7-3.3,1.1c0,0-0.1,0-0.1,0.1c0,0.3,0.1,0.7,0.1,1
		c0.2,1.1,0.8,2.1,1.6,2.9c0,0,0.1,0,0.1,0c0.5-0.4,0.9-0.8,1.4-1.1c0.9-0.8,1.8-1.5,2.7-2.3c0.5-0.4,0.9-0.9,1.4-1.3
		c0.1-0.1,0-0.1,0-0.1c-0.1-0.1-0.3-0.2-0.4-0.3C16,14.5,15.6,14.4,15.1,14.4z M15.2,21.4c0.1,0,0.2,0,0.4,0c0,0,0.1,0,0.1-0.1
		c0.2-0.5,0.5-0.9,0.7-1.4c0.3-0.8,0.6-1.5,0.9-2.3c0.1-0.5,0.2-1,0.2-1.6c0-0.3-0.1-0.6-0.2-0.9c0,0,0,0-0.1,0
		c-0.7,0.7-1.5,1.4-2.3,2.1c-1,0.9-2.1,1.8-3.2,2.6c-0.1,0-0.1,0.1,0,0.1C12.6,21,13.8,21.4,15.2,21.4z M9.5,15.4
		c0,0.1,0,0.1,0.1,0.1c0.7-0.3,1.4-0.5,2.1-0.7c0.9-0.3,1.8-0.5,2.7-0.6c0.5-0.1,1-0.1,1.4,0c0.4,0.1,0.9,0.2,1.2,0.5
		c0,0,0.1,0,0.1,0c0.2-0.2,0.3-0.3,0.5-0.5c0,0,0-0.1,0-0.1c-0.4-0.4-0.8-0.8-1.3-1.1c-0.8-0.5-1.6-0.8-2.5-1.1
		c-0.7-0.2-1.5-0.4-2.2-0.5c0,0-0.1,0-0.1,0c-0.7,0.6-1.2,1.4-1.6,2.2C9.7,14.2,9.6,14.8,9.5,15.4z M16,21.4
		C16,21.4,16,21.4,16,21.4c0.4-0.1,0.8-0.1,1.1-0.3c1-0.4,1.9-1,2.6-1.8c0-0.1,0.1-0.1,0.1-0.2c0-0.4-0.1-0.8-0.2-1.2
		c-0.2-0.9-0.5-1.7-0.9-2.5c-0.2-0.4-0.5-0.7-0.7-1.1c0,0-0.1,0-0.1,0c-0.2,0.2-0.3,0.3-0.5,0.5c0,0,0,0,0,0.1
		c0.1,0.1,0.1,0.2,0.2,0.3c0.2,0.5,0.2,0.9,0.1,1.4c-0.1,0.6-0.2,1.2-0.4,1.8c-0.3,0.8-0.6,1.5-0.9,2.2C16.2,20.9,16.1,21.2,16,21.4
		z M11.9,11.1C11.9,11.1,11.9,11.1,11.9,11.1c0.9,0.1,1.7,0.3,2.6,0.6c1.3,0.5,2.4,1.1,3.4,2.1c0,0,0.1,0,0.1,0
		c0.1-0.1,0.2-0.2,0.2-0.3c0,0,0-0.1,0-0.1c-0.3-0.4-0.6-0.9-0.9-1.3c-0.3-0.6-0.6-1.2-0.7-1.9c0,0,0-0.1-0.1-0.1
		C15.7,10,15,10,14.3,10.1c-0.6,0.1-1.2,0.3-1.8,0.6C12.3,10.8,12.1,10.9,11.9,11.1z M20.1,18.8c0.1-0.2,0.2-0.4,0.3-0.6
		c0.4-0.8,0.6-1.7,0.6-2.6c0-0.1,0-0.1-0.1-0.1c-0.4-0.2-0.8-0.4-1.1-0.6c-0.5-0.3-0.9-0.7-1.3-1.1c0,0-0.1,0-0.1,0
		c-0.1,0.1-0.2,0.2-0.2,0.3c0,0,0,0.1,0,0.1c0.7,0.9,1.2,1.9,1.6,3C19.9,17.7,20,18.2,20.1,18.8z M16.9,10.3c0.1,0.4,0.2,0.7,0.4,1
		c0.3,0.7,0.6,1.3,1.1,1.8c0.1,0.1,0.1,0.1,0.1,0c0.3-0.4,0.6-0.8,0.9-1.2c0-0.1,0-0.1,0-0.1c-0.5-0.5-1-0.9-1.7-1.2
		C17.5,10.5,17.2,10.3,16.9,10.3z M19.7,12.1C19.7,12.1,19.7,12.1,19.7,12.1c-0.3,0.5-0.6,0.9-1,1.3c0,0,0,0.1,0,0.1
		c0.1,0.1,0.3,0.3,0.4,0.4c0.5,0.5,1.1,0.8,1.7,1.1c0,0,0.1,0,0.1,0C20.8,14,20.4,13,19.7,12.1z"/>
</g>
</svg>
