<svg xmlns="http://www.w3.org/2000/svg" viewBox="0 0 24 24"><path d="M2.2 17.4l2.8-3c0-.2-.1-.3-.1-.5 0-.5.2-1.1.6-1.4L6.9 11c.2-.2.4-.3.7-.3-.1-.9-.3-2.8.1-3.8 1.5-2.4 2.2-3.5 3-3.7h.2c.5 0 1.3.3 1.6.6L14 2.2c.2-.2.6-.4 1-.4.2 0 .3 0 .4.1l1.1.9c.2.2.3.4.3.6.1-.1.3-.1.5-.1.3 0 .5.1.7.3l1 1c.3.3.4.7.2 1.1.2 0 .3.1.4.3l.9 1c.3.4.2.9 0 1.3.2 0 .3.1.4.2l.8 1c.3.5.1 1.1-.3 1.4l-1 1.1c-.5.6-1.7 2-3 3-1.5 1.1-3.2 1.9-3.6 2 0 .2-.1.5-.3.6L12 18.9c-.4.4-.9.6-1.4.6-.2 0-.4 0-.5-.1l-3 2.8-4.9-4.8zM7 21.3l2.3-2.2c-.1-.1-.2-.1-.3-.2l-3.6-3.6c-.1-.1-.2-.2-.2-.3L3 17.3l4 4zm2.8-2.6c.1.1.2.1.3.1.1 0 .1 0 .2.1h.3c.4 0 .7-.1 1-.4l1.4-1.4c.1-.1.2-.3.1-.5 0-.1-.1-.1-.1-.1l-5-5-.1-.1h-.2c-.1 0-.2 0-.3.1L6 12.9c-.3.3-.4.6-.4 1v.2c0 .1 0 .2.1.2v.1l.4-.4c.3-.3.8-.5 1.3-.5s.9.2 1.3.5l1.6 1.6c.7.7.7 1.9 0 2.6l-.5.5zm-.5-.5l.5-.5c.2-.2.4-.5.4-.8s-.1-.6-.4-.8l-1.6-1.6c-.2-.2-.5-.4-.8-.4-.3 0-.6.1-.8.3l-.6.5 3.3 3.3zm-1-7.3c.1 0 .1.1.2.1l4.9 4.9c.1.1.1.2.2.3.5-.2 2-.9 3.3-1.9 1-.7 1.9-1.8 2.6-2.5l.3-.4h.2l-1.2-1.2-1.6 1.5c-.4.4-.8.6-1.3.6s-1-.2-1.3-.6l-2.3-2.3c-.7-.7-.7-1.9 0-2.7l1.6-1.6-.7-.7s-.2.1-.5.3l-.2.1-.1.1c-.7.5-1.4 1.1-1.8 1.6l-.1.1-.5-.4.2-.2c.3-.3 1.2-1.4 1.9-1.9-.3-.2-.8-.4-1.2-.4h-.1c-.5.1-1.3 1.3-2.5 3.4-.4 1.1-.1 3.6 0 3.8zm4.4-3.6c-.2.2-.4.6-.4.9 0 .3.1.6.4.9l2.3 2.3c.2.2.6.4.9.4.3 0 .6-.1.9-.4l1.5-1.5h-.2l.1-.1-4-4.1-1.5 1.6zm7.6 3.6l.6-.6c.2-.2.3-.4.2-.6l-.7-.9s-.1-.1-.2-.1-.1 0-.2.1l-.8.8 1.1 1.3zm-1.7-1.8l1.3-1.3c.1-.1.2-.4.1-.5l-.9-1c-.1-.1-.2-.1-.2-.1-.1 0-.2 0-.2.1l-1.4 1.4 1.3 1.4zm-1.9-1.9l1.7-1.7c.2-.2.2-.4 0-.6l-1-1c-.1-.1-.1-.1-.2-.1s-.2.1-.3.1l-1.7 1.7 1.5 1.6zm-2-2L16 3.9c.1-.1.2-.2.2-.3 0-.1 0-.2-.1-.2l-1-.8H15c-.2 0-.4.1-.6.2L13.2 4h.1c.2 0 .2 0 .9.7l.5.5z"/></svg>