<svg xmlns="http://www.w3.org/2000/svg" viewBox="0 0 24 24"><g fill="#231F20"><path d="M7.3 16.2c-.1 0-.1 0-.2-.1s-.1-.2-.1-.3c0-.1 0-.1.1-.1l.2-.4c.2-.3.3-.6.5-.8.1-.2.2-.5.2-.8.1-.4.2-.8.2-1.3 0-.4 0-.9-.2-1.4-.2-.6-.6-1.2-.9-1.7-.1-.2-.3-.4-.5-.7l-.3-.3-.1-.1c-.1-.2-.1-.3 0-.4 0-.1.1-.1.2-.1l.1.1v-.1h.1c.4.2.8.4 1.1.6.3.3.7.5 1 .7.3.2.5.3.9.3h.2c.3 0 .6-.1.8-.2.3-.1.6-.3.8-.6.3-.3.5-.6.8-1l.4-.4c.1-.1.1-.1.2-.1h.1c.1 0 .2.2.2.3v.4l-.2.3c-.1.4-.2.8-.3 1.1-.2.7-.6 1.6-1 2.4-.4.8-.9 1.5-1.4 2.1-.5.6-1 1.2-1.5 1.6-.3.2-.5.4-.8.6l-.4.3h-.1c0 .1 0 .1-.1.1zM7.6 9c.4.5.8 1.1 1 1.9.2.6.2 1.1.2 1.6s-.1.9-.2 1.3c-.1.3-.1.6-.3.9-.1.1-.1.2-.2.3.1-.1.2-.1.3-.2.5-.4 1-.9 1.5-1.5s.9-1.3 1.3-2c.4-.8.7-1.6 1-2.4.1-.2.1-.4.2-.6-.1.2-.3.3-.4.5-.3.3-.7.6-1.1.7-.3.1-.6.2-1 .2h-.2c-.5 0-.8-.1-1.1-.3-.3-.2-.7-.5-1-.7-.1 0-.1-.1-.2-.1 0 .2.1.3.2.4z"/><path d="M7.3 16.2c-.1 0-.1 0-.2-.1s-.1-.2-.1-.3c0-.1 0-.1.1-.1l.2-.4c.2-.3.3-.6.5-.8.1-.2.2-.5.2-.8.1-.4.2-.8.2-1.3 0-.4 0-.9-.2-1.4-.2-.6-.6-1.2-.9-1.7-.1-.2-.3-.4-.5-.7l-.3-.3-.1-.1c-.1-.2-.1-.3 0-.4 0-.1.1-.1.2-.1l.1.1v-.1h.1c.4.2.8.4 1.1.6.3.3.7.5 1 .7.3.2.5.3.9.3h.2c.3 0 .6-.1.8-.2.3-.1.6-.3.8-.6.3-.3.5-.6.8-1l.4-.4c.1-.1.1-.1.2-.1h.1c.1 0 .2.2.2.3v.4l-.2.3c-.1.4-.2.8-.3 1.1-.2.7-.6 1.6-1 2.4-.4.8-.9 1.5-1.4 2.1-.5.6-1 1.2-1.5 1.6-.3.2-.5.4-.8.6l-.4.3h-.1c0 .1 0 .1-.1.1zM7.6 9c.4.5.8 1.1 1 1.9.2.6.2 1.1.2 1.6s-.1.9-.2 1.3c-.1.3-.1.6-.3.9-.1.1-.1.2-.2.3.1-.1.2-.1.3-.2.5-.4 1-.9 1.5-1.5s.9-1.3 1.3-2c.4-.8.7-1.6 1-2.4.1-.2.1-.4.2-.6-.1.2-.3.3-.4.5-.3.3-.7.6-1.1.7-.3.1-.6.2-1 .2h-.2c-.5 0-.8-.1-1.1-.3-.3-.2-.7-.5-1-.7-.1 0-.1-.1-.2-.1 0 .2.1.3.2.4z"/><path d="M11.7 16.1c-.1 0-.2-.1-.2-.2l-.1-.1c-.1-.1-.1-.2-.1-.3l-.1-.2c-.1-.4-.3-.8-.3-1.2 0-.5.1-1 .3-1.4.2-.3.5-.6 1-.8.3-.1.5-.1.8-.1h.6c.2 0 .3.1.5.1 0-.1-.1-.1-.1-.2-.8-1.3-1.2-2.4-1.2-3.5 0-.3 0-.7.1-1 0-.2.1-.5.4-.5.3 0 .3.3.4.5.2.6.4 1.2.7 1.8.1.2.2.4.3.5.2.3.4.5.6.7.4.3.7.4 1.1.4.2 0 .3 0 .5-.1.1 0 .5-.1.5-.1.1 0 .2 0 .2.1.1.1.1.2 0 .3l-.4 1c-.2.5-.4.9-.5 1.2-.2.3-.3.6-.5.9-.2.3-.5.5-.9.5-.2 0-.4 0-.6-.1l-.1-.1c-.4-.2-.8-.3-1.2-.5-.1.3-.3.3-.5.3-.3 0-.5.1-.6.4-.1.3-.1.6-.2.9l-.1.3c0 .1-.1.3-.1.3.1.1 0 .2-.2.2zm1.4-3.6c-.2 0-.5 0-.7.1-.3.1-.6.2-.7.5-.1.3-.2.7-.2 1.2 0 .3.1.5.2.8.1-.3.1-.5.2-.8.1-.5.5-.8 1-.8.3 0 .6 0 .8.1.4.1.8.3 1.2.5l.2.1c.1.1.3.1.4.1.2 0 .3-.1.4-.3.2-.2.3-.5.4-.8.2-.5.4-.9.5-1.3l.2-.5c-.2 0-.4.1-.5.1-.5 0-1-.2-1.5-.6-.3-.2-.5-.5-.7-.8l-.3-.6c-.2-.4-.4-.9-.6-1.3v.2c0 1 .4 2 1.2 3.2.1.1.2.3.3.4.1.1.2.3.3.4.1.1.1.2 0 .3-.1.1-.1.1-.2.1h-.1c-.4-.2-.8-.3-1.1-.4-.4.1-.6.1-.7.1z"/><path d="M11.7 16.1c-.1 0-.2-.1-.2-.2l-.1-.1c-.1-.1-.1-.2-.1-.3l-.1-.2c-.1-.4-.3-.8-.3-1.2 0-.5.1-1 .3-1.4.2-.3.5-.6 1-.8.3-.1.5-.1.8-.1h.6c.2 0 .3.1.5.1 0-.1-.1-.1-.1-.2-.8-1.3-1.2-2.4-1.2-3.5 0-.3 0-.7.1-1 0-.2.1-.5.4-.5.3 0 .3.3.4.5.2.6.4 1.2.7 1.8.1.2.2.4.3.5.2.3.4.5.6.7.4.3.7.4 1.1.4.2 0 .3 0 .5-.1.1 0 .5-.1.5-.1.1 0 .2 0 .2.1.1.1.1.2 0 .3l-.4 1c-.2.5-.4.9-.5 1.2-.2.3-.3.6-.5.9-.2.3-.5.5-.9.5-.2 0-.4 0-.6-.1l-.1-.1c-.4-.2-.8-.3-1.2-.5-.1.3-.3.3-.5.3-.3 0-.5.1-.6.4-.1.3-.1.6-.2.9l-.1.3c0 .1-.1.3-.1.3.1.1 0 .2-.2.2zm1.4-3.6c-.2 0-.5 0-.7.1-.3.1-.6.2-.7.5-.1.3-.2.7-.2 1.2 0 .3.1.5.2.8.1-.3.1-.5.2-.8.1-.5.5-.8 1-.8.3 0 .6 0 .8.1.4.1.8.3 1.2.5l.2.1c.1.1.3.1.4.1.2 0 .3-.1.4-.3.2-.2.3-.5.4-.8.2-.5.4-.9.5-1.3l.2-.5c-.2 0-.4.1-.5.1-.5 0-1-.2-1.5-.6-.3-.2-.5-.5-.7-.8l-.3-.6c-.2-.4-.4-.9-.6-1.3v.2c0 1 .4 2 1.2 3.2.1.1.2.3.3.4.1.1.2.3.3.4.1.1.1.2 0 .3-.1.1-.1.1-.2.1h-.1c-.4-.2-.8-.3-1.1-.4-.4.1-.6.1-.7.1z"/><path d="M19.7 12.9h-.3c-.5-.1-.8-.5-.9-1.1 0-.6-.1-1.2-.1-1.7-.1-.7-.3-1.3-.5-1.9-.3-.9-.9-1.9-1.7-2.8-.8-.9-1.7-1.5-2.7-1.9-.7-.3-1.4-.4-2-.5h-3c-.1 0-.2-.1-.2-.3 0-.2.1-.3.2-.4h.1c.1 0 .2-.1.3-.1l.4-.1c.5-.1 1-.1 1.5-.2h.4c.4 0 .9.1 1.3.1 1.1.2 2.2.5 3.3 1 1.2.6 2.2 1.5 3 2.6.4.5.6 1 .8 1.5.3.6.5 1.3.7 2.1.2.6.3 1.2.3 1.9 0 .4 0 .7-.1 1-.1.6-.4.8-.8.8zM12.3 2.6c.5.1 1 .2 1.4.4 1.1.4 2.1 1.1 2.9 2 .9 1 1.5 1.9 1.8 3 .2.7.4 1.3.5 2 0 .5.1 1.1.1 1.7 0 .3.2.5.4.6h.1c.2 0 .3-.1.4-.3.1-.2.1-.5.1-.8-.1-.7-.2-1.3-.3-1.8-.2-.8-.4-1.4-.7-2.1-.2-.4-.4-1-.7-1.4-.7-1-1.7-1.8-2.8-2.4-1-.4-2-.7-3.2-.9.1 0 .1 0 0 0z"/><path d="M19.7 12.9h-.3c-.5-.1-.8-.5-.9-1.1 0-.6-.1-1.2-.1-1.7-.1-.7-.3-1.3-.5-1.9-.3-.9-.9-1.9-1.7-2.8-.8-.9-1.7-1.5-2.7-1.9-.7-.3-1.4-.4-2-.5h-3c-.1 0-.2-.1-.2-.3 0-.2.1-.3.2-.4h.1c.1 0 .2-.1.3-.1l.4-.1c.5-.1 1-.1 1.5-.2h.4c.4 0 .9.1 1.3.1 1.1.2 2.2.5 3.3 1 1.2.6 2.2 1.5 3 2.6.4.5.6 1 .8 1.5.3.6.5 1.3.7 2.1.2.6.3 1.2.3 1.9 0 .4 0 .7-.1 1-.1.6-.4.8-.8.8zM12.3 2.6c.5.1 1 .2 1.4.4 1.1.4 2.1 1.1 2.9 2 .9 1 1.5 1.9 1.8 3 .2.7.4 1.3.5 2 0 .5.1 1.1.1 1.7 0 .3.2.5.4.6h.1c.2 0 .3-.1.4-.3.1-.2.1-.5.1-.8-.1-.7-.2-1.3-.3-1.8-.2-.8-.4-1.4-.7-2.1-.2-.4-.4-1-.7-1.4-.7-1-1.7-1.8-2.8-2.4-1-.4-2-.7-3.2-.9.1 0 .1 0 0 0zm.4 19.4c-.5 0-.9 0-1.3-.1-1.9-.4-3.4-1.1-4.6-2.1-.9-.7-1.5-1.6-2-2.6-.4-.7-.6-1.4-.8-2.2l-.1-.3c-.1-.4-.2-.7-.2-1.1-.1-.5-.1-1-.1-1.6 0-.4.1-.8.3-1.2.2-.3.4-.4.7-.5.7 0 1.1.4 1.1 1v2.1c.1.7.2 1.4.5 2.2.2.5.5 1 .8 1.4.5.8 1 1.3 1.5 1.8.8.7 1.5 1.2 2.4 1.4.6.2 1.2.3 1.9.4.2 0 1.1.1 1.1.1l1.2.1.1.1v-.1c.1 0 .2.1.2.3 0 .2-.1.3-.2.3h-.1c-.1 0-.2 0-.3.1-.5.1-1 .1-1.4.1-.3.4-.5.4-.7.4zM4.5 11c-.1 0-.2.1-.3.2-.1.3-.2.6-.2.9 0 .5.1 1 .1 1.5 0 .3.1.7.2 1l.1.3c.2.8.4 1.4.7 2 .5.9 1.1 1.7 1.9 2.4 1.2 1 2.6 1.6 4.4 2 .3.1.7.1 1 .1-.7-.1-1.3-.2-1.9-.4-.9-.3-1.8-.8-2.6-1.6-.5-.5-1-1.1-1.5-1.9-.3-.5-.7-1-.8-1.6-.3-.9-.4-1.6-.5-2.4 0-.5-.1-.9 0-1.3v-.9c0-.1-.2-.3-.6-.3z"/><path d="M12.7 22c-.5 0-.9 0-1.3-.1-1.9-.4-3.4-1.1-4.6-2.1-.9-.7-1.5-1.6-2-2.6-.4-.7-.6-1.4-.8-2.2l-.1-.3c-.1-.4-.2-.7-.2-1.1-.1-.5-.1-1-.1-1.6 0-.4.1-.8.3-1.2.2-.3.4-.4.7-.5.7 0 1.1.4 1.1 1v2.1c.1.7.2 1.4.5 2.2.2.5.5 1 .8 1.4.5.8 1 1.3 1.5 1.8.8.7 1.5 1.2 2.4 1.4.6.2 1.2.3 1.9.4.2 0 1.1.1 1.1.1l1.2.1.1.1v-.1c.1 0 .2.1.2.3 0 .2-.1.3-.2.3h-.1c-.1 0-.2 0-.3.1-.5.1-1 .1-1.4.1-.3.4-.5.4-.7.4zM4.5 11c-.1 0-.2.1-.3.2-.1.3-.2.6-.2.9 0 .5.1 1 .1 1.5 0 .3.1.7.2 1l.1.3c.2.8.4 1.4.7 2 .5.9 1.1 1.7 1.9 2.4 1.2 1 2.6 1.6 4.4 2 .3.1.7.1 1 .1-.7-.1-1.3-.2-1.9-.4-.9-.3-1.8-.8-2.6-1.6-.5-.5-1-1.1-1.5-1.9-.3-.5-.7-1-.8-1.6-.3-.9-.4-1.6-.5-2.4 0-.5-.1-.9 0-1.3v-.9c0-.1-.2-.3-.6-.3z"/><path d="M12.3 20.6c-.3 0-.6 0-.9-.1-.1 0-.3-.1-.5-.2-.3-.1-.4-.4-.4-.7 0-.3.1-.7.3-.9.2-.2.5-.3.8-.3h1.9c.3 0 .6 0 .8-.1 1.1-.2 1.9-.5 2.7-.9.8-.4 1.4-.9 1.9-1.4.6-.6 1.1-1.3 1.5-2.1.2-.4.3-.9.4-1.5l.1-.7c.1-.4.1-.8.2-1.2 0-.3.1-.7.1-1v-.4c0-.2.1-.3.3-.3.2 0 .3.1.3.2l.1.7c0 .2.1.5.1.7v1.1c0 .5-.1.9-.1 1.3 0 .1 0 .3-.1.4-.1.8-.3 1.5-.6 2.2-.3.6-.6 1.1-1 1.6s-.9 1-1.5 1.4c-.4.3-1 .7-1.7.9-.8.3-1.6.6-2.5.8-.5.1-1 .2-1.5.2h-.2c-.2.3-.3.3-.5.3zm-.7-1.7c-.1 0-.3.1-.4.2-.1.1-.2.3-.2.5 0 .1 0 .2.1.2.1.1.2.1.3.1.2.1.5.1.7.1h.7c.5-.1.9-.1 1.4-.2.9-.2 1.7-.5 2.5-.8.6-.2 1.1-.6 1.5-.9.6-.4 1-.8 1.4-1.3.4-.4.7-.9.9-1.5.3-.6.5-1.3.6-2l.1-.5c.1-.4.1-.8.1-1.2v-.1c0 .1-.2 1.1-.2 1.1-.1.5-.2 1.1-.4 1.6-.4.8-.9 1.6-1.6 2.2-.5.5-1.2 1-2 1.5s-1.7.8-2.8 1c-.3.1-.6.1-.9.1H12s-.2-.1-.4-.1z"/><path d="M12.3 20.6c-.3 0-.6 0-.9-.1-.1 0-.3-.1-.5-.2-.3-.1-.4-.4-.4-.7 0-.3.1-.7.3-.9.2-.2.5-.3.8-.3h1.9c.3 0 .6 0 .8-.1 1.1-.2 1.9-.5 2.7-.9.8-.4 1.4-.9 1.9-1.4.6-.6 1.1-1.3 1.5-2.1.2-.4.3-.9.4-1.5l.1-.7c.1-.4.1-.8.2-1.2 0-.3.1-.7.1-1v-.4c0-.2.1-.3.3-.3.2 0 .3.1.3.2l.1.7c0 .2.1.5.1.7v1.1c0 .5-.1.9-.1 1.3 0 .1 0 .3-.1.4-.1.8-.3 1.5-.6 2.2-.3.6-.6 1.1-1 1.6s-.9 1-1.5 1.4c-.4.3-1 .7-1.7.9-.8.3-1.6.6-2.5.8-.5.1-1 .2-1.5.2h-.2c-.2.3-.3.3-.5.3zm-.7-1.7c-.1 0-.3.1-.4.2-.1.1-.2.3-.2.5 0 .1 0 .2.1.2.1.1.2.1.3.1.2.1.5.1.7.1h.7c.5-.1.9-.1 1.4-.2.9-.2 1.7-.5 2.5-.8.6-.2 1.1-.6 1.5-.9.6-.4 1-.8 1.4-1.3.4-.4.7-.9.9-1.5.3-.6.5-1.3.6-2l.1-.5c.1-.4.1-.8.1-1.2v-.1c0 .1-.2 1.1-.2 1.1-.1.5-.2 1.1-.4 1.6-.4.8-.9 1.6-1.6 2.2-.5.5-1.2 1-2 1.5s-1.7.8-2.8 1c-.3.1-.6.1-.9.1H12s-.2-.1-.4-.1zm-9.1-3.3c-.1 0-.2-.1-.3-.2v-.2c0-.2 0-.3-.1-.4 0-.6-.1-1.2-.1-1.8 0-.9.1-1.6.3-2.4.2-.7.4-1.4.7-2 .4-.9 1-1.7 1.7-2.5.4-.4.9-.8 1.4-1.1.7-.5 1.4-.8 2.2-1l.2-.1c.5-.1 1.1-.3 1.7-.4.4-.1.8-.1 1.2-.1.3 0 .6 0 .8.1h.1c.3.1.6.4.7.7.1.3 0 .7-.2 1-.2.2-.4.3-.7.3h-1.7c-.4.1-.9.2-1.4.3-.6.1-1 .3-1.5.5-.6.3-1.2.7-1.7 1.1C5 8 4.4 8.8 3.9 9.7c-.3.5-.5 1-.7 1.6-.1.4-.2.9-.2 1.5-.1.5-.1 1-.2 1.6v.9c.1.1 0 .3-.3.3zm9-11.7c-.4 0-.8.1-1.1.1-.6.1-1.2.3-1.7.4l-.2.1c-.7.2-1.4.5-2.1.9-.5.4-1 .7-1.3 1.1-.7.7-1.2 1.5-1.6 2.3-.3.6-.5 1.3-.7 1.9-.1.4-.2.9-.2 1.4 0-.3.1-.7.2-.9.1-.7.4-1.3.7-1.8.5-.9 1.2-1.7 2-2.4.5-.4 1.1-.8 1.8-1.1.5-.2 1-.5 1.6-.6.5-.2 1-.3 1.6-.3h1.6c.1 0 .2 0 .3-.1.1-.1.2-.3.1-.5 0-.2-.2-.3-.3-.3h-.1c-.2-.1-.4-.2-.6-.2z"/><path d="M2.5 15.6c-.1 0-.2-.1-.3-.2v-.2c0-.2 0-.3-.1-.4 0-.6-.1-1.2-.1-1.8 0-.9.1-1.6.3-2.4.2-.7.4-1.4.7-2 .4-.9 1-1.7 1.7-2.5.4-.4.9-.8 1.4-1.1.7-.5 1.4-.8 2.2-1l.2-.1c.5-.1 1.1-.3 1.7-.4.4-.1.8-.1 1.2-.1.3 0 .6 0 .8.1h.1c.3.1.6.4.7.7.1.3 0 .7-.2 1-.2.2-.4.3-.7.3h-1.7c-.4.1-.9.2-1.4.3-.6.1-1 .3-1.5.5-.6.3-1.2.7-1.7 1.1C5 8 4.4 8.8 3.9 9.7c-.3.5-.5 1-.7 1.6-.1.4-.2.9-.2 1.5-.1.5-.1 1-.2 1.6v.9c.1.1 0 .3-.3.3zm9-11.7c-.4 0-.8.1-1.1.1-.6.1-1.2.3-1.7.4l-.2.1c-.7.2-1.4.5-2.1.9-.5.4-1 .7-1.3 1.1-.7.7-1.2 1.5-1.6 2.3-.3.6-.5 1.3-.7 1.9-.1.4-.2.9-.2 1.4 0-.3.1-.7.2-.9.1-.7.4-1.3.7-1.8.5-.9 1.2-1.7 2-2.4.5-.4 1.1-.8 1.8-1.1.5-.2 1-.5 1.6-.6.5-.2 1-.3 1.6-.3h1.6c.1 0 .2 0 .3-.1.1-.1.2-.3.1-.5 0-.2-.2-.3-.3-.3h-.1c-.2-.1-.4-.2-.6-.2zm4.7 12.7c-.2 0-.3 0-.5-.1-.6-.2-1.3-.5-1.9-1.1-.1-.1-.1-.2-.1-.3 0-.1.1-.1.2-.1.6.2 1 .3 1.4.3.5 0 1-.1 1.4-.4.8-.5 1.2-1.3 1.2-2.4 0-.1.1-.2.2-.3.2 0 .2.1.3.2.1.1.1.2.1.2.1.5.1 1 0 1.5-.1.4-.2 1-.5 1.4-.3.5-.7.8-1.3 1-.1.1-.3.1-.5.1zm-1-.8c.2.1.4.2.6.2h.4c.2 0 .3 0 .5-.1.4-.1.8-.4 1-.7.2-.3.3-.7.4-1-.2.4-.6.8-1 1.1-.6.3-1.2.5-1.9.5.1 0 0 0 0 0z"/><path d="M16.2 16.6c-.2 0-.3 0-.5-.1-.6-.2-1.3-.5-1.9-1.1-.1-.1-.1-.2-.1-.3 0-.1.1-.1.2-.1.6.2 1 .3 1.4.3.5 0 1-.1 1.4-.4.8-.5 1.2-1.3 1.2-2.4 0-.1.1-.2.2-.3.2 0 .2.1.3.2.1.1.1.2.1.2.1.5.1 1 0 1.5-.1.4-.2 1-.5 1.4-.3.5-.7.8-1.3 1-.1.1-.3.1-.5.1zm-1-.8c.2.1.4.2.6.2h.4c.2 0 .3 0 .5-.1.4-.1.8-.4 1-.7.2-.3.3-.7.4-1-.2.4-.6.8-1 1.1-.6.3-1.2.5-1.9.5.1 0 0 0 0 0zM9.8 8.9c-.8 0-1.4-.7-1.4-1.4 0-.3.1-.6.3-.9.3-.3.6-.5 1-.5s.8.1 1 .4c.2.3.4.6.4 1 .1.7-.5 1.4-1.3 1.4zm0-2.2c-.3 0-.5.2-.6.3-.2.1-.2.3-.2.5 0 .5.4.9.8.9.5 0 .9-.4.8-.9 0-.2-.1-.4-.2-.6-.2-.2-.4-.2-.6-.2z"/><path d="M9.8 8.9c-.8 0-1.4-.7-1.4-1.4 0-.3.1-.6.3-.9.3-.3.6-.5 1-.5s.8.1 1 .4c.2.3.4.6.4 1 .1.7-.5 1.4-1.3 1.4zm0-2.2c-.3 0-.5.2-.6.3-.2.1-.2.3-.2.5 0 .5.4.9.8.9.5 0 .9-.4.8-.9 0-.2-.1-.4-.2-.6-.2-.2-.4-.2-.6-.2zm7 3.9c-.7 0-1.2-.6-1.2-1.3 0-.8.6-1.2 1.1-1.3h.1c.7 0 1.2.6 1.2 1.3 0 .3-.1.6-.4.9-.2.3-.5.4-.8.4zm0-.5c.2 0 .4-.1.5-.2.1-.1.2-.3.2-.5 0-.4-.3-.8-.7-.8v-.1l-.1.1c-.3 0-.7.2-.7.7.1.4.4.8.8.8z"/><path d="M16.8 10.6c-.7 0-1.2-.6-1.2-1.3 0-.8.6-1.2 1.1-1.3h.1c.7 0 1.2.6 1.2 1.3 0 .3-.1.6-.4.9-.2.3-.5.4-.8.4zm0-.5c.2 0 .4-.1.5-.2.1-.1.2-.3.2-.5 0-.4-.3-.8-.7-.8v-.1l-.1.1c-.3 0-.7.2-.7.7.1.4.4.8.8.8z"/></g></svg>