<svg xmlns="http://www.w3.org/2000/svg" viewBox="0 0 24 24"><g fill="#231F20"><path d="M7.6 4.4c-.6 0-1.2-.6-1.2-1.2S7 2 7.6 2s1.2.5 1.2 1.2-.6 1.2-1.2 1.2zm0-1.8c-.3 0-.6.3-.6.6s.3.6.6.6.6-.3.6-.6-.3-.6-.6-.6z"/><path d="M7.6 4.4c-.6 0-1.2-.6-1.2-1.2S7 2 7.6 2s1.2.5 1.2 1.2-.6 1.2-1.2 1.2zm0-1.8c-.3 0-.6.3-.6.6s.3.6.6.6.6-.3.6-.6-.3-.6-.6-.6zM5.4 5.8c-.6 0-1.2-.5-1.2-1.2s.5-1.2 1.2-1.2 1.2.6 1.2 1.2-.5 1.2-1.2 1.2zm0-1.8c-.3 0-.6.3-.6.6s.3.6.6.6.7-.2.7-.6-.3-.6-.7-.6z"/><path d="M5.4 5.8c-.6 0-1.2-.5-1.2-1.2s.5-1.2 1.2-1.2 1.2.6 1.2 1.2-.5 1.2-1.2 1.2zm0-1.8c-.3 0-.6.3-.6.6s.3.6.6.6.7-.2.7-.6-.3-.6-.7-.6zM3.7 7.8c-.6 0-1.2-.5-1.2-1.2S3 5.4 3.7 5.4s1.2.6 1.2 1.2-.6 1.2-1.2 1.2zm0-1.8c-.3 0-.6.3-.6.6s.3.6.6.6.6-.2.6-.6S4 6 3.7 6z"/><path d="M3.7 7.8c-.6 0-1.2-.5-1.2-1.2S3 5.4 3.7 5.4s1.2.6 1.2 1.2-.6 1.2-1.2 1.2zm0-1.8c-.3 0-.6.3-.6.6s.3.6.6.6.6-.2.6-.6S4 6 3.7 6z"/><path d="M16.2 9.8l.4-1-.8.3H12c-2.3 0-4.2 1.9-4.2 4.2v8.6l-.4-.3c-2.8-1.8-4.6-5-4.6-8.5 0-5.4 4.2-9.8 9.4-9.8s9.4 4.4 9.4 9.8c0 3.6-1.9 6.9-4.9 8.6l-.5.3V9.8zm.5.1V21c2.6-1.7 4.2-4.7 4.2-7.9 0-5.1-4-9.3-8.8-9.3-4.9 0-8.8 4.2-8.8 9.3 0 3.1 1.5 6 3.9 7.7v-7.6c0-2.6 2.1-4.8 4.8-4.8h3.7l1.9-.7-.9 2.2z"/><path d="M16.2 9.8l.4-1-.8.3H12c-2.3 0-4.2 1.9-4.2 4.2v8.6l-.4-.3c-2.8-1.8-4.6-5-4.6-8.5 0-5.4 4.2-9.8 9.4-9.8s9.4 4.4 9.4 9.8c0 3.6-1.9 6.9-4.9 8.6l-.5.3V9.8zm.5.1V21c2.6-1.7 4.2-4.7 4.2-7.9 0-5.1-4-9.3-8.8-9.3-4.9 0-8.8 4.2-8.8 9.3 0 3.1 1.5 6 3.9 7.7v-7.6c0-2.6 2.1-4.8 4.8-4.8h3.7l1.9-.7-.9 2.2z"/><path d="M13.9 12c-.6 0-1.2-.5-1.2-1.2 0-.6.5-1.2 1.2-1.2s1.2.5 1.2 1.2c-.1.7-.6 1.2-1.2 1.2zm0-1.8c-.3 0-.6.3-.6.6s.3.6.6.6.6-.3.6-.6-.3-.6-.6-.6z"/><path d="M13.9 12c-.6 0-1.2-.5-1.2-1.2 0-.6.5-1.2 1.2-1.2s1.2.5 1.2 1.2c-.1.7-.6 1.2-1.2 1.2zm0-1.8c-.3 0-.6.3-.6.6s.3.6.6.6.6-.3.6-.6-.3-.6-.6-.6zm-3.6 11.6v-1.6h.8s.1 0 .1-.1v-4h-.1c-.1 0-.2-.1-.3-.1s-.2 0-.3-.1h-.3v-1.6h3.4V16H13c-.1 0-.2 0-.3.1-.1.1-.1.1-.1.2v3.8s0 .1.1.1c0 0 .1 0 .2.1h.6v1.6h-3.2zm2.8-.5v-.5H13c-.2 0-.3-.1-.4-.1-.2-.1-.3-.2-.4-.3-.1-.1-.1-.3-.1-.4v-3.6c0-.1 0-.3.1-.4.1-.2.2-.3.4-.3.1 0 .2-.1.4-.1h.1V15h-2.3v.5h.1c.2 0 .3.1.4.1.2.1.3.2.4.3 0 .1.1.2.1.4V20c0 .2 0 .3-.1.4l-.3.3c-.1 0-.2.1-.4.1h-.1v.5h2.2z"/><path d="M10.3 21.8v-1.6h.8s.1 0 .1-.1v-4h-.1c-.1 0-.2-.1-.3-.1s-.2 0-.3-.1h-.3v-1.6h3.4V16H13c-.1 0-.2 0-.3.1-.1.1-.1.1-.1.2v3.8s0 .1.1.1c0 0 .1 0 .2.1h.6v1.6h-3.2zm2.8-.5v-.5H13c-.2 0-.3-.1-.4-.1-.2-.1-.3-.2-.4-.3-.1-.1-.1-.3-.1-.4v-3.6c0-.1 0-.3.1-.4.1-.2.2-.3.4-.3.1 0 .2-.1.4-.1h.1V15h-2.3v.5h.1c.2 0 .3.1.4.1.2.1.3.2.4.3 0 .1.1.2.1.4V20c0 .2 0 .3-.1.4l-.3.3c-.1 0-.2.1-.4.1h-.1v.5h2.2z"/></g></svg>