<svg xmlns="http://www.w3.org/2000/svg" viewBox="0 0 24 24"><path stroke="#000" stroke-width=".1" stroke-miterlimit="10" d="M15.1 2.1s.1 0 0 0c0-.1 0-.1-.1-.1h-1.9s-.1 0-.1.1c-.2.4-.5.8-.7 1.2-.1.2-.3.2-.4 0-.2-.4-.5-.8-.7-1.2C11 2 11 2 10.9 2h-2s0 .1.1.1c.4.7.9 1.4 1.3 2.1 0 .1.1.1 0 .2-.4.6-.3 1.3 0 1.9 0 .1.1.1.1 0l.3-.3c.2-.1.2-.2.1-.3-.1-.2-.1-.5 0-.7.1 0 .1.1.1.1.1.1.1.1.3.1h1.9c.1 0 .2 0 .2-.1l.1-.1c.1 0 .1.1.1.2v.1c0 .2-.1.4-.1.5v.1c.2.1.3.3.4.4.1.1.1 0 .2 0 0 0 0-.1.1-.2.2-.6.2-1.2-.1-1.7-.1-.1 0-.2 0-.3.3-.6.7-1.3 1.1-2zm-4.6 2.6c-.1.1-.1.3-.2.4 0 .1-.1.2-.1.3 0-.3 0-.5.2-.8 0 0 0-.1.1 0v.1zm2.6-.6c-.3-.2-.6-.3-.9-.3h-.1s-.1-.1-.1-.2.1 0 .1 0c.4 0 .8.2 1.1.5.1.1.2.2.2.3 0-.1-.1-.2-.3-.3z"/><path d="M11.8 16.3c-.4 0-.5-.2-.4-.5 0-.1.1-.1.2-.1.3-.1.7-.1 1-.2.1 0 .2-.1.3-.1.1 0 .1 0 0-.1-.3-.3-.6-.5-1-.7h-.2l-.2.2c-.5.7-1 1.3-1.5 2-.1.1-.2.3-.3.4 0 .1-.1.1-.2.2-.2.1-.3.1-.4 0-.1-.1-.1-.3 0-.4.3-.4.6-.7.8-1.1.7-1 1.5-2 2.2-3 .1-.1.2-.3.3-.4v-.1c-.1-.1-.3-.2-.4-.3-.1-.1-.2-.1-.2 0-.1.1-.2.2-.3.4l-.3.3c-.1.1-.2 0-.3-.1-.1-.1-.1-.2 0-.3.2-.3.5-.6.7-.9.1-.2.3-.2.5-.1.4.3.9.6 1.3 1 .2.2.3.4.3.6v.5c0 .2.1.2.2.1.3-.1.5-.1.8-.2h.3c.1 0 .2.1.2.2s0 .2-.1.3c-.1.1-.3.1-.4.2-.3.1-.7.2-1 .2-.3.1-.4 0-.4-.3v-.2c0-.1 0-.1-.1 0s-.3.3-.4.5c-.1.1 0 .2 0 .2.4.3.7.6 1.1.9.2.1.2.3.2.4 0 .2-.1.2-.3.3l-1.2.3c-.4-.2-.7-.1-.8-.1zm2.9-5c0 .4-.3.7-.7.7-.3 0-.7-.3-.7-.7 0-.4.3-.7.7-.7.4 0 .7.3.7.7zm-5.9 2.3h.8c.1 0 .2 0 .2.1s-.1.1-.2.1H8c-.1 0-.2 0-.2-.1s.1-.1.2-.1h.8z"/><path d="M9.3 14.3h.8c.1 0 .2 0 .2.1s-.1.1-.2.1H8.5c-.1 0-.2 0-.2-.1s.1-.1.2-.1h.8zm.3-1.2h-.8c-.1 0-.2 0-.2-.1s.1-.1.2-.1h1.7c.1 0 .2 0 .2.1s-.1.1-.2.1h-.9z"/><path stroke="#000" stroke-width=".25" stroke-miterlimit="10" d="M12 9c-2.8 0-5.1 2.3-5.1 5.1s2.3 5.1 5.1 5.1 5.1-2.3 5.1-5.1S14.8 9 12 9zm-.1 9.8c-2.4 0-4.7-1.9-4.7-4.9.1-2.6 2.3-4.6 4.8-4.6 2.6 0 4.7 2.1 4.7 4.8.1 2.4-1.8 4.8-4.8 4.7z"/><path stroke="#000" stroke-width=".1" stroke-miterlimit="10" d="M19.8 14.9c.2-.2.2-.4.1-.6l-.3-.6c-.1-.1-.1-.2 0-.2.1-.1.1-.2.2-.4.2-.4.2-.6-.2-.9l-.3-.3c-.1-.1-.1-.1-.1-.2 0-.2.1-.4.1-.6.1-.3 0-.5-.2-.6-.1-.1-.3-.2-.5-.3-.1 0-.1-.1-.2-.2 0 0 0 0 0 0-.1-.2-.1-.5-.1-.7 0-.1-.1-.3-.2-.4 0 0-.1-.3-.3-.5h-.1c-.2-.1-.4-.1-.6-.1-.1 0-.1 0-.1-.1s-.1-.2-.1-.4c-.1-.2-.2-.3-.5-.4h-.7c-.1 0-.2 0-.2-.1-.1-.2-.2-.3-.3-.5-.1-.2-.3-.3-.5-.3s-.4.1-.6.1c-.1 0-.2 0-.3-.1l-.4-.4c-.2-.2-.4-.2-.6-.1-.2.1-.4.1-.6.3-.2.1-.3.1-.4 0-.1-.1-.3-.2-.4-.2-.2-.1-.4-.1-.6.1-.2.2-.3.3-.5.4-.1.1-.1.1-.2 0-.3.1-.6 0-.8 0-.2 0-.3 0-.4.2-.2.2-.3.4-.4.6 0 .1-.1.1-.2.1h-.7c-.2 0-.3.1-.4.3-.1.2-.2.4-.2.6 0 .1 0 .1-.1 0-.3-.1-1 .2-1.1.3 0 0-.1.2-.1.4v.7s0 0 0 0v.1s0 0 0 0c0 .1-.1.2-.3.3-.1.1-.2.1-.3.2-.3.2-.4.3-.4.6 0 .2 0 .4.1.6 0 .1 0 .2-.1.2-.1.1-.2.2-.4.3-.3.3-.3.5-.2.9.1.1.1.3.2.4.1.1.1.2 0 .3-.1.2-.3.4-.4.6-.1.2-.1.3 0 .5s.3.4.4.5c.1.1.1.2.1.3-.1.2-.2.5-.2.7v.1c.1.2.3.3.3.4l.5.4v.5s-.1.3.1.6c0 0 .1 0 .1.1s.1.1.2.1c.1.1.3.1.4.2.1 0 .2.1.2.3 0 .2.1.4.1.5 0 .2.2.4.4.4.5.1.7.2 1 .2.1 0 .2 0 .2.2.1.2.1.3.2.5s.3.3.6.3c.2 0 .4 0 .6-.1.1 0 .1 0 .2.1.1.2.3.4.5.5.2.1.3.2.5.1s.4-.2.7-.3h.2c.2.2.4.3.7.4.2.1.4.1.5-.1.2-.1.3-.2.5-.4.1-.1.1-.1.2 0 .2.1.4.1.6.2.2.1.3 0 .5-.1.2-.2.4-.3.5-.6 0-.1.1-.1.2-.1.2 0 .5 0 .7.1.2 0 .3 0 .4-.2.2-.2.3-.4.4-.7 0-.1.1-.1.2-.2h.5c.4 0 .6-.1.6-.5 0-.2.1-.4.1-.5 0-.1.1-.1.1-.2.3-.1.5-.2.7-.3h.1c.1-.2.1-.5.1-.6 0-.2-.1-.5 0-.6 0-.1.4-.3.5-.5.1-.2.3-.5.3-.5 0-.2-.1-.4-.2-.7v-.2c.2.1.3 0 .4-.2zm-7.8 6c-3.8 0-6.8-3-6.8-6.8s3-6.8 6.8-6.8 6.8 3 6.8 6.8c0 3.7-3.1 6.8-6.8 6.8z"/></svg>