<?xml version="1.0" encoding="utf-8"?>
<!-- Generator: Adobe Illustrator 17.1.0, SVG Export Plug-In . SVG Version: 6.00 Build 0)  -->
<!DOCTYPE svg PUBLIC "-//W3C//DTD SVG 1.1//EN" "http://www.w3.org/Graphics/SVG/1.1/DTD/svg11.dtd">
<svg version="1.1" id="Layer_30" xmlns="http://www.w3.org/2000/svg" xmlns:xlink="http://www.w3.org/1999/xlink" x="0px" y="0px"
	 viewBox="0 0 24 24" enable-background="new 0 0 24 24" xml:space="preserve">
<g>
	<path d="M22,2.7l-2.4,0c-0.1,0-0.1,0.1-0.1,0.1l0,0.2c0,0.1,0.1,0.1,0.1,0.1l1.5,0L16.4,7c-0.1,0-0.2-0.1-0.3-0.1
		c-0.1,0-0.3,0-0.4,0.1l-1.9-1.4c0,0,0-0.1,0-0.1c0-0.4-0.3-0.7-0.7-0.7s-0.7,0.3-0.7,0.7c0,0.2,0,0.3,0.1,0.4l-2.3,2.8
		c-0.1,0-0.1,0-0.2,0c-0.2,0-0.3,0.1-0.5,0.2L7.8,8c0,0,0-0.1,0-0.1c0-0.4-0.3-0.7-0.7-0.7S6.3,7.5,6.3,7.9c0,0.1,0,0.2,0.1,0.3
		L2,11.9c0,0-0.1,0.1,0,0.2l0.2,0.2c0,0,0.1,0.1,0.2,0l4.4-3.8c0.1,0,0.2,0.1,0.3,0.1c0.2,0,0.4-0.1,0.5-0.2l1.8,1c0,0,0,0.1,0,0.1
		c0,0.4,0.3,0.7,0.7,0.7s0.7-0.3,0.7-0.7c0-0.2,0-0.3-0.1-0.4l2.3-2.8c0,0,0.1,0,0.2,0c0.2,0,0.3-0.1,0.5-0.2l1.9,1.4
		c0,0.1,0,0.1,0,0.2c0,0.4,0.3,0.7,0.7,0.7c0.4,0,0.7-0.3,0.7-0.7c0-0.1,0-0.2,0-0.3l4.7-3.9l-0.1,1.5c0,0.1,0.1,0.2,0.1,0.2l0.1,0
		c0.1,0,0.2-0.1,0.2-0.2l0.2-2L22,2.7z"/>
	<polygon points="17.1,20.9 17.1,10.9 15,10.9 15,20.9 14.1,20.9 14.1,9.4 12,9.4 12,20.9 11.1,20.9 11.1,13.2 9,13.2 9,20.9 
		8.1,20.9 8.1,11.2 6,11.2 6,20.9 4.7,20.9 4.7,21.3 18.4,21.3 18.4,20.9 	"/>
</g>
</svg>
