<svg xmlns="http://www.w3.org/2000/svg" viewBox="0 0 24 24"><g fill="#231F20"><path d="M7.9 20.1c-2.2 0-4.2-.9-5.9-2.6-.1-.1-.1-.2 0-.3 0-.1.1-.1.2-.1h.1s1.9.9 4.5.9c1.5 0 2.9-.3 4.2-1 2.1-1 3.8-1.5 5.5-1.5 1.6 0 3.1.4 5 1l.2.1c.1 0 .2.2.2.3 0 .1-.1.2-.3.2h-.4c-3.8 0-5.6 0-8.7 1.7-1.5.8-3 1.3-4.6 1.3zM3.5 18c1.3 1 2.8 1.5 4.4 1.5 1.4 0 2.9-.4 4.4-1.2 2.8-1.6 4.6-1.8 7.4-1.8-1.2-.3-2.2-.5-3.2-.5-1.6 0-3.2.5-5.2 1.5-1.4.7-2.9 1-4.5 1-1.3 0-2.4-.2-3.3-.5z"/><path d="M7.9 20.1c-2.2 0-4.2-.9-5.9-2.6-.1-.1-.1-.2 0-.3 0-.1.1-.1.2-.1h.1s1.9.9 4.5.9c1.5 0 2.9-.3 4.2-1 2.1-1 3.8-1.5 5.5-1.5 1.6 0 3.1.4 5 1l.2.1c.1 0 .2.2.2.3 0 .1-.1.2-.3.2h-.4c-3.8 0-5.6 0-8.7 1.7-1.5.8-3 1.3-4.6 1.3zM3.5 18c1.3 1 2.8 1.5 4.4 1.5 1.4 0 2.9-.4 4.4-1.2 2.8-1.6 4.6-1.8 7.4-1.8-1.2-.3-2.2-.5-3.2-.5-1.6 0-3.2.5-5.2 1.5-1.4.7-2.9 1-4.5 1-1.3 0-2.4-.2-3.3-.5z"/><path d="M10.9 21.5c-.7 0-1.5 0-2.3-.1-.1 0-.2-.1-.2-.3 0-.1.1-.3.2-.3.3 0 2.7-.3 5.4-1.8 2.1-1.2 3.5-1.4 5.3-1.4.6 0 1.2 0 1.9.1h.6c.1 0 .3.1.3.3 0 .1-.1.3-.2.3-2.2.2-3 .7-4.6 1.5l-.7.4c-1.7.9-3.4 1.3-5.7 1.3zm0-.5c2.2 0 3.8-.4 5.3-1.2l.7-.4c.9-.5 1.6-.9 2.4-1.2-1.7 0-3 .2-5 1.3-1.3.7-2.6 1.2-3.5 1.4 0 .1.1.1.1.1z"/><path d="M10.9 21.5c-.7 0-1.5 0-2.3-.1-.1 0-.2-.1-.2-.3 0-.1.1-.3.2-.3.3 0 2.7-.3 5.4-1.8 2.1-1.2 3.5-1.4 5.3-1.4.6 0 1.2 0 1.9.1h.6c.1 0 .3.1.3.3 0 .1-.1.3-.2.3-2.2.2-3 .7-4.6 1.5l-.7.4c-1.7.9-3.4 1.3-5.7 1.3zm0-.5c2.2 0 3.8-.4 5.3-1.2l.7-.4c.9-.5 1.6-.9 2.4-1.2-1.7 0-3 .2-5 1.3-1.3.7-2.6 1.2-3.5 1.4 0 .1.1.1.1.1zm-4.2-3.8c-2.1 0-4-.8-4.1-.8-.1 0-.1-.1-.2-.2V16c1.2-2.2 2.8-3.4 3.8-4.1.2-.1.4-.3.5-.4.6-.5.8-.8 1-1.3.3-.2.4-.5.6-.9l.3-.5c.8-1.2 2-3.3 2.7-3.9.3-.2 1.6-.6 3.9-1.1h.1c.5-.1 1-.2 1.1-.3.1 0 .2-.1.3-.2.2-.2.5-.5 1.6-.6.3 0 .5-.1.7-.1.3 0 .4-.1.6-.1.2 0 .4.1.7.2l.2.1c.5.2.7.4.8.7 0 .2 0 .5-.2.8-.3.4-.8.5-1.3.5-.2 0-.5.1-.7.1-.1 0-.2.1-.3.2-.2.2-.4.4-.9.4h-.2c-.2 0-.3 0-.4-.1h-.2c-.1 0-.3 0-.7.1-.9.2-2.6 1-2.9 1.2-.5.4-.6.8-.7 1.3 0 .2-.1.4-.1.6-.1.3-.1.5-.2.7-.1.5-.2.9-.5 1.6-.1.2-.2.4-.2.6-.1.2-.2.5-.2.6h.2c.3 0 1-.1 1.2-.4 0-.1.1-.1.1-.2.1-.1.1-.3.2-.4 0-.1.1-.1.2-.1.3 0 .8-.1 1.3-.1.9 0 1.5.1 2 .4.7.4 1.1 1.2 1.3 1.8v.2c-.2.3-.3.5-.5.6-.9.6-1.7 1-2.4 1-1.7 0-2.8.6-4 1.1-.7.3-1.4.7-2.3 1-.8.1-1.4.2-2.2.2zm-3.6-1.1c.7.2 2.1.7 3.6.7.7 0 1.3-.1 1.9-.3.9-.3 1.6-.6 2.3-1 1.3-.6 2.4-1.1 4.2-1.2.6 0 1.3-.3 2.1-.9.1-.1.2-.2.3-.4-.1-.3-.5-1.1-1.1-1.4-.4-.2-1-.3-1.8-.3-.5 0-.9 0-1.2.1v.2c-.1.2-.1.3-.2.3-.3.5-1.1.6-1.5.7h-.4c-.2 0-.3-.1-.3-.2-.2-.2 0-.6.2-1.2.1-.2.2-.4.2-.6.2-.6.3-1 .5-1.5.1-.3.1-.5.2-.8.1-.2.1-.4.1-.5.1-.6.2-1.1.7-1.5.4-.2 2.2-1.1 3.2-1.3.4-.1.7-.1.8-.1h.3c.1 0 .2 0 .4.1h.2c.3 0 .4-.1.5-.3.1-.2.3-.3.7-.4.2-.1.5-.1.7-.1.4-.1.8-.1 1-.3.1-.1.1-.2.1-.3 0-.1-.2-.2-.5-.3l-.2-.1c-.2-.2-.3-.2-.4-.2-.1 0-.2 0-.4.1-.2 0-.4.1-.8.1-.9.1-1.1.3-1.3.5-.1.1-.3.2-.5.3-.2 0-.7.1-1.3.3-1.1.3-3.4.9-3.7 1-.6.5-1.8 2.5-2.6 3.8l-.3.5c-.2.3-.3.6-.4.9-.3.5-.5 1-1.2 1.6-.2.1-.4.3-.6.4-1 .6-2.4 1.6-3.5 3.6z"/><path d="M6.7 17.2c-2.1 0-4-.8-4.1-.8-.1 0-.1-.1-.2-.2V16c1.2-2.2 2.8-3.4 3.8-4.1.2-.1.4-.3.5-.4.6-.5.8-.8 1-1.3.3-.2.4-.5.6-.9l.3-.5c.8-1.2 2-3.3 2.7-3.9.3-.2 1.6-.6 3.9-1.1h.1c.5-.1 1-.2 1.1-.3.1 0 .2-.1.3-.2.2-.2.5-.5 1.6-.6.3 0 .5-.1.7-.1.3 0 .4-.1.6-.1.2 0 .4.1.7.2l.2.1c.5.2.7.4.8.7 0 .2 0 .5-.2.8-.3.4-.8.5-1.3.5-.2 0-.5.1-.7.1-.1 0-.2.1-.3.2-.2.2-.4.4-.9.4h-.2c-.2 0-.3 0-.4-.1h-.2c-.1 0-.3 0-.7.1-.9.2-2.6 1-2.9 1.2-.5.4-.6.8-.7 1.3 0 .2-.1.4-.1.6-.1.3-.1.5-.2.7-.1.5-.2.9-.5 1.6-.1.2-.2.4-.2.6-.1.2-.2.5-.2.6h.2c.3 0 1-.1 1.2-.4 0-.1.1-.1.1-.2.1-.1.1-.3.2-.4 0-.1.1-.1.2-.1.3 0 .8-.1 1.3-.1.9 0 1.5.1 2 .4.7.4 1.1 1.2 1.3 1.8v.2c-.2.3-.3.5-.5.6-.9.6-1.7 1-2.4 1-1.7 0-2.8.6-4 1.1-.7.3-1.4.7-2.3 1-.8.1-1.4.2-2.2.2zm-3.6-1.1c.7.2 2.1.7 3.6.7.7 0 1.3-.1 1.9-.3.9-.3 1.6-.6 2.3-1 1.3-.6 2.4-1.1 4.2-1.2.6 0 1.3-.3 2.1-.9.1-.1.2-.2.3-.4-.1-.3-.5-1.1-1.1-1.4-.4-.2-1-.3-1.8-.3-.5 0-.9 0-1.2.1v.2c-.1.2-.1.3-.2.3-.3.5-1.1.6-1.5.7h-.4c-.2 0-.3-.1-.3-.2-.2-.2 0-.6.2-1.2.1-.2.2-.4.2-.6.2-.6.3-1 .5-1.5.1-.3.1-.5.2-.8.1-.2.1-.4.1-.5.1-.6.2-1.1.7-1.5.4-.2 2.2-1.1 3.2-1.3.4-.1.7-.1.8-.1h.3c.1 0 .2 0 .4.1h.2c.3 0 .4-.1.5-.3.1-.2.3-.3.7-.4.2-.1.5-.1.7-.1.4-.1.8-.1 1-.3.1-.1.1-.2.1-.3 0-.1-.2-.2-.5-.3l-.2-.1c-.2-.2-.3-.2-.4-.2-.1 0-.2 0-.4.1-.2 0-.4.1-.8.1-.9.1-1.1.3-1.3.5-.1.1-.3.2-.5.3-.2 0-.7.1-1.3.3-1.1.3-3.4.9-3.7 1-.6.5-1.8 2.5-2.6 3.8l-.3.5c-.2.3-.3.6-.4.9-.3.5-.5 1-1.2 1.6-.2.1-.4.3-.6.4-1 .6-2.4 1.6-3.5 3.6z"/><path d="M17.8 13.3c-.1 0-.2-.1-.2-.2-.1-.4-.5-1.2-1.1-1.5-.4-.2-1-.3-1.8-.3-.5 0-1 0-1.2.1-.1 0-.2 0-.2-.1-.1-.1-.1-.2 0-.3.2-.4.6-1 1.4-1.4.6-.2 1.1-.4 1.5-.4.9 0 1.4.6 2 1.2.7.8.4 2 0 2.7-.2.2-.3.2-.4.2zm-3.1-2.5c.9 0 1.5.1 2 .4.4.2.8.7 1.1 1.3.1-.4.3-1.1-.2-1.6-.6-.6-.9-1-1.6-1-.3 0-.8.1-1.3.3-.3.1-.6.4-.8.7.3-.1.5-.1.8-.1z"/><path d="M17.8 13.3c-.1 0-.2-.1-.2-.2-.1-.4-.5-1.2-1.1-1.5-.4-.2-1-.3-1.8-.3-.5 0-1 0-1.2.1-.1 0-.2 0-.2-.1-.1-.1-.1-.2 0-.3.2-.4.6-1 1.4-1.4.6-.2 1.1-.4 1.5-.4.9 0 1.4.6 2 1.2.7.8.4 2 0 2.7-.2.2-.3.2-.4.2zm-3.1-2.5c.9 0 1.5.1 2 .4.4.2.8.7 1.1 1.3.1-.4.3-1.1-.2-1.6-.6-.6-.9-1-1.6-1-.3 0-.8.1-1.3.3-.3.1-.6.4-.8.7.3-.1.5-.1.8-.1z"/></g></svg>