<?xml version="1.0" encoding="utf-8"?>
<!-- Generator: Adobe Illustrator 17.1.0, SVG Export Plug-In . SVG Version: 6.00 Build 0)  -->
<!DOCTYPE svg PUBLIC "-//W3C//DTD SVG 1.1//EN" "http://www.w3.org/Graphics/SVG/1.1/DTD/svg11.dtd">
<svg version="1.1" id="Layer_30" xmlns="http://www.w3.org/2000/svg" xmlns:xlink="http://www.w3.org/1999/xlink" x="0px" y="0px"
	 width="24px" height="24px" viewBox="0 0 24 24" enable-background="new 0 0 24 24" xml:space="preserve">
<g>
	<path d="M9.5,15.4c0-0.3,0-0.7,0-1c-0.9,0-1.7-0.3-2.4-0.9c0.2,0,0.3,0,0.5,0.1c0.6,0.1,1.3,0.1,1.9,0c0-1.5,0.3-3,0.6-4.5
		c0.2-1,0.5-2,0.8-3c0,0,0-0.1,0-0.1c0,0,0,0,0,0c0.9,1,2,1.8,3.2,2.5c0-0.3-0.1-0.5-0.1-0.8c-0.2-1.3-0.6-2.6-1-3.9
		c0-0.1-0.1-0.3-0.1-0.4c0,0,0,0-0.1,0.1c-0.8,0.9-1.9,1.6-3,2.2C8.6,6.5,7,7,5.3,7.1c-0.8,0.1-1.7,0.1-2.5,0C2.6,7.1,2,7.1,2,7.1
		c0,0,0,0,0,0c0,0,0.1,0.1,0.2,0.1c0.3,0.8,0.7,1.6,1,2.3c0.6,1.4,1.3,2.7,2.2,3.9c0.7,1,1.5,1.8,2.6,2.5c0.6,0.4,1.2,0.6,1.8,0.8
		C9.6,16.3,9.6,15.8,9.5,15.4z M5.9,11.6c0-0.6,0.4-1.3,0.9-1.4c0.6-0.2,1.3,0.2,1.6,0.6C7.4,10.3,6.5,10.7,5.9,11.6z"/>
	<path d="M22.1,10.8c-0.2,0.4-0.3,0.8-0.5,1.2c-0.6,1.6-1.3,3.1-2.3,4.5c-0.7,1.1-1.5,2.1-2.5,2.8c-0.7,0.6-1.6,1-2.5,1.2
		c-0.5,0.1-0.9,0.1-1.4,0c-0.3,0-0.5-0.2-0.7-0.3c-0.8-0.6-1.3-1.3-1.6-2.2c-0.4-0.9-0.6-1.8-0.6-2.8c-0.1-1.8,0.1-3.7,0.5-5.5
		C10.7,8.9,11,8,11.2,7.2c0,0,0-0.1,0-0.1c0,0,0,0,0,0c1.1,1.2,2.5,2.1,4,2.7c1.1,0.5,2.3,0.8,3.5,1C19.9,10.9,21,10.9,22.1,10.8
		C22.1,10.7,22.1,10.7,22.1,10.8z M16.7,18.1c0.1,0,0.1-0.1,0.1-0.2c-0.7-2.4-3.6-3.4-5.6-1.9c-0.1,0.1-0.1,0.1-0.1,0.2
		c0.4,0,0.9,0,1.3,0c0.7,0,1.4,0.1,2.1,0.4c0.5,0.2,1,0.6,1.4,0.9C16.2,17.7,16.5,17.9,16.7,18.1z M11.5,12.9c1-0.3,1.9-0.1,2.5,0.9
		c0-0.7-0.4-1.3-0.9-1.4C12.6,12.1,11.9,12.4,11.5,12.9z M18.4,15.2c0-0.7-0.4-1.3-1-1.4c-0.6-0.2-1.2,0.2-1.5,0.6
		c0.2,0,0.3-0.1,0.5-0.1c0.7-0.1,1.2,0,1.7,0.6C18.1,14.9,18.2,15.1,18.4,15.2z"/>
</g>
</svg>
