<svg xmlns="http://www.w3.org/2000/svg" width="24" height="24"><path d="M9.5 15.4v-1c-.9 0-1.7-.3-2.4-.9.2 0 .3 0 .5.1.6.1 1.3.1 1.9 0 0-1.5.3-3 .6-4.5.2-1 .5-2 .8-3V6c.9 1 2 1.8 3.2 2.5 0-.3-.1-.5-.1-.8-.2-1.3-.6-2.6-1-3.9 0-.1-.1-.3-.1-.4l-.1.1c-.8.9-1.9 1.6-3 2.2C8.6 6.5 7 7 5.3 7.1c-.8.1-1.7.1-2.5 0H2s.1.1.2.1c.3.8.7 1.6 1 2.3.6 1.4 1.3 2.7 2.2 3.9.7 1 1.5 1.8 2.6 2.5.6.4 1.2.6 1.8.8-.2-.4-.2-.9-.3-1.3zm-3.6-3.8c0-.6.4-1.3.9-1.4.6-.2 1.3.2 1.6.6-1-.5-1.9-.1-2.5.8z"/><path d="M22.1 10.8c-.2.4-.3.8-.5 1.2-.6 1.6-1.3 3.1-2.3 4.5-.7 1.1-1.5 2.1-2.5 2.8-.7.6-1.6 1-2.5 1.2-.5.1-.9.1-1.4 0-.3 0-.5-.2-.7-.3-.8-.6-1.3-1.3-1.6-2.2-.4-.9-.6-1.8-.6-2.8-.1-1.8.1-3.7.5-5.5.2-.8.5-1.7.7-2.5v-.1c1.1 1.2 2.5 2.1 4 2.7 1.1.5 2.3.8 3.5 1 1.2.1 2.3.1 3.4 0 0-.1 0-.1 0 0zm-5.4 7.3c.1 0 .1-.1.1-.2-.7-2.4-3.6-3.4-5.6-1.9-.1.1-.1.1-.1.2h1.3c.7 0 1.4.1 2.1.4.5.2 1 .6 1.4.9.3.2.6.4.8.6zm-5.2-5.2c1-.3 1.9-.1 2.5.9 0-.7-.4-1.3-.9-1.4-.5-.3-1.2 0-1.6.5zm6.9 2.3c0-.7-.4-1.3-1-1.4-.6-.2-1.2.2-1.5.6.2 0 .3-.1.5-.1.7-.1 1.2 0 1.7.6 0 0 .1.2.3.3z"/></svg>