<?xml version="1.0" encoding="utf-8"?>
<!-- Generator: Adobe Illustrator 17.1.0, SVG Export Plug-In . SVG Version: 6.00 Build 0)  -->
<!DOCTYPE svg PUBLIC "-//W3C//DTD SVG 1.1//EN" "http://www.w3.org/Graphics/SVG/1.1/DTD/svg11.dtd">
<svg version="1.1" id="Layer_30" xmlns="http://www.w3.org/2000/svg" xmlns:xlink="http://www.w3.org/1999/xlink" x="0px" y="0px"
	 viewBox="0 0 24 24" enable-background="new 0 0 24 24" xml:space="preserve">
<g>
	<path d="M2.6,22c0-0.4,0-0.9,0-1.3c0-0.9,0.1-1.8,0.4-2.6c0.2-0.5,0.4-0.8,0.8-1.1c0.5-0.4,1.1-0.6,1.7-0.8
		c0.5-0.2,0.9-0.3,1.4-0.4c0.5-0.2,1.1-0.3,1.6-0.5c0,0,0.1,0,0.2,0c0,0.1,0,0.1,0,0.2c-0.1,0.6-0.1,1.2,0.2,1.8
		c0.5,1.2,1.2,2.2,2.2,3.1c0.2,0.2,0.5,0.4,0.7,0.5c0.1,0.1,0.1,0,0.2,0c0.8-0.5,1.4-1.2,2-1.9c0.3-0.4,0.6-0.9,0.8-1.4
		c0.3-0.5,0.3-1.1,0.3-1.7c0-0.2,0-0.3,0-0.5c0.3,0.1,0.5,0.2,0.7,0.2c0.6,0.2,1.2,0.4,1.8,0.5c0.8,0.2,1.6,0.5,2.3,1
		c0.2,0.1,0.4,0.3,0.6,0.5c0.1,0.1,0.1,0.1,0.1,0.2c0.3,0.7,0.5,1.4,0.6,2.1c0.1,0.8,0.1,1.5,0.1,2.3C15.1,22,8.9,22,2.6,22z"/>
	<path d="M7.6,8c0-0.4-0.1-0.7-0.1-1.1c-0.1-0.7,0-1.5,0.2-2.2C8,3.7,8.7,3,9.7,2.5c0.5-0.3,1.1-0.4,1.7-0.4c0.2,0,0.5-0.1,0.7,0
		c0.9,0,1.8,0.2,2.6,0.7c0.6,0.4,1.2,0.9,1.4,1.6c0.3,0.7,0.4,1.5,0.3,2.2c0,0.5-0.1,0.9-0.1,1.4c0,0.1,0,0.1,0.1,0.1
		c0.2,0,0.4,0.1,0.5,0.4C17,8.7,17,9,17,9.3c-0.1,0.4-0.2,0.8-0.5,1.1c-0.2,0.2-0.3,0.4-0.3,0.6c-0.3,0.7-0.7,1.4-1.2,2
		c-0.5,0.6-1,1.1-1.8,1.3c-1.2,0.4-2.2,0.2-3.2-0.5c-0.6-0.5-1.1-1.1-1.5-1.7c-0.2-0.4-0.4-0.9-0.7-1.3c0-0.1-0.1-0.1-0.1-0.2
		C7.1,10,6.9,9.3,7,8.5c0-0.2,0.1-0.4,0.4-0.5C7.5,8,7.6,8,7.6,8z M8.5,9C8.5,9,8.5,9,8.5,9C8.5,8.9,8.4,8.8,8.3,8.7
		C8.3,8.6,8.2,8.5,8.1,8.4C8,8.3,7.9,8.3,7.8,8.4C7.7,8.5,7.6,8.6,7.6,8.8c0,0.2,0,0.3,0,0.5c0.1,0.3,0.2,0.6,0.4,0.9
		c0.1,0.1,0.2,0.2,0.3,0.4c0.3,0.6,0.6,1.2,0.9,1.7c0.3,0.5,0.6,0.9,1,1.2c0.5,0.4,1.1,0.5,1.7,0.5c0.6,0,1.2-0.1,1.7-0.5
		c0.4-0.3,0.7-0.6,0.9-1c0.3-0.5,0.6-1,0.8-1.6c0.1-0.3,0.2-0.6,0.5-0.8c0,0,0,0,0,0c0.3-0.4,0.4-0.8,0.4-1.3c0-0.1-0.1-0.3-0.2-0.4
		c-0.1-0.1-0.2-0.1-0.3,0c-0.1,0.1-0.2,0.2-0.2,0.3c-0.1,0.1-0.1,0.2-0.2,0.4c0-0.2,0.1-0.4,0.1-0.6c0.1-0.4,0.1-0.9,0.2-1.3
		c0-0.1,0-0.1-0.1-0.1c-0.2,0-0.4,0-0.6,0c-0.8-0.1-1.6-0.2-2.4-0.4c-0.4-0.1-0.9-0.3-1.3-0.6c-0.4-0.3-0.8-0.6-1.2-1
		c0,0-0.1-0.1-0.1-0.1C9.8,4.9,9.6,5,9.3,5.1C8.8,5.5,8.5,5.9,8.3,6.5c0,0,0,0.1,0,0.1c0,0.5,0,0.9,0.1,1.4C8.4,8.3,8.5,8.7,8.5,9z"
		/>
	<path d="M12,15.1c0.2,0,0.3,0,0.5,0c0.1,0,0.2,0,0.2,0.1c0.2,0.1,0.3,0.3,0.5,0.5c0,0.1,0,0.1,0,0.2c-0.2,0.3-0.4,0.6-0.7,0.8
		c-0.1,0.1-0.1,0.1-0.1,0.3c0.3,0.6,0.5,1.3,0.8,1.9c0,0.1,0,0.1,0,0.2c-0.3,0.4-0.7,0.8-1.1,1.1c0,0-0.1,0-0.1,0
		c-0.5-0.3-0.9-0.7-1.1-1.1c0,0,0-0.1,0-0.2c0.3-0.6,0.5-1.3,0.8-1.9c0-0.1,0-0.2-0.1-0.3c-0.3-0.2-0.5-0.5-0.7-0.8
		c0-0.1,0-0.1,0-0.2c0.2-0.2,0.3-0.3,0.5-0.5c0,0,0.1,0,0.1,0C11.6,15.1,11.8,15.1,12,15.1z"/>
</g>
</svg>
