<svg xmlns="http://www.w3.org/2000/svg" viewBox="0 0 24 24"><path d="M2.6 22v-1.3c0-.9.1-1.8.4-2.6.2-.5.4-.8.8-1.1.5-.4 1.1-.6 1.7-.8.5-.2.9-.3 1.4-.4.5-.2 1.1-.3 1.6-.5h.2v.2c-.1.6-.1 1.2.2 1.8.5 1.2 1.2 2.2 2.2 3.1.2.2.5.4.7.5.1.1.1 0 .2 0 .8-.5 1.4-1.2 2-1.9.3-.4.6-.9.8-1.4.3-.5.3-1.1.3-1.7v-.5c.3.1.5.2.7.2.6.2 1.2.4 1.8.5.8.2 1.6.5 2.3 1 .2.1.4.3.6.5.1.1.1.1.1.2.3.7.5 1.4.6 2.1.1.8.1 1.5.1 2.3C15.1 22 8.9 22 2.6 22zm5-14c0-.4-.1-.7-.1-1.1-.1-.7 0-1.5.2-2.2.3-1 1-1.7 2-2.2.5-.3 1.1-.4 1.7-.4.2 0 .5-.1.7 0 .9 0 1.8.2 2.6.7.6.4 1.2.9 1.4 1.6.3.7.4 1.5.3 2.2 0 .5-.1.9-.1 1.4 0 .1 0 .1.1.1.2 0 .4.1.5.4.1.2.1.5.1.8-.1.4-.2.8-.5 1.1-.2.2-.3.4-.3.6-.3.7-.7 1.4-1.2 2-.5.6-1 1.1-1.8 1.3-1.2.4-2.2.2-3.2-.5-.6-.5-1.1-1.1-1.5-1.7-.2-.4-.4-.9-.7-1.3 0-.1-.1-.1-.1-.2-.6-.6-.8-1.3-.7-2.1 0-.2.1-.4.4-.5h.2zm.9 1c0-.1-.1-.2-.2-.3 0-.1-.1-.2-.2-.3-.1-.1-.2-.1-.3 0-.1.1-.2.2-.2.4v.5c.1.3.2.6.4.9.1.1.2.2.3.4.3.6.6 1.2.9 1.7.3.5.6.9 1 1.2.5.4 1.1.5 1.7.5.6 0 1.2-.1 1.7-.5.4-.3.7-.6.9-1 .3-.5.6-1 .8-1.6.1-.3.2-.6.5-.8.3-.4.4-.8.4-1.3 0-.1-.1-.3-.2-.4-.1-.1-.2-.1-.3 0-.1.1-.2.2-.2.3-.1.1-.1.2-.2.4 0-.2.1-.4.1-.6.1-.4.1-.9.2-1.3 0-.1 0-.1-.1-.1h-.6c-.8-.1-1.6-.2-2.4-.4-.4-.1-.9-.3-1.3-.6s-.8-.6-1.2-1L9.9 5c-.1-.1-.3 0-.6.1-.5.4-.8.8-1 1.4v.1c0 .5 0 .9.1 1.4 0 .3.1.7.1 1z"/><path d="M12 15.1h.5c.1 0 .2 0 .2.1.2.1.3.3.5.5v.2c-.2.3-.4.6-.7.8-.1.1-.1.1-.1.3.3.6.5 1.3.8 1.9v.2c-.3.4-.7.8-1.1 1.1H12c-.5-.3-.9-.7-1.1-1.1v-.2c.3-.6.5-1.3.8-1.9 0-.1 0-.2-.1-.3-.3-.2-.5-.5-.7-.8v-.2l.5-.5h.1c.1-.1.3-.1.5-.1z"/></svg>