<svg xmlns="http://www.w3.org/2000/svg" viewBox="0 0 24 24"><path fill="#231F20" d="M18.3 4.2c-1.3-1.1-2.9-1.8-4.6-2.1C13.1 2 12.6 2 12 2c-5 0-9.2 3.7-9.9 8.5-.1.5-.1 1-.1 1.5 0 1.1.2 2.2.5 3.2C3.9 19.1 7.6 22 12 22c1.3 0 2.5-.2 3.6-.7 1.6-.6 3-1.7 4.1-3 1.4-1.7 2.3-4 2.3-6.4 0-3.1-1.5-5.9-3.7-7.7zm-4.7-1.6c1.2.2 2.4.7 3.5 1.4-1.4.5-2.6 1.4-3.6 2.5a9.06 9.06 0 00-2 5.2c-1.1.5-2.2.8-3.4.8-.3 0-.7 0-1-.1.1-3.5 2.5-8.8 6.5-9.8zm-2.2-.1c-3.3 2-5.1 6.4-5.3 9.8-1.3-.3-2.5-1-3.4-2 .7-4.2 4.3-7.5 8.7-7.8zM2.5 12v-.4c1.1.9 2.5 1.6 3.9 1.9.5.1 1.1.2 1.6.2 1.4 0 2.7-.3 3.9-.9 1.2.8 2.2 1.8 2.8 3.1-1.7.9-3.8 1.4-5.9 1.4-2.5 0-4.6-.8-5.9-2.2-.2-1.1-.4-2.1-.4-3.1zm12.7 8.9c-1 .4-2.1.6-3.2.6-3.4 0-6.4-1.8-8.1-4.6 1.4.8 3.1 1.2 5 1.2 2.1 0 4.4-.5 6.2-1.4.5 1.4.5 2.9.1 4.2zm4.1-2.8c-.8 1-1.8 1.8-2.9 2.3.3-1.5.1-3.2-.5-4.6-.7-1.7-1.9-3.1-3.4-4 .1-1.5.6-3 1.5-4.3 3 2 6.4 6.6 5.3 10.6zM14.7 6.8c1-1 2.1-1.7 3.5-2 2.1 1.8 3.4 4.4 3.4 7.3 0 1.5-.3 2.9-1 4.2-.2-3.9-3.1-7.7-5.9-9.5z"/></svg>