<?xml version="1.0" encoding="utf-8"?>
<!-- Generator: Adobe Illustrator 17.1.0, SVG Export Plug-In . SVG Version: 6.00 Build 0)  -->
<!DOCTYPE svg PUBLIC "-//W3C//DTD SVG 1.1//EN" "http://www.w3.org/Graphics/SVG/1.1/DTD/svg11.dtd">
<svg version="1.1" id="Layer_30" xmlns="http://www.w3.org/2000/svg" xmlns:xlink="http://www.w3.org/1999/xlink" x="0px" y="0px"
	 viewBox="0 0 24 24" enable-background="new 0 0 24 24" xml:space="preserve">
<path d="M8,18.7c0-0.1,0-0.2,0-0.3c0-0.4,0.2-0.7,0.6-0.7c0.4-0.1,0.9-0.2,1.3-0.4c0.2-0.1,0.4-0.2,0.6-0.4c0.2-0.1,0.3-0.4,0.2-0.6
	c0-0.2,0-0.5,0-0.7c-0.1-0.5-0.3-0.8-0.7-1.1c-0.5-0.3-0.9-0.7-1.3-1.1c0,0-0.1-0.1-0.1-0.1c-2.9-0.2-5.2-2-6.1-4.7
	C2.2,7.6,2,6.7,2,5.7c0-0.6,0.4-1,1-1c1,0,1.9,0,2.9,0c0,0,0.1,0,0.1,0C6,4.4,6,4.2,6,4c0,0,0,0-0.1,0C5.6,3.9,5.3,3.6,5.3,3.2
	c0-0.4,0.3-0.6,0.7-0.6c4,0,8,0,11.9,0c0.3,0,0.6,0.2,0.7,0.5c0.1,0.3-0.1,0.6-0.3,0.7c-0.1,0-0.2,0.1-0.3,0.1c0,0.2,0,0.4,0,0.7
	c0.1,0,0.1,0,0.1,0c1,0,1.9,0,2.9,0c0.6,0,1,0.4,1,1c0,1.4-0.3,2.8-0.9,4c-1,1.9-2.5,3-4.6,3.5c-0.3,0.1-0.7,0.1-1,0.1
	c0,0-0.1,0-0.1,0.1c-0.4,0.4-0.8,0.8-1.3,1.1c-0.5,0.3-0.7,0.7-0.7,1.3c0,0.2,0,0.3,0,0.5c0,0.3,0.1,0.6,0.3,0.7
	c0.2,0.1,0.4,0.3,0.7,0.4c0.3,0.1,0.7,0.2,1,0.3c0.4,0.1,0.6,0.4,0.6,0.8c0,0.1,0,0.2,0,0.3c0,0,0.1,0,0.1,0c0.2,0,0.4,0,0.6,0
	c0.4,0,0.6,0.3,0.7,0.6c0,0.5,0,0.9,0,1.4c0,0.4-0.3,0.6-0.6,0.6c0,0-0.1,0-0.1,0c-3.1,0-6.1,0-9.2,0c-0.5,0-0.7-0.3-0.7-0.7
	c0-0.4,0-0.8,0-1.2c0-0.4,0.3-0.7,0.7-0.7C7.6,18.7,7.8,18.7,8,18.7z M14,10.8c0.1,0,0.2-0.1,0.2-0.2c-0.2-0.7-0.3-1.3-0.5-2
	c0-0.1,0-0.1,0.1-0.2c0.5-0.4,1-0.8,1.4-1.3c0,0,0.1-0.1,0.1-0.2c0-0.1-0.1-0.1-0.2-0.1c-0.6-0.1-1.3-0.1-1.9-0.2
	c-0.1,0-0.1,0-0.2-0.1c-0.3-0.6-0.6-1.2-0.8-1.8c0-0.1-0.1-0.2-0.2-0.2c-0.1,0-0.1,0.1-0.2,0.2c-0.3,0.6-0.6,1.2-0.8,1.8
	c0,0.1-0.1,0.1-0.1,0.1C10.2,6.7,9.6,6.8,9,6.8c-0.1,0-0.2,0-0.2,0.1c0,0.1,0,0.1,0.1,0.2C9.3,7.6,9.8,8,10.3,8.4
	c0.1,0.1,0.1,0.1,0.1,0.2c-0.2,0.6-0.3,1.3-0.5,1.9c0,0.1,0,0.2,0,0.2c0.1,0.1,0.1,0,0.2,0c0.6-0.3,1.2-0.6,1.7-0.9
	c0.1,0,0.1,0,0.2,0c0.6,0.3,1.2,0.6,1.7,0.9C13.9,10.8,13.9,10.8,14,10.8z M16.4,11.9C16.4,11.8,16.4,11.8,16.4,11.9
	c1.6-0.4,2.7-1.3,3.5-2.6c0.5-0.9,0.7-1.9,0.8-3c0-0.2,0-0.3-0.3-0.3c-0.8,0-1.6,0-2.4,0c0,0-0.1,0-0.1,0C17.6,8,17.3,10,16.4,11.9z
	 M6.1,6C6.1,6,6.1,6,6.1,6C5.2,6,4.4,6,3.6,6C3.4,6,3.3,6.1,3.3,6.2C3.4,7,3.5,7.7,3.8,8.4c0.7,1.8,1.9,2.9,3.7,3.4c0,0,0.1,0,0.1,0
	C6.7,10,6.4,8,6.1,6z M12,18.7c-0.4,0-0.7,0-1.1,0c-0.2,0-0.3,0.1-0.3,0.3c0,0.3,0,0.5,0,0.8c0,0.2,0.1,0.3,0.3,0.3
	c0.7,0,1.4,0,2.1,0c0.2,0,0.3-0.1,0.3-0.3c0-0.3,0-0.5,0-0.8c0-0.2-0.1-0.3-0.3-0.3C12.7,18.7,12.4,18.7,12,18.7z"/>
</svg>
