<svg xmlns="http://www.w3.org/2000/svg" viewBox="0 0 24 24"><path d="M21.6 16c-.1-.3-.1-.6-.2-.9 0-.1-.1-.2-.2-.1-.4.1-.8.1-1.2.2-.6.1-1.1.2-1.7-.2-.6-.4-1.2-.7-1.8-1.1 0 0-.1 0-.1-.1l.1-.1c.3-.1.5-.2.8-.4 1-.4 1.9-.8 2.9-1.2.1-.1.1-.1 0-.2s-.3-.2-.5-.2c-1.1-.4-2.1-.9-3.2-1.4-.1 0-.1 0-.2-.1.7-.4 1.5-.9 2.2-1.3.2-.1.4-.2.6-.2.3.1.7.1 1 .2.3 0 .6.1.9.2.1 0 .2 0 .2-.2 0-.3.1-.6.1-.9.1-.2-.1-.2-.2-.2-.5-.1-1-.2-1.6-.3l.6-1.5c0-.1 0-.2-.1-.2-.4-.1-.7-.3-1-.4 0 .6-.2 1.2-.4 1.9-.1.2-.2.3-.4.4-.4.2-.7.4-1.1.6-.4.2-.9.5-1.3.7-.1.1-.2 0-.1-.1v-.5c.1-.7.1-1.3.2-2 .1-.4.2-.9.2-1.4 0-.1.1-.1 0-.2-.1 0-.1 0-.2.1-.9.6-1.8 1.3-2.7 1.9-.2.2-.4.3-.7.5V4.7c0-.1 0-.2.1-.2.4-.5.9-1.1 1.3-1.6.1-.1.1-.1 0-.2-.3-.2-.6-.4-.8-.7-.1 0-.1-.1-.1 0-.3.4-.6.7-.9 1.1-.1.2-.2.2-.3 0 0-.1-.1-.1-.2-.2-.2-.2-.3-.5-.5-.7-.1-.2-.3-.2-.5-.1l-.6.6c-.1.1-.1.1 0 .2.3.3.5.6.8.9l.3.3c.2.2.4.4.4.7v2.3c-.1 0-.1 0-.2-.1-.6-.5-1.3-.9-1.9-1.4-.5-.1-1-.4-1.4-.7 0 0-.1-.1-.1 0v.2c0 .1.1.1.1.2-.1.3 0 .7 0 1.1 0 .4.1.8.1 1.3 0 .2 0 .4.1.6 0 .3.1.5.1.8h-.1c-.8-.5-1.7-1-2.5-1.4-.1-.2-.2-.3-.2-.4-.2-.6-.5-1.2-.7-1.8 0-.1-.1-.2-.2-.1l-.9.3c-.1 0-.1.1-.1.2.2.5.3.9.5 1.4.1.1.1.2-.1.2-.4.1-.8.2-1.2.2-.3.1-.4 0-.3.4 0 .3 0 .5.1.8 0 .1.1.2.2.2.2-.1.4-.1.6-.1.5-.1 1.1-.1 1.6-.3.1 0 .1 0 .2.1.8.5 1.7 1 2.5 1.5-1.3.6-2.6 1.2-4 1.8l3.9 1.8-.2.2c-.8.4-1.6.8-2.3 1.3-.1 0-.1.1-.2 0-.3-.1-.6-.1-.9-.2-.4-.1-.8-.2-1.2-.2-.1 0-.3 0-.3.2 0 .3-.1.5-.1.8 0 .1-.1.3.1.3l1.5.3c.1 0 .1.1.1.1-.2.5-.3.9-.5 1.4-.1.2 0 .2.1.2.3.1.6.2.9.4.1.1.2 0 .2-.1.2-.5.4-.9.5-1.4.1-.4.4-.8.8-1 .7-.4 1.4-.8 2.2-1.3-.2 1.5-.3 2.9-.5 4.3.1 0 .2-.1.2-.1 1-.8 2.1-1.5 3.1-2.3 0 0 .2-.1.3-.1.1 0 0 2.7 0 2.7-.2.3-.3.5-.6.7-.2.3-.5.5-.7.8-.1.1-.2.2-.1.3l.6.6c.1.1.2.1.3 0 .3-.4.6-.7.9-1.1.1-.1.2-.2.3 0 .3.4.6.8 1 1.1.1.1.1.1.2 0 .3-.2.5-.4.8-.7.1-.1.1-.2 0-.2-.4-.5-.8-1-1.3-1.4-.1-.1-.2-.2-.2-.4v-2.4c1.1.8 2.3 1.6 3.4 2.4v-.3c-.1-.5-.1-1-.2-1.5-.1-.7-.2-1.5-.2-2.2V15h.1c.8.5 1.6.9 2.4 1.4.1.1.2.2.3.4l.6 1.8c0 .1.1.1.2.1l.9-.3c.1 0 .1-.1.1-.2-.2-.5-.3-.9-.5-1.4-.1-.2 0-.3.2-.3.5-.1.9-.1 1.4-.2.3-.1.4-.1.3-.3zM9 12.9c-.7-.3-1.3-.6-2-.9l-.1-.1c.7-.3 1.4-.6 2-.9h.3c.2.1.5.2.7.4.2.2.4.3.7.4 0 0 .1 0 .1.1s0 .1-.1.1c-.5.3-1 .6-1.4.8-.1.2-.2.2-.2.1zm2.4 2.1c0 .1 0 .1-.1.1-.6.4-1.2.9-1.9 1.3 0-.4.1-.8.1-1.1 0-.4.1-.7.1-1.1 0-.1.1-.2.2-.3.4-.3.9-.5 1.3-.8.2-.1.2-.1.2.1.2.7.1 1.2.1 1.8zm0-4.3c0 .1-.1.1-.2.1-.3-.1-.6-.4-.9-.5-.5-.2-.9-.6-.9-1.1 0-.5-.4-1-.4-1.5v-.1c1 .5 1.5.9 2.1 1.3.1.1.3.3.3.4v1.4zm1.3-1.8c.6-.4 1.2-.9 1.8-1.3.1.5 0 1-.1 1.5-.2.9 0 .8-.9 1.3-.2.1-.5.3-.7.4-.1.1-.2.1-.2-.1V9.1c.1-.1.1-.2.1-.2zm1.7 7.4c-.5-.3-.9-.7-1.4-1-.2-.1-.3-.3-.4-.6-.1-.5 0-1.1.1-1.6.5.3 1.1.6 1.6 1 .1 0 .1.1.1.1.1.7.2 1.5.3 2.2-.2 0-.2 0-.3-.1zm.7-3.4h-.2c-.5-.3-.9-.5-1.4-.8-.1-.1-.2-.1 0-.2.5-.3.9-.5 1.4-.8.1 0 .1-.1.2 0l2.1.9c-.3.2-.6.3-.8.5-.5.1-.9.2-1.3.4z"/></svg>